<svg xmlns="http://www.w3.org/2000/svg" viewBox="0 0 500 500"><g id="freepik--background-simple--inject-55"><path d="M199.7,73.06C127.83,93.82,48,171.93,75.32,252.79c27.5,81.27,155.22,116,180.06,13.41,4.59-18.95-3.84-43.5,8.82-59.65S306.94,192,326,189.13c39-5.91,65.23-28.22,45-69.8C343.6,62.86,251.24,58.18,199.7,73.06Z" style="fill:#407BFF"></path><path d="M199.7,73.06C127.83,93.82,48,171.93,75.32,252.79c27.5,81.27,155.22,116,180.06,13.41,4.59-18.95-3.84-43.5,8.82-59.65S306.94,192,326,189.13c39-5.91,65.23-28.22,45-69.8C343.6,62.86,251.24,58.18,199.7,73.06Z" style="fill:#fff;opacity:0.8"></path></g><g id="freepik--Shadow--inject-55"><ellipse cx="250" cy="416.24" rx="193.89" ry="11.32" style="fill:#f5f5f5"></ellipse></g><g id="freepik--Character--inject-55"><path d="M267.11,407a1.36,1.36,0,0,1-1.33-1.09l-19-93.56H213.69l-19,93.56a1.36,1.36,0,0,1-2.66-.54l19.22-94.65a1.37,1.37,0,0,1,1.33-1.09h35.3a1.36,1.36,0,0,1,1.33,1.09l19.23,94.65a1.36,1.36,0,0,1-1.06,1.6Z" style="fill:#407BFF"></path><path d="M214,407a1.37,1.37,0,0,1-1.33-1.09l-19-93.56H160.58l-19,93.56a1.36,1.36,0,1,1-2.66-.54l19.23-94.65a1.36,1.36,0,0,1,1.33-1.09h35.3a1.35,1.35,0,0,1,1.32,1.09l19.23,94.65a1.36,1.36,0,0,1-1.06,1.6Z" style="fill:#407BFF"></path><path d="M221.43,311h-60.8a21.32,21.32,0,0,1-21.32-20.89l-2.26-92.4a15.53,15.53,0,0,1,15.52-15.85h38.12a15.54,15.54,0,0,1,15.43,13.78Z" style="fill:#407BFF"></path><path d="M188.27,299.3h59.5a8.33,8.33,0,0,1,8.33,8.33v.29a3,3,0,0,1-3,3H188.27a0,0,0,0,1,0,0V299.3A0,0,0,0,1,188.27,299.3Z" style="fill:#407BFF"></path><g style="opacity:0.30000000000000004"><path d="M267.11,407a1.36,1.36,0,0,1-1.33-1.09l-19-93.56H213.69l-19,93.56a1.36,1.36,0,0,1-2.66-.54l19.22-94.65a1.37,1.37,0,0,1,1.33-1.09h35.3a1.36,1.36,0,0,1,1.33,1.09l19.23,94.65a1.36,1.36,0,0,1-1.06,1.6Z"></path><path d="M214,407a1.37,1.37,0,0,1-1.33-1.09l-19-93.56H160.58l-19,93.56a1.36,1.36,0,1,1-2.66-.54l19.23-94.65a1.36,1.36,0,0,1,1.33-1.09h35.3a1.35,1.35,0,0,1,1.32,1.09l19.23,94.65a1.36,1.36,0,0,1-1.06,1.6Z"></path><path d="M221.43,311h-60.8a21.32,21.32,0,0,1-21.32-20.89l-2.26-92.4a15.53,15.53,0,0,1,15.52-15.85h38.12a15.54,15.54,0,0,1,15.43,13.78Z"></path><path d="M188.27,299.3h59.5a8.33,8.33,0,0,1,8.33,8.33v.29a3,3,0,0,1-3,3H188.27a0,0,0,0,1,0,0V299.3A0,0,0,0,1,188.27,299.3Z"></path></g><path d="M204.51,176.76s8.5,11.1,3,33.2-33.88,10.1-35.6-9.82c-2-23.48,24.36-7.29,29-28.17Z" style="fill:#263238"></path><path d="M198.34,170.17c-3.69,2.6-5.15,6.38-1.07,10.08s9.9,3.58,11.66,2.06,1.41-9.24,1.41-9.24Z" style="fill:#407BFF"></path><path d="M198.34,170.17c-3.69,2.6-5.15,6.38-1.07,10.08s9.9,3.58,11.66,2.06,1.41-9.24,1.41-9.24Z" style="fill:#fff;opacity:0.8"></path><path d="M244.94,219.36c.1.45.27,1.15.43,1.74l.48,1.88c.34,1.26.71,2.52,1.1,3.78.74,2.54,1.56,5.07,2.42,7.6s1.74,5,2.7,7.56c.47,1.25.94,2.51,1.44,3.76l.58,1.5a3,3,0,0,0,.45.71,13.26,13.26,0,0,0,5.07,3.2,46.6,46.6,0,0,0,7.2,2.24c2.54.59,5.15,1.08,7.79,1.49s5.35.74,7.95,1l.09,5.38a83.4,83.4,0,0,1-17.16,0,50.49,50.49,0,0,1-8.81-1.71,29.65,29.65,0,0,1-4.54-1.79,17.39,17.39,0,0,1-4.56-3.21,12.62,12.62,0,0,1-2-2.59c-.15-.24-.28-.51-.42-.76l-.26-.54-.46-1c-.62-1.27-1.24-2.54-1.81-3.83-1.16-2.58-2.29-5.18-3.3-7.83s-2-5.32-2.84-8c-.41-1.38-.81-2.75-1.18-4.16l-.55-2.11c-.16-.76-.31-1.39-.47-2.29Z" style="fill:#e58a7b"></path><path d="M241.54,208c4.29,1.09,7.28,18.73,7.28,18.73l-11.81,8s-11.33-17.8-8-22.51C232.42,207.38,235.28,206.44,241.54,208Z" style="fill:#407BFF"></path><path d="M241.54,208c4.29,1.09,7.28,18.73,7.28,18.73l-11.81,8s-11.33-17.8-8-22.51C232.42,207.38,235.28,206.44,241.54,208Z" style="fill:#fff;opacity:0.5"></path><path d="M240,212.44l-10.27,8.14A90.6,90.6,0,0,0,237,234.8l8.19-5.57Z" style="fill:#407BFF;opacity:0.2"></path><path d="M241.54,208s5,1.74-5,62.77H194.32c.71-17.19.73-27.79-7.48-63.08a125.24,125.24,0,0,1,17.93-2.36,134.91,134.91,0,0,1,19.19,0C232.2,206.12,241.54,208,241.54,208Z" style="fill:#407BFF"></path><path d="M241.54,208s5,1.74-5,62.77H194.32c.71-17.19.73-27.79-7.48-63.08a125.24,125.24,0,0,1,17.93-2.36,134.91,134.91,0,0,1,19.19,0C232.2,206.12,241.54,208,241.54,208Z" style="fill:#fff;opacity:0.5"></path><path d="M281,255.77l7.37-7.48,1,10.54s-5.53,3.74-9.35,1.73Z" style="fill:#e58a7b"></path><polygon points="297.07 247.18 297.4 256.04 289.36 258.83 288.39 248.29 297.07 247.18" style="fill:#e58a7b"></polygon><polygon points="284.46 397.3 294.86 397.3 296.46 373.21 286.06 373.21 284.46 397.3" style="fill:#e58a7b"></polygon><polygon points="244.21 397.3 254.61 397.3 257.95 373.21 247.55 373.21 244.21 397.3" style="fill:#e58a7b"></polygon><path d="M255.26,396.09H243.57a.82.82,0,0,0-.83.71l-1.33,9.25a1.68,1.68,0,0,0,1.67,1.85c4.07-.07,6-.31,11.17-.31,3.16,0,11.27.33,15.64.33s4.6-4.32,2.78-4.71c-8.15-1.76-12.93-4.17-15.68-6.48A2.67,2.67,0,0,0,255.26,396.09Z" style="fill:#263238"></path><path d="M295.67,396.09H284a.83.83,0,0,0-.83.71l-1.33,9.25a1.68,1.68,0,0,0,1.67,1.85c4.07-.07,6-.31,11.17-.31,3.17,0,9.7.33,14.07.33s4.6-4.32,2.78-4.71c-8.15-1.76-11.36-4.17-14.1-6.48A2.71,2.71,0,0,0,295.67,396.09Z" style="fill:#263238"></path><path d="M233.25,162.72c3.74.24,5.64,19-5.33,17.91S233.25,162.72,233.25,162.72Z" style="fill:#263238"></path><polygon points="296.46 373.21 295.63 385.63 285.23 385.63 286.05 373.21 296.46 373.21" style="fill:#cf6f64"></polygon><polygon points="247.55 373.21 257.96 373.21 256.23 385.63 245.82 385.63 247.55 373.21" style="fill:#cf6f64"></polygon><path d="M191.06,227.31c1,5.12,1.71,9.54,2.25,13.52l2.47-19.11Z" style="fill:#407BFF;opacity:0.2"></path><path d="M206.67,183.77c1.21,6.17,2.42,17.48-1.9,21.6,0,0,1.69,6.26,13.16,6.26,12.61,0,6-6.26,6-6.26-6.89-1.64-6.71-6.75-5.51-11.54Z" style="fill:#e58a7b"></path><polygon points="215.65 212.97 219.49 211.59 218.98 210.54 215.65 212.97" style="fill:#263238"></polygon><polygon points="223.1 212.17 219.49 211.59 220.27 210.42 223.1 212.17" style="fill:#263238"></polygon><path d="M206.17,202.46,203.56,205a.43.43,0,0,0,0,.6l11,12.53a12.38,12.38,0,0,1,4.48-7.54c-9.1-3.44-11.47-7-12.28-8A.35.35,0,0,0,206.17,202.46Z" style="fill:#407BFF"></path><path d="M221.89,204.38l3.24.88a.57.57,0,0,1,.4.41,24.21,24.21,0,0,1-.5,12.41c-.46-1.7-2-5.77-4.76-7.66,3-2.07,1.79-4.74,1.36-5.75A.22.22,0,0,1,221.89,204.38Z" style="fill:#407BFF"></path><path d="M211.48,187.87l7,5.95a20.71,20.71,0,0,0-.59,3.4c-2.63-.38-6.24-3.26-6.52-6A9.09,9.09,0,0,1,211.48,187.87Z" style="fill:#cf6f64"></path><path d="M206,167.51c-1.19,10.25-1.92,14.57,2.28,20.69,6.3,9.21,19.16,8.43,23.39-1.26,3.81-8.72,5.11-24-4.09-29.84A14.08,14.08,0,0,0,206,167.51Z" style="fill:#e58a7b"></path><path d="M229.44,150.58c-16.95-6.69-29.68.86-32.31,11.59C193,178.83,206.19,180,206.19,180l1.65-4.26c2.37,1.43,9,.8,7-11.57-1.18-7,7.68,2.75,18.92,1.66C236.75,165.54,240.84,155.08,229.44,150.58Z" style="fill:#263238"></path><path d="M235.21,154.7c-2.23-3.43-6.79-6.37-16.24-7.76,0,0,4.91,1.11,6.5,4.7S237.9,158.83,235.21,154.7Z" style="fill:#263238"></path><path d="M202.74,176.38a7.51,7.51,0,0,0,1.83,5.46c1.75,2,4.05.77,4.77-1.63.64-2.17.51-5.81-1.83-6.91S202.93,173.94,202.74,176.38Z" style="fill:#e58a7b"></path><path d="M236.57,270.81s69.74,6.49,69.06,38.2c-.71,33-7.77,74.22-7.77,74.22H283.45s-1.23-34.88-1.65-67.37c-.21-16.92-67.6-20.31-67.6-20.31l-8.7-24.74Z" style="fill:#263238"></path><path d="M225.41,270.81s45.07,14.95,46.21,33.45c2.09,34.06-12.88,79-12.88,79H244.55s.81-29.8,2.5-60.66c2.14-38.78-66.28-.54-52.73-51.76Z" style="fill:#263238"></path><path d="M220.83,173.1c-.15.82.17,1.57.71,1.67s1.09-.5,1.24-1.32-.17-1.58-.71-1.67S221,172.27,220.83,173.1Z" style="fill:#263238"></path><path d="M230.16,174.77c-.15.82.17,1.57.71,1.67s1.1-.5,1.25-1.32-.17-1.58-.71-1.67S230.31,173.94,230.16,174.77Z" style="fill:#263238"></path><path d="M231.16,173.45l2.09-.22S232,174.6,231.16,173.45Z" style="fill:#263238"></path><path d="M227.44,175.74a22.62,22.62,0,0,0,2,5.8,3.62,3.62,0,0,1-3,0Z" style="fill:#df5753"></path><path d="M223,184.21h0a7.07,7.07,0,0,1-5.18-3.75.16.16,0,0,1,.08-.21.17.17,0,0,1,.21.09A6.73,6.73,0,0,0,223,183.9a.17.17,0,0,1,.13.19A.16.16,0,0,1,223,184.21Z" style="fill:#263238"></path><path d="M218.64,169.41a.29.29,0,0,1-.23-.1.3.3,0,0,1,0-.44,4.7,4.7,0,0,1,4.14-1.26.32.32,0,0,1,.22.38.31.31,0,0,1-.38.23,4.06,4.06,0,0,0-3.56,1.11A.34.34,0,0,1,218.64,169.41Z" style="fill:#263238"></path><path d="M235.26,171.05a.3.3,0,0,1-.29-.19,4.11,4.11,0,0,0-2.82-2.44.32.32,0,0,1-.26-.36.32.32,0,0,1,.37-.26,4.67,4.67,0,0,1,3.28,2.81.32.32,0,0,1-.16.42Z" style="fill:#263238"></path><path d="M193.15,222.78c-.91,3-1.89,6-2.76,9.08s-1.79,6.08-2.58,9.13-1.54,6.07-2.1,9c-.27,1.48-.52,2.95-.66,4.33-.08.69-.12,1.34-.13,1.94,0,.14,0,0-.1-.23a2.51,2.51,0,0,0-.5-.73c-.51-.44-.7-.36-.47-.29a4.69,4.69,0,0,0,1.28.13,21.83,21.83,0,0,0,4-.51,74.59,74.59,0,0,0,8.79-2.51c5.91-2,11.91-4.44,17.75-6.93l2.58,4.71a140.14,140.14,0,0,1-17.33,9.68,73.76,73.76,0,0,1-9.59,3.73,29.64,29.64,0,0,1-5.6,1.13,14,14,0,0,1-3.56-.09,9.09,9.09,0,0,1-2.27-.65,7.85,7.85,0,0,1-2.5-1.72,8.13,8.13,0,0,1-2.23-5.4c-.05-1-.06-2,0-2.9.07-1.85.24-3.6.47-5.31.48-3.42,1.1-6.72,1.86-10s1.57-6.45,2.46-9.63,1.85-6.3,3-9.48Z" style="fill:#e58a7b"></path><path d="M258.82,397.84a12.15,12.15,0,0,1-2.73-.38.17.17,0,0,1-.06-.31c.35-.23,3.47-2.25,4.66-1.72a.75.75,0,0,1,.44.64,1.31,1.31,0,0,1-.38,1.24A2.92,2.92,0,0,1,258.82,397.84Zm-2.25-.62c1.93.4,3.38.35,3.94-.17a1,1,0,0,0,.28-.93.43.43,0,0,0-.25-.37C259.78,395.41,257.67,396.54,256.57,397.22Z" style="fill:#407BFF"></path><path d="M256.13,397.47l-.09,0a.18.18,0,0,1-.09-.16c0-.12,0-3.08,1.12-4.06a1.17,1.17,0,0,1,1-.31.78.78,0,0,1,.77.62c.21,1.08-1.53,3.29-2.62,3.91Zm1.76-4.22a.86.86,0,0,0-.59.24c-.79.7-.95,2.68-1,3.47,1-.72,2.34-2.54,2.17-3.35,0-.13-.1-.3-.46-.35Z" style="fill:#407BFF"></path><path d="M299.58,397.84a18.2,18.2,0,0,1-3.27-.37.19.19,0,0,1-.14-.15.17.17,0,0,1,.1-.18c.46-.24,4.57-2.34,5.82-1.66a.74.74,0,0,1,.38.6,1.28,1.28,0,0,1-.42,1.13A3.83,3.83,0,0,1,299.58,397.84Zm-2.69-.62c1.34.23,4,.56,4.92-.26a1,1,0,0,0,.31-.85.38.38,0,0,0-.2-.33C301.1,395.34,298.34,396.51,296.89,397.22Z" style="fill:#407BFF"></path><path d="M296.35,397.47a.17.17,0,0,1-.1,0,.21.21,0,0,1-.08-.16c0-.12.25-2.89,1.53-4a1.72,1.72,0,0,1,1.31-.4c.64.06.82.38.87.63.18,1.15-2.24,3.35-3.46,3.9Zm2.47-4.22a1.32,1.32,0,0,0-.89.34c-.94.78-1.27,2.65-1.37,3.4,1.31-.73,3.1-2.61,3-3.38,0-.08,0-.3-.55-.35Z" style="fill:#407BFF"></path><path d="M215.43,245.35l9.86-2.5-4.7,9.47s-6.67.29-8.87-3.43Z" style="fill:#e58a7b"></path><polygon points="233.26 246.44 228.9 254.16 220.59 252.32 225.29 242.85 233.26 246.44" style="fill:#e58a7b"></polygon><path d="M221.82,171.78l2.09-.22S222.62,172.93,221.82,171.78Z" style="fill:#263238"></path><path d="M193.69,268.33l-.34,3.78c-.14.3.2.6.69.6h42.74c.38,0,.69-.19.72-.43l.38-3.78c0-.26-.31-.48-.72-.48H194.38A.78.78,0,0,0,193.69,268.33Z" style="fill:#407BFF"></path><path d="M199.44,273.12h-1.15c-.23,0-.4-.12-.39-.26l.54-4.92c0-.14.22-.26.45-.26H200c.23,0,.4.12.39.26l-.54,4.92C199.86,273,199.66,273.12,199.44,273.12Z" style="fill:#263238"></path><path d="M233.56,273.12h-1.15c-.23,0-.4-.12-.39-.26l.54-4.92c0-.14.22-.26.45-.26h1.14c.23,0,.4.12.39.26l-.54,4.92C234,273,233.78,273.12,233.56,273.12Z" style="fill:#263238"></path><path d="M216.5,273.12h-1.15c-.23,0-.4-.12-.39-.26l.54-4.92c0-.14.22-.26.45-.26h1.14c.23,0,.4.12.39.26l-.54,4.92C216.92,273,216.73,273.12,216.5,273.12Z" style="fill:#263238"></path><path d="M186.84,207.73c-4.24,1.29-9.32,15.86-9.32,15.86l13.65,13.33s8.76-13.75,7-19.22C196.3,212,191.67,206.27,186.84,207.73Z" style="fill:#407BFF"></path><path d="M186.84,207.73c-4.24,1.29-9.32,15.86-9.32,15.86l13.65,13.33s8.76-13.75,7-19.22C196.3,212,191.67,206.27,186.84,207.73Z" style="fill:#fff;opacity:0.5"></path></g><g id="freepik--Desk--inject-55"><rect x="334.1" y="260.42" width="79.56" height="154.75" style="fill:#407BFF"></rect><rect x="334.1" y="260.42" width="79.56" height="154.75" style="fill:#fff;opacity:0.6000000000000001"></rect><rect x="179.97" y="260.42" width="79.56" height="154.75" style="fill:#407BFF"></rect><rect x="179.97" y="260.42" width="79.56" height="154.75" style="fill:#fff;opacity:0.6000000000000001"></rect><rect x="410.08" y="260.42" width="6.56" height="154.75" style="fill:#407BFF"></rect><rect x="410.08" y="260.42" width="6.56" height="154.75" style="opacity:0.30000000000000004"></rect><rect x="260.48" y="260.42" width="158.19" height="11.61" transform="translate(679.15 532.45) rotate(180)" style="fill:#407BFF"></rect><rect x="260.48" y="260.42" width="158.19" height="11.61" transform="translate(679.15 532.45) rotate(180)" style="opacity:0.30000000000000004"></rect><rect x="255.96" y="260.42" width="6.56" height="154.75" style="fill:#407BFF"></rect><rect x="255.96" y="260.42" width="6.56" height="154.75" style="opacity:0.30000000000000004"></rect><rect x="260.1" y="264" width="153.26" height="33.43" transform="translate(673.46 561.44) rotate(180)" style="fill:#407BFF"></rect><rect x="260.1" y="264" width="153.26" height="33.43" transform="translate(673.46 561.44) rotate(180)" style="opacity:0.30000000000000004"></rect><path d="M413.7,419.67H369.53a11.32,11.32,0,0,1-11.31-11.31V269a10,10,0,0,0-10-10H335v-1h13.21a11,11,0,0,1,11,11V408.36a10.32,10.32,0,0,0,10.31,10.31H413.7a3.57,3.57,0,0,0,2.13-6.44l.59-.8a4.57,4.57,0,0,1-2.72,8.24Z" style="fill:#407BFF"></path><path d="M413.7,419.67H369.53a11.32,11.32,0,0,1-11.31-11.31V269a10,10,0,0,0-10-10H335v-1h13.21a11,11,0,0,1,11,11V408.36a10.32,10.32,0,0,0,10.31,10.31H413.7a3.57,3.57,0,0,0,2.13-6.44l.59-.8a4.57,4.57,0,0,1-2.72,8.24Z" style="opacity:0.30000000000000004"></path><rect x="419.14" y="306.08" width="1" height="19.33" style="fill:#407BFF"></rect><rect x="419.14" y="306.08" width="1" height="19.33" style="opacity:0.30000000000000004"></rect><rect x="419.14" y="294.67" width="1" height="5.08" style="fill:#407BFF"></rect><rect x="419.14" y="294.67" width="1" height="5.08" style="opacity:0.30000000000000004"></rect></g><g id="freepik--Computer--inject-55"><polygon points="346.9 214.22 272.76 214.22 262.02 258 336.15 258 346.9 214.22" style="fill:#407BFF"></polygon><polygon points="346.9 214.22 272.76 214.22 262.02 258 336.15 258 346.9 214.22" style="fill:#fff;opacity:0.4"></polygon><polygon points="264.29 258 263.99 260.42 234.9 260.42 235.2 258 264.29 258" style="fill:#407BFF"></polygon><polygon points="264.29 258 263.99 260.42 234.9 260.42 235.2 258 264.29 258" style="fill:#fff;opacity:0.4"></polygon><polygon points="338.43 258 338.13 260.42 263.99 260.42 264.29 258 338.43 258" style="fill:#407BFF"></polygon><polygon points="338.43 258 338.13 260.42 263.99 260.42 264.29 258 338.43 258" style="opacity:0.5"></polygon><polygon points="349.18 214.22 275.04 214.22 264.3 258 338.43 258 349.18 214.22" style="fill:#407BFF"></polygon><polygon points="349.18 214.22 275.04 214.22 264.3 258 338.43 258 349.18 214.22" style="opacity:0.5"></polygon></g><g id="freepik--Plant--inject-55"><path d="M377.81,249.39S366.9,230.58,382,215.61c0,0,3.95,2.58,3.89,6s-4.23,4.34-3.34,7.22,4.84,5.73,2.25,8.12.42,4.51.24,7.43S377.81,249.39,377.81,249.39Z" style="fill:#407BFF"></path><path d="M378.64,251.11s4.42-21.29-14.66-30.72c0,0-2.94,3.69-1.79,7s5.38,2.78,5.44,5.81-2.78,6.95.43,8.4,1,4.42,2.11,7.14S378.64,251.11,378.64,251.11Z" style="fill:#407BFF"></path><path d="M378.64,251.11s4.42-21.29-14.66-30.72c0,0-2.94,3.69-1.79,7s5.38,2.78,5.44,5.81-2.78,6.95.43,8.4,1,4.42,2.11,7.14S378.64,251.11,378.64,251.11Z" style="opacity:0.5"></path><path d="M361.92,246.39s.37,14,14.28,14,14.27-14,14.27-14Z" style="fill:#407BFF"></path><path d="M361.92,246.39s.37,14,14.28,14,14.27-14,14.27-14Z" style="opacity:0.5"></path></g><g id="freepik--Graphics--inject-55"><polygon points="287.15 154.66 275.27 139.31 263.39 154.66 268.98 154.66 268.98 174.53 281.56 174.53 281.56 154.66 287.15 154.66" style="fill:#407BFF"></polygon><path d="M322,172.71a28,28,0,0,1,28-28V152a20.69,20.69,0,0,0-20.7,20.69Z" style="fill:#407BFF"></path><path d="M322,172.71h7.3a20.7,20.7,0,0,0,20.7,20.7,20.48,20.48,0,0,0,10.34-2.78L364,197a28,28,0,0,1-42-24.25Z" style="fill:#407BFF"></path><path d="M322,172.71h7.3a20.7,20.7,0,0,0,20.7,20.7,20.48,20.48,0,0,0,10.34-2.78L364,197a28,28,0,0,1-42-24.25Z" style="fill:#fff;opacity:0.5"></path><path d="M350,152v-7.31A28,28,0,0,1,364,197l-3.65-6.33A20.69,20.69,0,0,0,350,152Z" style="fill:#407BFF"></path><path d="M350,152v-7.31A28,28,0,0,1,364,197l-3.65-6.33A20.69,20.69,0,0,0,350,152Z" style="opacity:0.7000000000000001"></path><path d="M323.71,104H298.2a3.43,3.43,0,0,0-3.43,3.43V154.6A3.43,3.43,0,0,0,298.2,158h32.65a3.43,3.43,0,0,0,3.42-3.43v-40Z" style="fill:#263238"></path><path d="M322.21,153.31H301a1.5,1.5,0,0,1-1.5-1.5h0a1.5,1.5,0,0,1,1.5-1.49h21.22a1.5,1.5,0,0,1,1.5,1.49h0A1.51,1.51,0,0,1,322.21,153.31Z" style="fill:#407BFF"></path><path d="M312.21,111.73H301a1.5,1.5,0,0,1-1.5-1.49h0a1.5,1.5,0,0,1,1.5-1.5h11.22a1.5,1.5,0,0,1,1.5,1.5h0A1.5,1.5,0,0,1,312.21,111.73Z" style="fill:#407BFF"></path><path d="M319.54,117.67H301a1.5,1.5,0,0,1-1.5-1.49h0a1.5,1.5,0,0,1,1.5-1.5h18.55a1.5,1.5,0,0,1,1.49,1.5h0A1.49,1.49,0,0,1,319.54,117.67Z" style="fill:#407BFF"></path><path d="M328.06,123.61H301a1.5,1.5,0,0,1-1.5-1.49h0a1.5,1.5,0,0,1,1.5-1.5h27.07a1.5,1.5,0,0,1,1.5,1.5h0A1.5,1.5,0,0,1,328.06,123.61Z" style="fill:#407BFF"></path><path d="M328.06,129.55H312.32a1.5,1.5,0,0,1-1.5-1.49h0a1.5,1.5,0,0,1,1.5-1.5h15.74a1.5,1.5,0,0,1,1.5,1.5h0A1.5,1.5,0,0,1,328.06,129.55Z" style="fill:#407BFF"></path><path d="M305.1,129.55H301a1.5,1.5,0,0,1-1.5-1.49h0a1.5,1.5,0,0,1,1.5-1.5h4.11a1.5,1.5,0,0,1,1.5,1.5h0A1.5,1.5,0,0,1,305.1,129.55Z" style="fill:#407BFF"></path><path d="M328.06,135.49H301a1.5,1.5,0,0,1-1.5-1.5h0a1.5,1.5,0,0,1,1.5-1.49h27.07a1.5,1.5,0,0,1,1.5,1.49h0A1.5,1.5,0,0,1,328.06,135.49Z" style="fill:#407BFF"></path><path d="M317.61,141.43H301a1.5,1.5,0,0,1-1.5-1.5h0a1.5,1.5,0,0,1,1.5-1.49h16.62a1.5,1.5,0,0,1,1.5,1.49h0A1.5,1.5,0,0,1,317.61,141.43Z" style="fill:#407BFF"></path><path d="M328.06,141.43h-4.44a1.5,1.5,0,0,1-1.49-1.5h0a1.49,1.49,0,0,1,1.49-1.49h4.44a1.5,1.5,0,0,1,1.5,1.49h0A1.5,1.5,0,0,1,328.06,141.43Z" style="fill:#407BFF"></path><path d="M328.06,147.37H301a1.5,1.5,0,0,1-1.5-1.5h0a1.5,1.5,0,0,1,1.5-1.49h27.07a1.5,1.5,0,0,1,1.5,1.49h0A1.5,1.5,0,0,1,328.06,147.37Z" style="fill:#407BFF"></path><g style="opacity:0.5"><path d="M322.21,153.31H301a1.5,1.5,0,0,1-1.5-1.5h0a1.5,1.5,0,0,1,1.5-1.49h21.22a1.5,1.5,0,0,1,1.5,1.49h0A1.51,1.51,0,0,1,322.21,153.31Z" style="fill:#fff"></path></g><g style="opacity:0.5"><path d="M312.21,111.73H301a1.5,1.5,0,0,1-1.5-1.49h0a1.5,1.5,0,0,1,1.5-1.5h11.22a1.5,1.5,0,0,1,1.5,1.5h0A1.5,1.5,0,0,1,312.21,111.73Z" style="fill:#fff"></path></g><g style="opacity:0.5"><path d="M319.54,117.67H301a1.5,1.5,0,0,1-1.5-1.49h0a1.5,1.5,0,0,1,1.5-1.5h18.55a1.5,1.5,0,0,1,1.49,1.5h0A1.49,1.49,0,0,1,319.54,117.67Z" style="fill:#fff"></path></g><g style="opacity:0.5"><path d="M328.06,123.61H301a1.5,1.5,0,0,1-1.5-1.49h0a1.5,1.5,0,0,1,1.5-1.5h27.07a1.5,1.5,0,0,1,1.5,1.5h0A1.5,1.5,0,0,1,328.06,123.61Z" style="fill:#fff"></path></g><g style="opacity:0.5"><path d="M328.06,129.55H312.32a1.5,1.5,0,0,1-1.5-1.49h0a1.5,1.5,0,0,1,1.5-1.5h15.74a1.5,1.5,0,0,1,1.5,1.5h0A1.5,1.5,0,0,1,328.06,129.55Z" style="fill:#fff"></path></g><g style="opacity:0.5"><path d="M305.1,129.55H301a1.5,1.5,0,0,1-1.5-1.49h0a1.5,1.5,0,0,1,1.5-1.5h4.11a1.5,1.5,0,0,1,1.5,1.5h0A1.5,1.5,0,0,1,305.1,129.55Z" style="fill:#fff"></path></g><g style="opacity:0.5"><path d="M328.06,135.49H301a1.5,1.5,0,0,1-1.5-1.5h0a1.5,1.5,0,0,1,1.5-1.49h27.07a1.5,1.5,0,0,1,1.5,1.49h0A1.5,1.5,0,0,1,328.06,135.49Z" style="fill:#fff"></path></g><g style="opacity:0.5"><path d="M317.61,141.43H301a1.5,1.5,0,0,1-1.5-1.5h0a1.5,1.5,0,0,1,1.5-1.49h16.62a1.5,1.5,0,0,1,1.5,1.49h0A1.5,1.5,0,0,1,317.61,141.43Z" style="fill:#fff"></path></g><g style="opacity:0.5"><path d="M328.06,141.43h-4.44a1.5,1.5,0,0,1-1.49-1.5h0a1.49,1.49,0,0,1,1.49-1.49h4.44a1.5,1.5,0,0,1,1.5,1.49h0A1.5,1.5,0,0,1,328.06,141.43Z" style="fill:#fff"></path></g><g style="opacity:0.5"><path d="M328.06,147.37H301a1.5,1.5,0,0,1-1.5-1.5h0a1.5,1.5,0,0,1,1.5-1.49h27.07a1.5,1.5,0,0,1,1.5,1.49h0A1.5,1.5,0,0,1,328.06,147.37Z" style="fill:#fff"></path></g><path d="M323.71,104v7.14a3.42,3.42,0,0,0,3.43,3.43h7.13Z" style="fill:#407BFF"></path><path d="M323.71,104v7.14a3.42,3.42,0,0,0,3.43,3.43h7.13Z" style="fill:#fff;opacity:0.5"></path></g></svg>