<?xml version="1.0" encoding="UTF-8" standalone="no"?>
<!DOCTYPE svg PUBLIC "-//W3C//DTD SVG 1.1//EN" "http://www.w3.org/Graphics/SVG/1.1/DTD/svg11.dtd">
<svg width="100%" height="100%" viewBox="0 0 1000 1000" version="1.1" xmlns="http://www.w3.org/2000/svg" xmlns:xlink="http://www.w3.org/1999/xlink" xml:space="preserve" xmlns:serif="http://www.serif.com/" style="fill-rule:evenodd;clip-rule:evenodd;stroke-linejoin:round;stroke-miterlimit:2;">
    <g>
        <g>
            <g transform="matrix(0.9945,0.1045,-0.1045,0.9945,8.9377,-56.778)">
                <rect x="542.77" y="37.4" width="7" height="39" style="fill:white;"/>
            </g>
            <g transform="matrix(0.9782,0.2079,-0.2079,0.9782,26.2826,-121.769)">
                <rect x="589.03" y="44.67" width="7" height="39" style="fill:white;"/>
            </g>
            <g transform="matrix(0.9511,0.309,-0.309,0.9511,54.7579,-193.318)">
                <rect x="634.28" y="56.74" width="7" height="39" style="fill:white;"/>
            </g>
            <g transform="matrix(0.9136,0.4067,-0.4067,0.9136,96.7054,-269.115)">
                <rect x="678.02" y="73.47" width="7" height="39" style="fill:white;"/>
            </g>
            <g transform="matrix(0.8091,0.5877,-0.5877,0.8091,227.649,-421.501)">
                <rect x="759.08" y="120.14" width="7" height="39" style="fill:white;"/>
            </g>
            <g transform="matrix(0.7432,0.669,-0.669,0.7432,318.263,-491.152)">
                <rect x="795.52" y="149.57" width="7" height="39" style="fill:white;"/>
            </g>
            <g transform="matrix(0.6693,0.743,-0.743,0.6693,425.434,-551.477)">
                <rect x="828.67" y="182.64" width="7" height="39" style="fill:white;"/>
            </g>
            <g transform="matrix(0.5879,0.8089,-0.8089,0.5879,547.993,-598.755)">
                <rect x="858.19" y="218.99" width="7" height="39" style="fill:white;"/>
            </g>
            <g transform="matrix(0.4069,0.9135,-0.9135,0.4069,830.621,-640.49)">
                <rect x="905.07" y="299.94" width="7" height="39" style="fill:white;"/>
            </g>
            <g transform="matrix(0.3093,0.951,-0.951,0.3093,984.558,-629.211)">
                <rect x="921.91" y="343.63" width="7" height="39" style="fill:white;"/>
            </g>
            <g transform="matrix(0.2082,0.9781,-0.9781,0.2082,1141.82,-593.706)">
                <rect x="934.09" y="388.85" width="7" height="39" style="fill:white;"/>
            </g>
            <g transform="matrix(0.1048,0.9945,-0.9945,0.1048,1298.03,-532.828)">
                <rect x="941.48" y="435.1" width="7" height="39" style="fill:white;"/>
            </g>
            <g transform="matrix(-0.1042,0.9946,-0.9946,-0.1042,1588.75,-334.723)">
                <rect x="941.62" y="528.63" width="7" height="39" style="fill:white;"/>
            </g>
            <g transform="matrix(-0.2076,0.9782,-0.9782,-0.2076,1713.98,-199.654)">
                <rect x="934.36" y="574.9" width="7" height="39" style="fill:white;"/>
            </g>
            <g transform="matrix(-0.3087,0.9512,-0.9512,-0.3087,1819.98,-43.508)">
                <rect x="922.3" y="620.15" width="7" height="39" style="fill:white;"/>
            </g>
            <g transform="matrix(-0.4064,0.9137,-0.9137,-0.4064,1902.94,130.48)">
                <rect x="905.59" y="663.9" width="7" height="39" style="fill:white;"/>
            </g>
            <g transform="matrix(-0.5874,0.8093,-0.8093,-0.5874,1987.74,515.601)">
                <rect x="858.94" y="744.97" width="7" height="39" style="fill:white;"/>
            </g>
            <g transform="matrix(-0.6688,0.7434,-0.7434,-0.6688,1985.59,717.247)">
                <rect x="829.53" y="781.41" width="7" height="39" style="fill:white;"/>
            </g>
            <g transform="matrix(-0.7428,0.6695,-0.6695,-0.7428,1952.6,918.096)">
                <rect x="796.46" y="814.58" width="7" height="39" style="fill:white;"/>
            </g>
            <g transform="matrix(-0.8087,0.5882,-0.5882,-0.8087,1889.14,1112.89)">
                <rect x="760.12" y="844.11" width="7" height="39" style="fill:white;"/>
            </g>
            <g transform="matrix(-0.9133,0.4072,-0.4072,-0.9133,1676.99,1464.1)">
                <rect x="679.19" y="891.01" width="7" height="39" style="fill:white;"/>
            </g>
            <g transform="matrix(-0.9509,0.3095,-0.3095,-0.9509,1533.67,1611.38)">
                <rect x="635.5" y="907.87" width="7" height="39" style="fill:white;"/>
            </g>
            <g transform="matrix(-0.978,0.2085,-0.2085,-0.978,1370.39,1734.69)">
                <rect x="590.28" y="920.06" width="7" height="39" style="fill:white;"/>
            </g>
            <g transform="matrix(-0.9945,0.1051,-0.1051,-0.9945,1191.59,1831.13)">
                <rect x="544.04" y="927.47" width="7" height="39" style="fill:white;"/>
            </g>
            <g transform="matrix(-0.9946,-0.1039,0.1039,-0.9946,807.153,1936.3)">
                <rect x="450.51" y="927.63" width="7" height="39" style="fill:white;"/>
            </g>
            <g transform="matrix(-0.9783,-0.2073,0.2073,-0.9783,611.813,1943.87)">
                <rect x="404.24" y="920.39" width="7" height="39" style="fill:white;"/>
            </g>
            <g transform="matrix(-0.9513,-0.3084,0.3084,-0.9513,421.175,1922.25)">
                <rect x="358.98" y="908.35" width="7" height="39" style="fill:white;"/>
            </g>
            <g transform="matrix(-0.9138,-0.4061,0.4061,-0.9138,239.981,1873.21)">
                <rect x="315.23" y="891.64" width="7" height="39" style="fill:white;"/>
            </g>
            <g transform="matrix(-0.8095,-0.5872,0.5872,-0.8095,-77.6382,1703.85)">
                <rect x="234.14" y="845.02" width="7" height="39" style="fill:white;"/>
            </g>
            <g transform="matrix(-0.7437,-0.6686,0.6686,-0.7437,-207.526,1590.67)">
                <rect x="197.69" y="815.62" width="7" height="39" style="fill:white;"/>
            </g>
            <g transform="matrix(-0.6697,-0.7426,0.7426,-0.6697,-315.1,1463.99)">
                <rect x="164.51" y="782.57" width="7" height="39" style="fill:white;"/>
            </g>
            <g transform="matrix(-0.5884,-0.8085,0.8085,-0.5884,-399.174,1328.27)">
                <rect x="134.97" y="746.23" width="7" height="39" style="fill:white;"/>
            </g>
            <g transform="matrix(-0.4075,-0.9132,0.9132,-0.4075,-496.524,1047.48)">
                <rect x="88.05" y="665.32" width="7" height="39" style="fill:white;"/>
            </g>
            <g transform="matrix(-0.3098,-0.9508,0.9508,-0.3098,-511.763,910.778)">
                <rect x="71.18" y="621.63" width="7" height="39" style="fill:white;"/>
            </g>
            <g transform="matrix(-0.2088,-0.978,0.978,-0.2088,-507.277,781.421)">
                <rect x="58.97" y="576.42" width="7" height="39" style="fill:white;"/>
            </g>
            <g transform="matrix(-0.1054,-0.9944,0.9944,-0.1054,-485.763,662.369)">
                <rect x="51.55" y="530.18" width="7" height="39" style="fill:white;"/>
            </g>
            <g transform="matrix(0.1036,-0.9946,0.9946,0.1036,-404.515,463.453)">
                <rect x="51.36" y="436.64" width="7" height="39" style="fill:white;"/>
            </g>
            <g transform="matrix(0.207,-0.9783,0.9783,0.207,-351.762,385.785)">
                <rect x="58.59" y="390.37" width="7" height="39" style="fill:white;"/>
            </g>
            <g transform="matrix(0.3081,-0.9514,0.9514,0.3081,-295.598,322.79)">
                <rect x="70.61" y="345.11" width="7" height="39" style="fill:white;"/>
            </g>
            <g transform="matrix(0.4058,-0.914,0.914,0.4058,-239.294,273.637)">
                <rect x="87.3" y="301.36" width="7" height="39" style="fill:white;"/>
            </g>
            <g transform="matrix(0.5869,-0.8096,0.8096,0.5869,-137.358,210.273)">
                <rect x="133.9" y="220.25" width="7" height="39" style="fill:white;"/>
            </g>
            <g transform="matrix(0.6683,-0.7439,0.7439,0.6683,-95.9035,191.492)">
                <rect x="163.29" y="183.79" width="7" height="39" style="fill:white;"/>
            </g>
            <g transform="matrix(0.7424,-0.6699,0.6699,0.7424,-62.4869,177.691)">
                <rect x="196.33" y="150.6" width="7" height="39" style="fill:white;"/>
            </g>
            <g transform="matrix(0.8084,-0.5887,0.5887,0.8084,-37.4839,165.958)">
                <rect x="232.66" y="121.05" width="7" height="39" style="fill:white;"/>
            </g>
            <g transform="matrix(0.9131,-0.4078,0.4078,0.9131,-10.6102,137.429)">
                <rect x="313.56" y="74.1" width="7" height="39" style="fill:white;"/>
            </g>
            <g transform="matrix(0.9507,-0.3101,0.3101,0.9507,-6.0064,115.66)">
                <rect x="357.24" y="57.22" width="7" height="39" style="fill:white;"/>
            </g>
            <g transform="matrix(0.9779,-0.2091,0.2091,0.9779,-4.5126,86.3011)">
                <rect x="402.45" y="44.99" width="7" height="39" style="fill:white;"/>
            </g>
            <g transform="matrix(0.9944,-0.1057,0.1057,0.9944,-3.4986,48.1327)">
                <rect x="448.69" y="37.56" width="7" height="39" style="fill:white;"/>
            </g>
        </g>
        <g>
            <rect x="490" y="35" width="19" height="39" style="fill:white;"/>
            <g transform="matrix(0.5,-0.866,0.866,0.5,262.778,683.513)">
                <rect x="703.8" y="104.69" width="39" height="19" style="fill:white;"/>
            </g>
            <g transform="matrix(0.866,-0.5001,0.5001,0.866,-20.0043,480.927)">
                <rect x="867.78" y="268.29" width="39" height="19" style="fill:white;"/>
            </g>
            <rect x="928" y="491.95" width="39" height="19" style="fill:white;"/>
            <g transform="matrix(0.4999,-0.8661,0.8661,0.4999,-184.11,1131.68)">
                <rect x="878.33" y="705.76" width="19" height="39" style="fill:white;"/>
            </g>
            <g transform="matrix(0.8659,-0.5002,0.5002,0.8659,-347.674,481.479)">
                <rect x="714.76" y="869.75" width="19" height="39" style="fill:white;"/>
            </g>
            <rect x="491.11" y="930" width="19" height="39" style="fill:white;"/>
            <g transform="matrix(0.4998,-0.8662,0.8662,0.4998,-632.301,684.889)">
                <rect x="257.29" y="880.36" width="39" height="19" style="fill:white;"/>
            </g>
            <g transform="matrix(0.8659,-0.5003,0.5003,0.8659,-348.225,153.84)">
                <rect x="93.27" y="716.81" width="39" height="19" style="fill:white;"/>
            </g>
            <rect x="33" y="493.16" width="39" height="19" style="fill:white;"/>
            <g transform="matrix(0.4997,-0.8662,0.8662,0.4997,-185.439,236.631)">
                <rect x="102.62" y="259.34" width="19" height="39" style="fill:white;"/>
            </g>
            <g transform="matrix(0.8658,-0.5004,0.5004,0.8658,-20.454,153.334)">
                <rect x="266.15" y="95.3" width="19" height="39" style="fill:white;"/>
            </g>
        </g>
    </g>
</svg>
