<svg xmlns="http://www.w3.org/2000/svg" viewBox="0 0 500 500"><g id="freepik--background-simple--inject-44"><path d="M350.8,52.11c-12.7-3-26-3.88-38.86-1.58-34.07,6.11-60,32.85-88.94,51.8a212.6,212.6,0,0,1-61.91,27.57c-23,6.1-48,8.69-67.25,22.7-17,12.33-27.22,32.13-32.39,52.46-6.31,24.78-5.66,51.85,5.1,75.05,11.54,24.89,33.57,43.42,57,57.69,39.31,23.92,86.18,38.23,131.59,30.79,26.27-4.29,51.06-15.68,73-30.74,41.43-28.41,72.68-70.11,91.48-116.46,8.22-20.29,18.22-45.79,17.52-68-.64-20.41-10.3-42.64-22.37-58.74C399.14,73.75,376.23,58.13,350.8,52.11Z" style="fill:#035898"></path><path d="M350.8,52.11c-12.7-3-26-3.88-38.86-1.58-34.07,6.11-60,32.85-88.94,51.8a212.6,212.6,0,0,1-61.91,27.57c-23,6.1-48,8.69-67.25,22.7-17,12.33-27.22,32.13-32.39,52.46-6.31,24.78-5.66,51.85,5.1,75.05,11.54,24.89,33.57,43.42,57,57.69,39.31,23.92,86.18,38.23,131.59,30.79,26.27-4.29,51.06-15.68,73-30.74,41.43-28.41,72.68-70.11,91.48-116.46,8.22-20.29,18.22-45.79,17.52-68-.64-20.41-10.3-42.64-22.37-58.74C399.14,73.75,376.23,58.13,350.8,52.11Z" style="fill:#fff;opacity:0.7000000000000001"></path></g><g id="freepik--Shadow--inject-44"><ellipse cx="251.77" cy="430.99" rx="169.7" ry="23.13" style="fill:#035898"></ellipse><ellipse cx="251.77" cy="430.99" rx="169.7" ry="23.13" style="fill:#fff;opacity:0.5"></ellipse></g><g id="freepik--Floor--inject-44"><line x1="238.5" y1="386.1" x2="377.89" y2="386.1" style="fill:#fff;stroke:#263238;stroke-linecap:round;stroke-linejoin:round"></line><line x1="111.18" y1="386.1" x2="220.03" y2="386.1" style="fill:#fff;stroke:#263238;stroke-linecap:round;stroke-linejoin:round"></line><rect x="264.3" y="279.89" width="90.48" height="113.21" style="fill:#263238;stroke:#263238;stroke-linecap:round;stroke-linejoin:round"></rect><rect x="287.6" y="279.89" width="70.7" height="113.21" style="fill:#fff;stroke:#263238;stroke-linecap:round;stroke-linejoin:round"></rect><rect x="295.77" y="287.03" width="55.59" height="35.49" style="fill:#fff;stroke:#263238;stroke-linecap:round;stroke-linejoin:round"></rect><rect x="309.47" y="301.37" width="28.22" height="6.79" style="fill:#263238;stroke:#263238;stroke-linecap:round;stroke-linejoin:round"></rect><rect x="295.77" y="335.73" width="55.59" height="35.49" style="fill:#fff;stroke:#263238;stroke-linecap:round;stroke-linejoin:round"></rect><rect x="309.47" y="350.07" width="28.22" height="6.79" style="fill:#263238;stroke:#263238;stroke-linecap:round;stroke-linejoin:round"></rect><path d="M141.4,397.28c0,2-10.81,3.66-24.14,3.66s-24.14-1.64-24.14-3.66,10.81-3.66,24.14-3.66S141.4,395.26,141.4,397.28Z" style="fill:#263238"></path><polygon points="93.12 397.28 86.21 366.87 148.31 366.87 141.4 397.28 93.12 397.28" style="fill:#263238"></polygon><path d="M148.31,366.87c0,2.6-13.9,4.71-31,4.71s-31.05-2.11-31.05-4.71,13.9-4.71,31.05-4.71S148.31,364.27,148.31,366.87Z" style="fill:#263238"></path><path d="M142.33,366.67c0,.65-2,1.24-5.46,1.71a159.6,159.6,0,0,1-19.61,1,157.42,157.42,0,0,1-19.61-1c-3.41-.46-5.46-1.05-5.46-1.7,0-1.5,11.23-2.72,25.07-2.72S142.33,365.17,142.33,366.67Z" style="fill:#fff"></path><path d="M136.87,368.38a159.6,159.6,0,0,1-19.61,1,157.42,157.42,0,0,1-19.61-1c2-1,10-1.7,19.61-1.7S134.86,367.39,136.87,368.38Z" style="fill:#035898"></path><path d="M138.85,376.79c2.51-.44,5.05-1,7.57-1.61" style="fill:none;stroke:#fff;stroke-linecap:round;stroke-linejoin:round"></path><path d="M98.93,377.44a147.77,147.77,0,0,0,30.24.61" style="fill:none;stroke:#fff;stroke-linecap:round;stroke-linejoin:round"></path><path d="M88.22,375.7s2.84.65,7.61,1.34" style="fill:none;stroke:#fff;stroke-linecap:round;stroke-linejoin:round"></path><path d="M103.28,201.13a125.93,125.93,0,0,0,15.88-13.83c6.66-7.23,3.07-19,3.07-19s-4.61,4.1-11.78,11.26-7.17,12.29-7.17,12.29Z" style="fill:#035898"></path><path d="M113.69,233.07a124.34,124.34,0,0,0,15.88-13.83c6.65-7.17,3.07-18.94,3.07-18.94s-4.61,4.09-11.78,11.26-7.17,12.29-7.17,12.29Z" style="fill:#035898"></path><path d="M104.7,209.72a127.12,127.12,0,0,1-17.25-12.08c-7.38-6.44-5.06-18.53-5.06-18.53s5,3.63,12.91,10,8.43,11.48,8.43,11.48Z" style="fill:#035898"></path><path d="M118.25,247.38a127.16,127.16,0,0,1-18.42-10.19c-8-5.63-7-17.89-7-17.89s5.36,3,13.88,8.55,9.59,10.51,9.59,10.51Z" style="fill:#035898"></path><path d="M113.94,288.82A127.34,127.34,0,0,1,98.06,275C91.4,267.78,95,256,95,256s4.61,4.09,11.78,11.26,7.17,12.31,7.17,12.31Z" style="fill:#035898"></path><path d="M115.36,298.74a125.19,125.19,0,0,0,13.76-16c5.57-8,.35-19.2.35-19.2s-4,4.72-10.06,12.84-5.35,13.18-5.35,13.18Z" style="fill:#035898"></path><path d="M121.13,328.63a127.34,127.34,0,0,1-15.88-13.83c-6.66-7.17-3.07-19-3.07-19s4.61,4.08,11.78,11.26,7.17,12.31,7.17,12.31Z" style="fill:#035898"></path><path d="M114,355.3a126.66,126.66,0,0,1-11.84-17.37c-4.63-8.61,1.82-19.1,1.82-19.1s3.43,5.11,8.55,13.87,3.82,13.72,3.82,13.72Z" style="fill:#035898"></path><path d="M109.36,370.86s9.92-30.7,11.81-42-4.72-20.8-6.9-37.79,6-34,3.12-47.26-9.92-22.67-12.76-37.33a148.66,148.66,0,0,1-2-15.89" style="fill:none;stroke:#263238;stroke-linecap:round;stroke-linejoin:round"></path><line x1="96.07" y1="198.06" x2="103.8" y2="203.98" style="fill:none;stroke:#263238;stroke-linecap:round;stroke-linejoin:round"></line><line x1="106.68" y1="191.4" x2="103.44" y2="197.15" style="fill:none;stroke:#263238;stroke-linecap:round;stroke-linejoin:round"></line><path d="M103.8,233.47c6.65,4.84,13.12,9.69,13.12,9.69" style="fill:none;stroke:#263238;stroke-linecap:round;stroke-linejoin:round"></path><path d="M125.19,215.48c-6.11,7-11.5,17.58-11.5,17.58" style="fill:none;stroke:#263238;stroke-linecap:round;stroke-linejoin:round"></path><path d="M99.85,268.3a79.84,79.84,0,0,1,13.83,18.53" style="fill:none;stroke:#263238;stroke-linecap:round;stroke-linejoin:round"></path><path d="M126.26,274.43s-.54.73-4.32,6.3a92.53,92.53,0,0,0-7,13.29" style="fill:none;stroke:#263238;stroke-linecap:round;stroke-linejoin:round"></path><path d="M107.75,307.15A74.4,74.4,0,0,1,115.3,317a83.85,83.85,0,0,1,5.83,11.79" style="fill:none;stroke:#263238;stroke-linecap:round;stroke-linejoin:round"></path><path d="M105.07,329.22c1.25,2.73,4.3,9.52,7,14.73A21.86,21.86,0,0,1,114,355.3" style="fill:none;stroke:#263238;stroke-linecap:round;stroke-linejoin:round"></path><path d="M149.24,266.08a81.23,81.23,0,0,1-8.46-10.4c-3.4-5.21.13-12.21.13-12.21s2.46,3.08,6.17,8.35,3.16,8.48,3.16,8.48Z" style="fill:#035898"></path><path d="M139.24,285a80.55,80.55,0,0,1-8.46-10.4c-3.4-5.21.13-12.21.13-12.21s2.45,3.08,6.17,8.35,3.16,8.48,3.16,8.48Z" style="fill:#035898"></path><path d="M147.36,271.35a79.75,79.75,0,0,0,12.17-5.69c5.33-3.24,5.18-11.08,5.18-11.08s-3.53,1.72-9.17,4.85-6.53,6.29-6.53,6.29Z" style="fill:#035898"></path><path d="M134.83,293.48a79.69,79.69,0,0,0,12.66-4.4c5.64-2.65,6.32-10.45,6.32-10.45s-3.69,1.3-9.63,3.86S137,288,137,288Z" style="fill:#035898"></path><path d="M133,319.91a80.1,80.1,0,0,0,11.46-7c5-3.77,4-11.54,4-11.54s-3.35,2.07-8.62,5.78-5.83,6.94-5.83,6.94Z" style="fill:#035898"></path><path d="M131.05,326a81.56,81.56,0,0,1-6.89-11.5c-2.62-5.65,1.87-12.08,1.87-12.08s2,3.4,4.91,9.15,1.93,8.85,1.93,8.85Z" style="fill:#035898"></path><path d="M124.54,352.13a80.81,80.81,0,0,1-11.05-7.6c-4.73-4-3.32-11.76-3.32-11.76s3.22,2.26,8.27,6.28,5.43,7.25,5.43,7.25Z" style="fill:#035898"></path><path d="M124.18,344.08a81.9,81.9,0,0,0,11.46-6.95c5-3.78,4-11.55,4-11.55s-3.33,2.08-8.61,5.78-5.83,6.94-5.83,6.94Z" style="fill:#035898"></path><path d="M125.76,361.64a78.6,78.6,0,0,0,9.33-9.63c3.84-4.91.93-12.18.93-12.18s-2.71,2.85-6.87,7.78-3.88,8.19-3.88,8.19Z" style="fill:#035898"></path><path d="M127,371.89s-2.88-20.33-2.84-27.65,5.26-12.5,8.43-22.94,0-22,3.17-30,8.63-13.13,12-22a90.28,90.28,0,0,0,3-9.77" style="fill:none;stroke:#263238;stroke-linecap:round;stroke-linejoin:round"></path><line x1="154.08" y1="264.95" x2="148.59" y2="267.83" style="fill:none;stroke:#263238;stroke-linecap:round;stroke-linejoin:round"></line><line x1="148.16" y1="259.64" x2="149.56" y2="263.59" style="fill:none;stroke:#263238;stroke-linecap:round;stroke-linejoin:round"></line><path d="M145.36,286.3c-4.66,2.35-9.25,4.69-9.25,4.69" style="fill:none;stroke:#263238;stroke-linecap:round;stroke-linejoin:round"></path><path d="M133.93,272.73A64.72,64.72,0,0,1,139.24,285" style="fill:none;stroke:#263238;stroke-linecap:round;stroke-linejoin:round"></path><path d="M144.05,308.61a51.27,51.27,0,0,0-10.69,10.11" style="fill:none;stroke:#263238;stroke-linecap:round;stroke-linejoin:round"></path><path d="M126.83,309.58s.24.5,2,4.42a55.93,55.93,0,0,1,3,9.09" style="fill:none;stroke:#263238;stroke-linecap:round;stroke-linejoin:round"></path><path d="M114.69,340.33a33.73,33.73,0,0,0,3.83,3.33,47.47,47.47,0,0,1,5.91,6.12" style="fill:none;stroke:#263238;stroke-linecap:round;stroke-linejoin:round"></path><path d="M134.92,332.09a49.4,49.4,0,0,0-5.81,5.39,54.61,54.61,0,0,0-4.93,6.76" style="fill:none;stroke:#263238;stroke-linecap:round;stroke-linejoin:round"></path><path d="M134.21,346.25c-1.08,1.56-3.74,5.49-6,8.49a14.12,14.12,0,0,0-2.45,6.9" style="fill:none;stroke:#263238;stroke-linecap:round;stroke-linejoin:round"></path><path d="M103.28,201.13a125.93,125.93,0,0,0,15.88-13.83c6.66-7.23,3.07-19,3.07-19s-4.61,4.1-11.78,11.26-7.17,12.29-7.17,12.29Z" style="opacity:0.2"></path><path d="M113.69,233.07a124.34,124.34,0,0,0,15.88-13.83c6.65-7.17,3.07-18.94,3.07-18.94s-4.61,4.09-11.78,11.26-7.17,12.29-7.17,12.29Z" style="opacity:0.2"></path><path d="M104.7,209.72a127.12,127.12,0,0,1-17.25-12.08c-7.38-6.44-5.06-18.53-5.06-18.53s5,3.63,12.91,10,8.43,11.48,8.43,11.48Z" style="opacity:0.2"></path><path d="M118.25,247.38a127.16,127.16,0,0,1-18.42-10.19c-8-5.63-7-17.89-7-17.89s5.36,3,13.88,8.55,9.59,10.51,9.59,10.51Z" style="opacity:0.2"></path><path d="M113.94,288.82A127.34,127.34,0,0,1,98.06,275C91.4,267.78,95,256,95,256s4.61,4.09,11.78,11.26,7.17,12.31,7.17,12.31Z" style="opacity:0.2"></path><path d="M121.13,328.63a127.34,127.34,0,0,1-15.88-13.83c-6.66-7.17-3.07-19-3.07-19s4.61,4.08,11.78,11.26,7.17,12.31,7.17,12.31Z" style="opacity:0.2"></path><path d="M149.24,266.08a81.23,81.23,0,0,1-8.46-10.4c-3.4-5.21.13-12.21.13-12.21s2.46,3.08,6.17,8.35,3.16,8.48,3.16,8.48Z" style="opacity:0.2"></path><path d="M137.08,270.74c-3.72-5.27-6.17-8.35-6.17-8.35a15.57,15.57,0,0,0-.92,2.46c-.3-.8-.52-1.27-.52-1.27s-4,4.72-10.06,12.84-5.35,13.18-5.35,13.18l1.3,9.14a125.19,125.19,0,0,0,13.76-16,14.64,14.64,0,0,0,2.48-7,79.67,79.67,0,0,0,7.64,9.25l1-5.78S140.8,276,137.08,270.74Z" style="opacity:0.2"></path><path d="M147.36,271.35a79.75,79.75,0,0,0,12.17-5.69c5.33-3.24,5.18-11.08,5.18-11.08s-3.53,1.72-9.17,4.85-6.53,6.29-6.53,6.29Z" style="opacity:0.2"></path><path d="M134.83,293.48a79.69,79.69,0,0,0,12.66-4.4c5.64-2.65,6.32-10.45,6.32-10.45s-3.69,1.3-9.63,3.86S137,288,137,288Z" style="opacity:0.2"></path><path d="M133,319.91a80.1,80.1,0,0,0,11.46-7c5-3.77,4-11.54,4-11.54s-3.35,2.07-8.62,5.78-5.83,6.94-5.83,6.94Z" style="opacity:0.2"></path><path d="M131.05,326a81.56,81.56,0,0,1-6.89-11.5c-2.62-5.65,1.87-12.08,1.87-12.08s2,3.4,4.91,9.15,1.93,8.85,1.93,8.85Z" style="opacity:0.2"></path><path d="M124.54,352.13l-.67-5.83s-.38-3.24-5.43-7.25c-1.65-1.32-3.11-2.45-4.32-3.37-.45-.93-1-1.93-1.58-3C107.42,324,104,318.83,104,318.83s-6.45,10.49-1.82,19.1A126.66,126.66,0,0,0,114,355.3l2.28-8.59A80.85,80.85,0,0,0,124.54,352.13Z" style="opacity:0.2"></path><path d="M124.18,344.08a81.9,81.9,0,0,0,11.46-6.95c5-3.78,4-11.55,4-11.55s-3.33,2.08-8.61,5.78-5.83,6.94-5.83,6.94Z" style="opacity:0.2"></path><path d="M125.76,361.64a78.6,78.6,0,0,0,9.33-9.63c3.84-4.91.93-12.18.93-12.18s-2.71,2.85-6.87,7.78-3.88,8.19-3.88,8.19Z" style="opacity:0.2"></path></g><g id="freepik--Board--inject-44"><rect x="100.4" y="66.38" width="302.73" height="162.1" style="fill:#263238"></rect><rect x="108.62" y="75.03" width="286.55" height="145.53" style="fill:#fff"></rect><line x1="195.06" y1="85" x2="195.06" y2="200.42" style="fill:none;stroke:#263238;stroke-linecap:round;stroke-linejoin:round"></line><line x1="292.6" y1="85" x2="292.6" y2="204.37" style="fill:none;stroke:#263238;stroke-linecap:round;stroke-linejoin:round"></line><line x1="133.64" y1="108.45" x2="361.06" y2="108.45" style="fill:none;stroke:#263238;stroke-linecap:round;stroke-linejoin:round"></line><path d="M148.1,90.89h-3.22V89.37h8.23v1.52H149.9v8.17h-1.8Z" style="fill:#263238"></path><path d="M152.94,95.37a3.94,3.94,0,1,1,3.93,3.79A3.73,3.73,0,0,1,152.94,95.37Zm6.14,0a2.2,2.2,0,1,0-2.21,2.31A2.16,2.16,0,0,0,159.08,95.37Z" style="fill:#263238"></path><path d="M173.56,88.78V99.06H171.9v-1a3,3,0,0,1-2.45,1,3.79,3.79,0,0,1,0-7.58,3,3,0,0,1,2.38,1v-3.8Zm-1.7,6.59a2.21,2.21,0,1,0-2.21,2.31A2.17,2.17,0,0,0,171.86,95.37Z" style="fill:#263238"></path><path d="M175.23,95.37a3.94,3.94,0,1,1,3.93,3.79A3.73,3.73,0,0,1,175.23,95.37Zm6.14,0a2.2,2.2,0,1,0-2.21,2.31A2.16,2.16,0,0,0,181.37,95.37Z" style="fill:#263238"></path><path d="M223.8,89.37H228c3.15,0,5.3,1.94,5.3,4.85s-2.15,4.84-5.3,4.84H223.8ZM228,97.54a3.33,3.33,0,1,0,0-6.65h-2.35v6.65Z" style="fill:#263238"></path><path d="M234.48,95.37a3.94,3.94,0,1,1,3.94,3.79A3.73,3.73,0,0,1,234.48,95.37Zm6.14,0a2.2,2.2,0,1,0-2.2,2.31A2.15,2.15,0,0,0,240.62,95.37Z" style="fill:#263238"></path><path d="M243.8,89.41a1,1,0,0,1,1.1-1,1,1,0,0,1,1.11,1,1.11,1.11,0,0,1-2.21,0Zm.23,2.26h1.73v7.39H244Z" style="fill:#263238"></path><path d="M255.33,94.82v4.24h-1.74v-4c0-1.32-.65-2-1.76-2a2,2,0,0,0-2.06,2.23v3.74H248V91.67h1.65v1a3.21,3.21,0,0,1,2.55-1A2.89,2.89,0,0,1,255.33,94.82Z" style="fill:#263238"></path><path d="M265,91.67v6.27c0,2.69-1.4,3.91-4,3.91a5.92,5.92,0,0,1-3.61-1l.78-1.31a4.46,4.46,0,0,0,2.73.89c1.63,0,2.35-.75,2.35-2.24v-.39a3.25,3.25,0,0,1-2.48,1,3.58,3.58,0,1,1,0-7.15,3.23,3.23,0,0,1,2.57,1.07v-1Zm-1.71,3.47A2.25,2.25,0,1,0,261,97.26,2.08,2.08,0,0,0,263.24,95.14Z" style="fill:#263238"></path><path d="M315.86,89.37h4.24c3.14,0,5.29,1.94,5.29,4.85s-2.15,4.84-5.29,4.84h-4.24ZM320,97.54a3.33,3.33,0,1,0,0-6.65h-2.35v6.65Z" style="fill:#263238"></path><path d="M326.53,95.37a3.95,3.95,0,1,1,3.94,3.79A3.73,3.73,0,0,1,326.53,95.37Zm6.14,0a2.2,2.2,0,1,0-2.2,2.31A2.15,2.15,0,0,0,332.67,95.37Z" style="fill:#263238"></path><path d="M343.37,94.82v4.24h-1.73v-4c0-1.32-.65-2-1.76-2a2,2,0,0,0-2.07,2.23v3.74h-1.73V91.67h1.65v1a3.22,3.22,0,0,1,2.55-1A2.89,2.89,0,0,1,343.37,94.82Z" style="fill:#263238"></path><path d="M352.58,95.92h-5.81a2.24,2.24,0,0,0,2.4,1.77,2.66,2.66,0,0,0,2-.8l.93,1.07A4.16,4.16,0,0,1,345,95.37a3.68,3.68,0,0,1,3.82-3.79,3.61,3.61,0,0,1,3.74,3.83C352.6,95.55,352.59,95.75,352.58,95.92Zm-5.82-1.15H351a2.12,2.12,0,0,0-4.2,0Z" style="fill:#263238"></path><path d="M136.79,123.51s-2.78,5.94,1.27,13.21l10.61-1.22s-1.73-9.77-1.64-13.43Z" style="fill:#035898;stroke:#263238;stroke-miterlimit:10"></path><path d="M136.79,122.89l10.24-.82a46.29,46.29,0,0,0,2.57,10.41l-10.37,1.3A44.52,44.52,0,0,1,136.79,122.89Z" style="fill:#fff;stroke:#263238;stroke-miterlimit:10"></path><path d="M151.79,142.14l10.24-.81a46.27,46.27,0,0,0,2.57,10.4L154.23,153A45,45,0,0,1,151.79,142.14Z" style="fill:#035898;stroke:#263238;stroke-miterlimit:10"></path><path d="M154.64,162.27l10.25-.81a46,46,0,0,0,2.56,10.4l-10.37,1.3A45,45,0,0,1,154.64,162.27Z" style="fill:#fff;stroke:#263238;stroke-miterlimit:10"></path><path d="M165.75,122.81l11.47-.74a35.34,35.34,0,0,0,1.95,12.23l-11.36,1.32S165.75,132.51,165.75,122.81Z" style="fill:#fff;stroke:#263238;stroke-miterlimit:10"></path><path d="M167.45,121l11.47-.73a35.34,35.34,0,0,0,2,12.23l-11.36,1.32S167.45,130.67,167.45,121Z" style="fill:#035898;stroke:#263238;stroke-miterlimit:10"></path><path d="M176.49,123.59a.65.65,0,0,1-.66.66.66.66,0,0,1-.67-.66.67.67,0,0,1,.67-.67A.66.66,0,0,1,176.49,123.59Z" style="fill:#263238"></path><path d="M145,124.92a.65.65,0,0,1-.66.66.66.66,0,0,1-.67-.66.67.67,0,0,1,.67-.67A.66.66,0,0,1,145,124.92Z" style="fill:#263238"></path><path d="M157.48,143.91a.67.67,0,1,1-.67-.67A.67.67,0,0,1,157.48,143.91Z" style="fill:#263238"></path><path d="M172.46,145.61l9.82-1a52.71,52.71,0,0,0,1.93,13.12l-10.05.89S172.33,154,172.46,145.61Z" style="fill:#fff;stroke:#263238;stroke-miterlimit:10"></path><path d="M130.08,148.32s-4.58,8.06.61,16.27l10.43-1.22s-2.69-9.48-1.15-15.57Z" style="fill:#fff;stroke:#263238;stroke-miterlimit:10"></path><path d="M130.08,148.32l9.89-.52a49.62,49.62,0,0,0,1.59,12.31l-9.95,1.35S129.05,158.34,130.08,148.32Z" style="fill:#035898;stroke:#263238;stroke-miterlimit:10"></path><path d="M136.52,150.1a.67.67,0,1,1-.66-.66A.66.66,0,0,1,136.52,150.1Z" style="fill:#263238"></path><path d="M180.5,147.18a.67.67,0,0,1-.67.67.66.66,0,0,1-.66-.67.65.65,0,0,1,.66-.66A.66.66,0,0,1,180.5,147.18Z" style="fill:#263238"></path><path d="M163.59,163.92a.67.67,0,1,1-1.33,0,.67.67,0,0,1,1.33,0Z" style="fill:#263238"></path><path d="M213.65,152.39l10.25-.81a45.66,45.66,0,0,0,2.57,10.4l-10.38,1.31A45.19,45.19,0,0,1,213.65,152.39Z" style="fill:#035898;stroke:#263238;stroke-miterlimit:10"></path><path d="M216.27,176.48l10.24-.81a46.27,46.27,0,0,0,2.57,10.4l-10.37,1.3A44.52,44.52,0,0,1,216.27,176.48Z" style="fill:#fff;stroke:#263238;stroke-miterlimit:10"></path><path d="M251.9,122.81l11.47-.74a35.34,35.34,0,0,0,1.95,12.23L254,135.62S251.9,132.51,251.9,122.81Z" style="fill:#fff;stroke:#263238;stroke-miterlimit:10"></path><path d="M253.6,121l11.47-.73A35.34,35.34,0,0,0,267,132.46l-11.36,1.32S253.6,130.67,253.6,121Z" style="fill:#035898;stroke:#263238;stroke-miterlimit:10"></path><path d="M262.65,123.59a.67.67,0,0,1-1.34,0,.67.67,0,0,1,1.34,0Z" style="fill:#263238"></path><path d="M219.34,154.16a.65.65,0,0,1-.66.66.66.66,0,0,1-.67-.66.67.67,0,0,1,.67-.67A.66.66,0,0,1,219.34,154.16Z" style="fill:#263238"></path><path d="M236.49,150.23l9.82-1a52.45,52.45,0,0,0,1.94,13.11l-10.06.9S236.36,158.58,236.49,150.23Z" style="fill:#fff;stroke:#263238;stroke-miterlimit:10"></path><path d="M244.53,151.79a.67.67,0,0,1-.67.67.67.67,0,1,1,.67-.67Z" style="fill:#263238"></path><path d="M223.34,178.25a.67.67,0,1,1-1.33,0,.67.67,0,0,1,1.33,0Z" style="fill:#263238"></path><path d="M315,122.89l10.24-.82a46.29,46.29,0,0,0,2.57,10.41l-10.37,1.3A44.52,44.52,0,0,1,315,122.89Z" style="fill:#035898;stroke:#263238;stroke-miterlimit:10"></path><path d="M332.84,162.27l10.25-.81a45.66,45.66,0,0,0,2.57,10.4l-10.38,1.3A45,45,0,0,1,332.84,162.27Z" style="fill:#035898;stroke:#263238;stroke-miterlimit:10"></path><path d="M345.66,121l11.47-.73a35.48,35.48,0,0,0,1.94,12.23l-11.36,1.32S345.66,130.67,345.66,121Z" style="fill:#035898;stroke:#263238;stroke-miterlimit:10"></path><path d="M354.7,123.59a.66.66,0,0,1-.67.66.65.65,0,0,1-.66-.66.66.66,0,0,1,.66-.67A.67.67,0,0,1,354.7,123.59Z" style="fill:#263238"></path><path d="M323.2,124.92a.67.67,0,0,1-1.34,0,.67.67,0,0,1,1.34,0Z" style="fill:#263238"></path><path d="M308.28,148.32l9.89-.52a49.62,49.62,0,0,0,1.59,12.31l-9.95,1.35S307.25,158.34,308.28,148.32Z" style="fill:#035898;stroke:#263238;stroke-miterlimit:10"></path><path d="M314.72,150.1a.66.66,0,0,1-.66.67.67.67,0,0,1-.67-.67.66.66,0,0,1,.67-.66A.65.65,0,0,1,314.72,150.1Z" style="fill:#263238"></path><path d="M341.79,163.92a.67.67,0,1,1-.66-.66A.66.66,0,0,1,341.79,163.92Z" style="fill:#263238"></path><polygon points="100.4 67.23 108.63 75.03 108.63 220.56 100.4 228.48 100.4 67.23" style="opacity:0.2"></polygon><polygon points="403.14 66.38 403.14 227.74 395.18 220.56 395.18 75.03 403.14 66.38" style="opacity:0.2"></polygon><line x1="207.01" y1="121.76" x2="228.56" y2="120.23" style="fill:none;stroke:#263238;stroke-linecap:round;stroke-linejoin:round"></line><line x1="207.01" y1="125.68" x2="228.56" y2="124.15" style="fill:none;stroke:#263238;stroke-linecap:round;stroke-linejoin:round"></line><line x1="207.01" y1="129.61" x2="228.56" y2="128.08" style="fill:none;stroke:#263238;stroke-linecap:round;stroke-linejoin:round"></line><path d="M260,160.89c1-3.6,4.28-6.19,7.77-7.53,7.18-2.76,14.42.14,17,7.55,1.88,5.4,1.45,12.46-3.54,16a17.4,17.4,0,0,1-14.73,2.16c-3.7-1.22-6.83-4.83-6.43-8.71" style="fill:none;stroke:#263238;stroke-linecap:round;stroke-linejoin:round"></path><path d="M281.39,135.58q-2,7.77-3.8,15.56" style="fill:none;stroke:#263238;stroke-linecap:round;stroke-linejoin:round"></path><path d="M274.1,145.48a25.17,25.17,0,0,0,2.92,6.1,10.54,10.54,0,0,0,5.07-4.1" style="fill:none;stroke:#263238;stroke-linecap:round;stroke-linejoin:round"></path><path d="M266.48,161.89l10.24-.81a46.27,46.27,0,0,0,2.57,10.4l-10.37,1.31A44.66,44.66,0,0,1,266.48,161.89Z" style="fill:#035898;stroke:#263238;stroke-miterlimit:10"></path><path d="M272.17,163.66a.66.66,0,0,1-.67.66.65.65,0,0,1-.66-.66.66.66,0,0,1,.66-.67A.67.67,0,0,1,272.17,163.66Z" style="fill:#263238"></path></g><g id="freepik--character-1--inject-44"><path d="M188.68,439.5a4.48,4.48,0,0,0,2.22,2.95c4,1.71,11.2-1,16.31-2.27s16.16-5.1,17.16-9.36a3.08,3.08,0,0,0-.08-1.91c-.94-2.24-5.2-2.05-7.86-2.05-3.27,0-11.21-.86-13.48-1.85s-14.88,5.11-14.88,5.11S187.46,435.78,188.68,439.5Z" style="fill:#035898"></path><path d="M160.19,427.9h0a4,4,0,0,0,2.64,2.63c3.68,1.14,5.67-1.13,7.65-3.54s4.11-3,7.24-5.25,3.37-6.63,1.87-7.69a.87.87,0,0,0-.18-.11c-1.69-.85-8.08,1.42-8.08,1.42l-9.78-1.61s-.71,3.6-1.42,7C159.68,422.91,159.41,425.78,160.19,427.9Z" style="fill:#035898"></path><path d="M160.19,427.91a4,4,0,0,0,2.64,2.63c3.68,1.14,5.67-1.13,7.65-3.54s4.11-3,7.24-5.25,3.37-6.63,1.87-7.69a6.8,6.8,0,0,1-1.18,5,16.61,16.61,0,0,1-4.29,4,28.26,28.26,0,0,0-4.58,3.71c-.63.71-1.69.92-2.47,1.46-1.16.8-2.19,1.55-3.56,1.24A9.07,9.07,0,0,1,160.19,427.91Z" style="fill:#fdfeff"></path><path d="M188.68,439.5a4.48,4.48,0,0,0,2.22,2.95c4,1.71,10.91.55,16.31-2.27,5.1-1.27,16.16-5.1,17.16-9.36a3.08,3.08,0,0,0-.08-1.91c-.56,1.22-2.09,3-5.94,5-7.63,4.11-18.1,6.6-21.79,7.2C194.1,441.55,190.68,440.35,188.68,439.5Z" style="fill:#fdfeff"></path><path d="M163.11,263.12c-.47-.27-10.92,27.12-11.19,28.27a43.72,43.72,0,0,0-1,13.63,44.18,44.18,0,0,0,9.36,23.16c5,6.38,15.53,16,12,25.14-2.15,5.6-16.79,31-12.91,61.54,0,0,4.61,7.75,13.28,0l8.23-16.78,6.46,31s8.61,9.47,15.92,0A185,185,0,0,1,208,380.17q6-24.94,9.69-50.35c1.13-7.74,3-15.92,2-23.71-1-8.2-10-31.61-13-39.31C206.77,266.8,197.11,282.49,163.11,263.12Z" style="fill:#263238"></path><path d="M178.21,372.42c-.64,4.94.28,10.31,1.12,15.18" style="fill:none;stroke:#fdfeff;stroke-linecap:round;stroke-linejoin:round"></path><path d="M172.48,309.81l9.38,3.65s3.48,26.12,3.48,31.09c0,3.37-3.56,12.71-5.72,21" style="fill:none;stroke:#fdfeff;stroke-linecap:round;stroke-linejoin:round"></path><path d="M188.68,428.28s-1.51,6.87,0,11.22,4.83,4,8.68,4,18.7-6.16,22.67-7.86,5.57-5.47,4.26-6.76-2.08-1.66-7.86-2.05S204.68,426.43,203,425" style="fill:none;stroke:#263238;stroke-miterlimit:10"></path><path d="M188.68,439.5a14.87,14.87,0,0,0,9.89,1.27c5.3-1.29,23.74-6.85,25.72-11.86" style="fill:none;stroke:#263238;stroke-miterlimit:10"></path><path d="M161.24,416.16s-1.9,6.36-1.54,8.85-.1,5.25,4.19,5.77,6.55-4,7.54-4.79,6.77-3.53,8.31-6.68a5.45,5.45,0,0,0,.46-4c-.55-1.65-1.75-1.58-3.25-1.33a43.62,43.62,0,0,0-5.62,1.42" style="fill:none;stroke:#263238;stroke-miterlimit:10"></path><path d="M159.94,428.19c1.87.67,3.92,1.35,5.81.74,2.21-.71,3.51-2.94,5.34-4.36.67-.51,1.41-.92,2.13-1.37a15.85,15.85,0,0,0,4.46-3.89c1.18-1.6,1.95-2.92,1.86-4.9" style="fill:none;stroke:#263238;stroke-miterlimit:10"></path><path d="M257.05,204.5s.94-4.13,4-5,4.17,1.14,5.61.11,2.83-5,4-5.92,2.92-2.59,4-2.48-1.23,3.07-1.23,3.07,2.31-.13,2.08.8a9.2,9.2,0,0,1-.87,2,9.77,9.77,0,0,0,3.11-2.21c1.36-1.5,3.16-3.45,5.43-2.11,0,0,1.36.67.72,1.55s-2.55,6.86-5,8.32-6.09,1.57-8.18,1.84-10.19,5.79-10.19,5.79l-3.42-4Z" style="fill:#fff"></path><path d="M260.66,210.29c2.46-2.51,5-3.61,8-5.1,2-1,4.45-.59,6.67-.86,2.88-.34,4.23-2.18,5.58-4.6,1.06-1.93,1.91-4.54,3.45-5.91a4.89,4.89,0,0,0-2.49.07c-1.51.52-2.64,2.16-3.73,3.55a7.71,7.71,0,0,1-4.19,2.8.6.6,0,0,1-.44,0c-.39-.22-.19-.93.06-1.36l1.68-2.84a1.16,1.16,0,0,0,.23-.94c-.13-.4-.59-.42-1-.34a9.71,9.71,0,0,0-4.59,2.44c-1.14,1-2.24,2.45-3.67,2.48a7.74,7.74,0,0,1-2-.47,5.22,5.22,0,0,0-5,1.56c-1.36,1.41-2.37,2.79-2.29,5" style="fill:none;stroke:#263238;stroke-linecap:round;stroke-linejoin:round"></path><path d="M283.48,193.52c0-.55-.46-.89-.89-1a3.4,3.4,0,0,0-2.75.27,7.7,7.7,0,0,0-1.59,1.54,26.52,26.52,0,0,1-4.07,3.74" style="fill:none;stroke:#263238;stroke-linecap:round;stroke-linejoin:round"></path><path d="M268.08,198.59c1.6-2.19,2.5-5,4.66-6.59a3.58,3.58,0,0,1,1.88-.79.28.28,0,0,1,.22,0c.07.08,0,.21,0,.31-.63,1.23-1.27,2.44-1.93,3.66L273,195" style="fill:none;stroke:#263238;stroke-linecap:round;stroke-linejoin:round"></path><path d="M261,211.42l0,0c-.66,1.17-21.73,38.73-25.37,40.89s-3.89,1.33-6.41.08-19.57-19.13-19.57-19.13L208,240.83l-3.87,17.45,11.33,29.19c-11.16,7.91-30.07,9.37-30.07,9.37l-4.21-16.61-7.78,15.09a47.24,47.24,0,0,1-13.81-4.73,78.22,78.22,0,0,1-9.65-5.73l10.86-26A19.38,19.38,0,0,1,150,262,20.78,20.78,0,0,1,138.26,258a149.46,149.46,0,0,1,2.37-24c2-11.69,4.62-21.76,5.45-23.6,1.39-3.08,9.55-12.32,9.55-12.32,3.89-2.32,12.34-3.63,12.34-3.63l-1.47-8a20.75,20.75,0,0,1,5.86-1.62,22.64,22.64,0,0,1,5.64,0c.33,0,.66.08,1,.14a33.08,33.08,0,0,1,12.92,5.19l0,5.77c7.51,1.38,19.05,8.19,21.82,10.45S230.6,230,230.6,230l25.11-25.47Z" style="fill:#035898"></path><path d="M261.62,212.11c-.66,1.17-21.73,38.72-25.36,40.88s-3.9,1.33-6.41.08S210.28,234,210.28,234l5.31-23s14.27,21.91,17.34,30.48Z" style="opacity:0.2"></path><path d="M179,184.86v9.85s-12.9,7.67-15.07,12.15.47,38.18,12.14,50.4l-5-.47-11.52,33.8a78.22,78.22,0,0,1-9.65-5.73l10.86-26A19.38,19.38,0,0,1,150,262c.62-2.39,5.91-24.35-9.36-28,2-11.69,4.62-21.76,5.45-23.6,1.39-3.08,9.55-12.32,9.55-12.32,3.89-2.32,12.34-3.63,12.34-3.63l-1.47-8a20.75,20.75,0,0,1,5.86-1.62Z" style="opacity:0.2"></path><path d="M191.76,147.31s4.68,2,5.43,5.78,1.32,7.75,3.42,9.32,3.18,2.15,2.43,3.47a11.39,11.39,0,0,1-1.1,1.71s1.93,13-.32,14.59-8.24-1.79-8.24-1.79a6.77,6.77,0,0,0-3.88,5.33c-.51,4-.07,2.73-.07,2.73S180.3,184,171,185.54l.34-11.65S177.7,143.87,191.76,147.31Z" style="fill:#fff"></path><path d="M196.14,161.56c.12.9-.11,1.68-.51,1.73s-.83-.63-.95-1.54.11-1.67.51-1.73S196,160.66,196.14,161.56Z" style="fill:#263238"></path><path d="M187.66,144.1s9.29,5.25,9.94,10.5,1.58,7.1,4.34,8.74,0,4.25,0,4.25,1.26,13.15-.32,14.59-10-1.05-14-7" style="fill:none;stroke:#263238;stroke-linecap:round;stroke-linejoin:round"></path><path d="M186.2,186.81l.22,8.11s15.68,11.32,20.44,15.77l-1.8,42.5,10.32-44.65S206.15,198,191.92,196l0-5.77A31.25,31.25,0,0,0,186.2,186.81Z" style="fill:#fff;opacity:0.6000000000000001"></path><path d="M192.76,180a8.66,8.66,0,0,0-2.86,4.08,17.89,17.89,0,0,0-.7,3.83" style="fill:none;stroke:#263238;stroke-linecap:round;stroke-linejoin:round"></path><path d="M186.82,166.28s-3.67-3.87-5.56-2.94-2.9,4.53-1.34,9.07,5.51,5.09,7.74,3.09" style="fill:none;stroke:#263238;stroke-linecap:round;stroke-linejoin:round"></path><path d="M171.38,178.93c-.06,2.19-.16,4.11-.34,6.13" style="fill:none;stroke:#263238;stroke-linecap:round;stroke-linejoin:round"></path><path d="M186.82,166.28s9-6.64,8.25-16.56c0,0-4.93-8.39-16.75-8.39s-17,4.14-18.79,12.74-2.7,20.56,4.52,24.86,14.6,1,16.43-5.1c0,0-3.51-7-.07-9.82C183,161.89,186.82,166.28,186.82,166.28Z" style="fill:#263238"></path><path d="M167.8,193.84l-1.73-7.36s14.66-5.35,25.83,3.71v5.43" style="fill:none;stroke:#263238;stroke-linecap:round;stroke-linejoin:round"></path><path d="M204.12,257.27l11.34,30.2s-15,9-30.08,9.37l-4.2-16.61-7.79,15.08c-7.31-1.84-16.12-3.18-23.46-10.45l11.69-26.5-16.49-46.74,10.5-13.54s9.59-6.33,30.79-3.16,29,13.27,29,13.27Z" style="fill:none;stroke:#263238;stroke-linecap:round;stroke-linejoin:round"></path><path d="M204.12,257.27s-4.7,2.28-12.38,0" style="fill:none;stroke:#263238;stroke-linecap:round;stroke-linejoin:round"></path><path d="M191.21,261a16.75,16.75,0,0,0,11.56-3" style="fill:none;stroke:#263238;stroke-linecap:round;stroke-linejoin:round"></path><g style="opacity:0.30000000000000004"><path d="M162.82,151.07c1.64-1.81,4.09-2.63,6.47-3.21a22.38,22.38,0,0,1,9.34-.61,10.79,10.79,0,0,1,7.58,5.07" style="fill:none;stroke:#fff;stroke-linecap:round;stroke-linejoin:round"></path><path d="M162.39,154.28a17.7,17.7,0,0,0,14.1,13.37" style="fill:none;stroke:#fff;stroke-linecap:round;stroke-linejoin:round"></path></g><path d="M215.46,208.19,230.6,230s2.83,7.55,1.26,14.78" style="fill:none;stroke:#263238;stroke-linecap:round;stroke-linejoin:round"></path><path d="M230.6,230l25.1-25.47,5.33,6.92s-13.15,28-25.39,40.91a4.51,4.51,0,0,1-6.41.08l-19.57-19.13" style="fill:none;stroke:#263238;stroke-linecap:round;stroke-linejoin:round"></path><path d="M145.13,211.62s-7.44,30.43-6.86,46.34c0,0,10.2,9.33,23.35.4" style="fill:none;stroke:#263238;stroke-linecap:round;stroke-linejoin:round"></path><path d="M156.55,244a26.16,26.16,0,0,1-3.63,9.58" style="fill:none;stroke:#263238;stroke-linecap:round;stroke-linejoin:round"></path><path d="M157.53,158.18a24.25,24.25,0,0,0-1.5,8.51c-.53,13.34,1.43,26.67,1.12,40-.11,4.59-.52,9.3-2.48,13.45s-5.72,7.71-10.28,8.27a14.77,14.77,0,0,1-6.41-.84,19.25,19.25,0,0,1-8.24-5.25,20.87,20.87,0,0,1-4.68-10.06,28.78,28.78,0,0,1,.87-14.18c2.85-8.87,9.76-15.76,14.37-23.86a50,50,0,0,0,5.06-12.76c.87-3.59,1.54-7.61,4.43-9.92a9.74,9.74,0,0,1,6.83-1.77c1.65.13,5.8.29,5.36,2.73C161.66,154.25,158.36,156.23,157.53,158.18Z" style="fill:#263238"></path><g style="opacity:0.30000000000000004"><path d="M159.69,153.5a11.72,11.72,0,0,0-7.16,4.54,19.44,19.44,0,0,0-2.86,6.71c-4.18,16-1.59,33-4.42,49.22-.86,4.92-2.4,10.07-6.22,13.28" style="fill:none;stroke:#fff;stroke-linecap:round;stroke-linejoin:round"></path><path d="M139.05,190.37c.67-1,1.37-2,2.07-3,.43-.6.88-1.22,1.3-1.85" style="fill:none;stroke:#fff;stroke-linecap:round;stroke-linejoin:round"></path><path d="M133,223.08c-2.76-5.78-2.69-12.63-.88-18.77a42.73,42.73,0,0,1,3.54-8.4" style="fill:none;stroke:#fff;stroke-linecap:round;stroke-linejoin:round"></path></g></g><g id="freepik--character-2--inject-44"><path d="M333.57,222.12a14.06,14.06,0,0,0-.58-8.46,87.22,87.22,0,0,0-4.36-8.11s.37-6.3-1.24-8.46-6.62-10-7.8-10.05-1,5.35,1,8.94l-.33,2.44s-7.59-3.91-9.87-4.82-8-3.46-9.23-2.32,7.66,4.23,9.23,6.74c0,0-14.12-1.48-13.86.4s5.05,2.17,5.05,2.17-1.48.27-1.07,1.44,10.76,3.52,10.76,3.52a24.86,24.86,0,0,0,11.35,9.37C330.54,218.24,333.57,222.12,333.57,222.12Z" style="fill:#fff"></path><path d="M334.63,221.27c-.15-7.89-6-15.72-6-15.72s.49-7-2.18-9.86a19.65,19.65,0,0,1-1.31-1.55c-.41-.52-.82-1.08-1.23-1.65-1.89-2.61-3.63-5.35-4.32-5.45-.89-.13-.62,4.8.3,7.08a3.43,3.43,0,0,0,.38.72,2,2,0,0,1,.35,1.14c.07,1.73-1.24,4.14.11,6.36" style="fill:none;stroke:#263238;stroke-linecap:round;stroke-linejoin:round"></path><path d="M320.29,198.42s-16.84-9.39-19.75-6.64c0,0,9,4.31,9.88,6.24" style="fill:none;stroke:#263238;stroke-linecap:round;stroke-linejoin:round"></path><path d="M313.54,202.49s-10.25-3.21-13-1.53,10.76,4.59,10.76,4.59,4.85,7.26,8.29,6.85" style="fill:none;stroke:#263238;stroke-linecap:round;stroke-linejoin:round"></path><path d="M300.54,201s-4.13-.65-4-2.54,13-2,18.05,1.27" style="fill:none;stroke:#263238;stroke-linecap:round;stroke-linejoin:round"></path><path d="M320.27,194.84a2,2,0,0,1,.35,1.14l-11.09,4.53a1,1,0,0,1-.76-1.85l11.12-4.54A3.43,3.43,0,0,0,320.27,194.84Z" style="fill:#263238"></path><path d="M331.17,191.68l-6,2.46c-.41-.52-.82-1.08-1.23-1.65l6.51-2.66a1,1,0,0,1,.75,1.85Z" style="fill:#263238"></path><polygon points="330.25 211.13 299.9 214.74 290.33 223.05 313.27 267.33 346.5 265.08 348.85 254.12 330.25 211.13" style="fill:#fff"></polygon><polygon points="330.25 211.13 326.45 218.72 346.5 265.08 348.85 254.12 330.25 211.13" style="fill:#263238"></polygon><polygon points="330.25 211.13 326.45 218.72 346.5 265.08 348.85 254.12 330.25 211.13" style="fill:#fff;opacity:0.9"></polygon><polygon points="290.33 223.05 326.45 218.72 346.5 265.08 313.27 267.33 290.33 223.05" style="fill:#263238"></polygon><polygon points="290.33 223.05 326.45 218.72 346.5 265.08 313.27 267.33 290.33 223.05" style="fill:#fff;opacity:0.6000000000000001"></polygon><polygon points="326.45 218.72 290.33 223.05 313.27 267.33 346.5 265.08 326.45 218.72" style="fill:none;stroke:#263238;stroke-linecap:round;stroke-linejoin:round"></polygon><line x1="326.45" y1="218.72" x2="330.25" y2="211.13" style="fill:none;stroke:#263238;stroke-linecap:round;stroke-linejoin:round"></line><polyline points="346.5 265.08 348.85 254.12 330.25 211.13 299.9 214.74 290.33 223.05" style="fill:none;stroke:#263238;stroke-linecap:round;stroke-linejoin:round"></polyline><path d="M313.62,249.27s-1.31-6.49-4.9-8-14.59-.39-15,1.84,3.77,4.68,3.77,4.68-.61,7.37,3.4,10.09,11,1.47,11,1.47l3.64.93,2-10.53Z" style="fill:#fff"></path><path d="M315,249l-1.42.26s-1.48-7.66-5.51-8.33-14.79.27-14.38,2.95,3.76,3.9,3.76,3.9-.14,8.87,4.17,10.48,10.21,1.08,10.21,1.08c-.67-.3.55.15,1.95.5" style="fill:none;stroke:#263238;stroke-linecap:round;stroke-linejoin:round"></path><path d="M404.09,415.44l.53,12.41s-8.78,5.37-12.86,4-17.26-8.34-17.26-8.34-.6-7.13,7.44-7,19.12,4.45,19.12,4.45Z" style="fill:#035898"></path><path d="M404.09,415.44l.53,12.41s-8.78,5.37-12.86,4-17.26-8.34-17.26-8.34-.6-7.13,7.44-7,19.12,4.45,19.12,4.45Z" style="opacity:0.2"></path><path d="M378.21,418.25a60.76,60.76,0,0,0,8.28,3.83,11.65,11.65,0,0,0,4.57.75l1.25-.87,1.74-.87.6-1.92-5.09-1.08S381.93,416.72,378.21,418.25Z" style="fill:#fff"></path><path d="M375.25,420.61l-.75,2.9s10.1,7.16,15.86,8,14.26-3.65,14.26-3.65l-.08-1.87s-5.18,2.95-10,3.16S375.25,420.61,375.25,420.61Z" style="fill:#fff"></path><path d="M394.81,418.75s-12.23-1.65-16.34-.58-4,5.34-4,5.34,14,9.5,19.73,8.44a32.27,32.27,0,0,0,10.39-4.1V414.71" style="fill:none;stroke:#263238;stroke-linecap:round;stroke-linejoin:round"></path><path d="M375.25,420.61s14.46,8.71,19.32,8.53,10.05-3.87,10.05-3.87" style="fill:none;stroke:#263238;stroke-linecap:round;stroke-linejoin:round"></path><path d="M377.89,418.68c4.41.71,6.82,4.17,11.27,4.37a6.56,6.56,0,0,0,5.93-3.34" style="fill:none;stroke:#263238;stroke-linecap:round;stroke-linejoin:round"></path><path d="M353.38,421.66,353,439.31s-9.74,2.42-15.14.39-16.51-16.33-16.51-16.33,3.32-6.47,10.4-3.76S348.47,427,348.47,427Z" style="fill:#035898"></path><path d="M353.38,421.66,353,439.31s-9.74,2.42-15.14.39-16.51-16.33-16.51-16.33,3.32-6.47,10.4-3.76S348.47,427,348.47,427Z" style="opacity:0.2"></path><path d="M321.36,423.37l1.18-2.28s6.74,7.15,8.28,8.64,6,5.82,9.84,7.16,11.84-.07,11.84-.07l.51,2.49s-11.83,1.88-14.59.6S324.42,428.42,321.36,423.37Z" style="fill:#fff"></path><path d="M327.21,418.75s4.5,3.69,6,5,4.07,3.34,6.56,3.28a11.66,11.66,0,0,0,5.15-1.84l-6.12-2.74S330.27,417.89,327.21,418.75Z" style="fill:#fff"></path><path d="M340.11,423.37s-7.65-4.43-12.56-4.61-6.19,4.61-6.19,4.61,12,16.3,18.75,17a37.14,37.14,0,0,0,12.9-1.09l.37-14.55" style="fill:none;stroke:#263238;stroke-linecap:round;stroke-linejoin:round"></path><path d="M322.66,420.94s12.27,14.43,17.32,15.79,13.1,0,13.1,0" style="fill:none;stroke:#263238;stroke-linecap:round;stroke-linejoin:round"></path><path d="M326,418.91a10.71,10.71,0,0,1,5.46,3.14,25.35,25.35,0,0,0,4.88,4.09c1.87,1,4.32,1.33,6.07.12" style="fill:none;stroke:#263238;stroke-linecap:round;stroke-linejoin:round"></path><path d="M351.73,150.15s-7,6.2-7.65,10.42,1.6,9.16,1.41,11-3.78,5.53-3.16,6.65a19.64,19.64,0,0,0,2.8,3.15s-.43,9.06,5,12.31l2.52.59L364,188.09l1.78,2,16.32-3a20.68,20.68,0,0,1-2.06-8c-.23-4.63,2.06-13.55,2.06-13.55L377.51,156Z" style="fill:#fff"></path><path d="M392.36,267.33l5.88,23.43s-4.57,2.36-10.79,5.33c-11.15,5.33-27.61,12.64-32.64,12-7.83-1.08-26.18-20.15-26.18-20.15l11.18-24.32s-23.41.72-27.92-.79c0,0-1.24-9,1.95-16.7l28.38,1.41.28-2.41s5.87-20.77,9.43-28.83S359.49,201,359.49,201l7.16-5.27-2-5.4s8.35-6.12,17.32-5.92h0a16.16,16.16,0,0,1,8.49,2.5l-1.67,5.68s15.37,18,17.72,24.08S397.76,254.69,392.36,267.33Z" style="fill:#035898"></path><path d="M337.57,268.44,358.16,272s13.19-11.39,17.82-40c0,0-9.84,24.36-17.71,30.71l-18.46.79Z" style="opacity:0.2"></path><path d="M392.36,267.33l5.88,23.43s-4.68,1.81-10.9,4.78a178.71,178.71,0,0,0-5.14-20.09,7.4,7.4,0,0,0-1.15-2.48,9.19,9.19,0,0,0-2.3-2.5c-2.58-1.45-6.12-4.29-7.65-6.83,4.57.93,10,3.11,14.65,2.87a2.49,2.49,0,0,0,1.63-.5,2.54,2.54,0,0,0,.59-1.26q2.92-11.25,5.83-22.48a27.91,27.91,0,0,0,1.26-7.82c-.1-3.34-1.38-6.52-2.65-9.62q-4.82-11.76-9.73-23.48a6.6,6.6,0,0,0-2-3,6.4,6.4,0,0,0-2.82-.92c-3.42-.52-7.76-1.59-11.22-1.72,3.92-3.26,9.66-4.63,14.71-5.29a18.27,18.27,0,0,0,.56-6h0a16.16,16.16,0,0,1,8.49,2.5l-1.67,5.68s15.37,18,17.72,24.08S397.76,254.69,392.36,267.33Z" style="opacity:0.2"></path><path d="M351.11,167.56c.13.92-.11,1.71-.52,1.76s-.85-.64-1-1.56.12-1.71.53-1.76S351,166.64,351.11,167.56Z" style="fill:#263238"></path><path d="M369.51,176.6l5.61-1.54s1.41-6,.78-9.57-5.42-3.87-6.86-3.76-1.18,5.46-1.18,5.46" style="fill:none;stroke:#263238;stroke-linecap:round;stroke-linejoin:round"></path><path d="M349.42,151.8l-5.34,8.77a3.15,3.15,0,0,0-.4,2.28l1.81,8.76a3.17,3.17,0,0,1-.58,2.54c-1,1.3-2.48,3.37-2.58,4.11s.9,1.45,1.75,2a3.11,3.11,0,0,1,1.38,2.12c.48,2.85.69,5.74,2.7,8.89,2.63,4.13,5.93,2.84,5.93,2.84l10-6c.79-.51,3.13-8.84,3.13-8.84" style="fill:none;stroke:#263238;stroke-linecap:round;stroke-linejoin:round"></path><path d="M347.27,162.64s3.19-3.85,6.25.25" style="fill:none;stroke:#263238;stroke-linecap:round;stroke-linejoin:round"></path><path d="M349,182.18s8.17-5.32,9.39-8c0,0,.67,7.81-2.55,9.2S349,182.18,349,182.18Z" style="fill:#263238"></path><path d="M381.08,184.41s-2.13-6.91-.89-11.52" style="fill:none;stroke:#263238;stroke-linecap:round;stroke-linejoin:round"></path><path d="M332.11,291.37s-.34,30.35,2.18,68.51,6.12,65.88,6.12,65.88,8.28,6.84,14.76,0l11.16-99,25.2,92.16s5,4.41,9.3,2.25A14.47,14.47,0,0,0,407,415s-11.41-99.63-11.41-123c0,0-36.11,16.83-40.79,16.11S332.11,291.37,332.11,291.37Z" style="fill:#263238"></path><polyline points="366.33 326.76 366.33 320.23 375.38 315.79" style="fill:none;stroke:#fff;stroke-linecap:round;stroke-linejoin:round"></polyline><path d="M375.38,265.08s5.23,3.75,15.48,4.5" style="fill:none;stroke:#263238;stroke-linecap:round;stroke-linejoin:round"></path><path d="M375.38,269.58a24.77,24.77,0,0,0,13.23,0" style="fill:none;stroke:#263238;stroke-linecap:round;stroke-linejoin:round"></path><path d="M367.77,165.22c-.69-.54.74,5.46-3.18,5.74a2.75,2.75,0,0,1-2.35-.54,6,6,0,0,1-1.13-2.33c-.68-2.2-1.37-4.4-2.05-6.6-.45-1.42-1-3-2.19-3.81a10.58,10.58,0,0,0-2.88-1.06c-2.25-.71-4.38-2.52-4.54-4.87,0,0-8.82.78-10.17-2.63-2.06-5.2,1.24-7.48,5.76-7.44s8.68,2.18,13.55.53,15.35-5.75,17.55-.72c0,0,3.8-1.68,6.07,4.63s7.49,19,2.74,22.91-3.64,6.31-5.89,6-2.92-3.71-2.92-3.71,1.2-8-3.88-9.26S367.77,165.22,367.77,165.22Z" style="fill:#263238"></path><path d="M373.26,136.82a4.44,4.44,0,0,1,2.28,5.37" style="fill:none;stroke:#263238;stroke-linecap:round;stroke-linejoin:round"></path><polygon points="366.65 195.49 365.01 190.22 370.37 187.35 371.73 193.01 366.65 195.49" style="fill:#fff;opacity:0.6000000000000001"></polygon><path d="M376.14,141.49a5.7,5.7,0,0,1,7.38,1" style="fill:none;stroke:#263238;stroke-linecap:round;stroke-linejoin:round"></path><path d="M366.48,195.24l-1.88-5s8-5,16.1-5.82c3.51-.37,6.35,1.3,9.73,2.41l-1.67,5.68" style="fill:none;stroke:#263238;stroke-linecap:round;stroke-linejoin:round"></path><path d="M339.81,263.57l-11.18,24.32c5.31,6.71,23.68,19.18,26.18,20.15s43.43-17.28,43.43-17.28l-5.87-23.43S409.7,225.55,407,217.91s-17.72-25.9-20.79-27.58-10.84,1.12-10.84,1.12-10.95,4.31-14.82,8.18-13,25.86-14.84,35.39" style="fill:none;stroke:#263238;stroke-linecap:round;stroke-linejoin:round"></path><path d="M342.22,247.49l-28.38-1.41c-4.17,10-1.94,16.7-1.94,16.7,8.35,2,46.37,0,46.37,0,8.78-8.92,19.24-34.27,19.24-34.27a27.27,27.27,0,0,0-3.28-16" style="fill:none;stroke:#263238;stroke-linecap:round;stroke-linejoin:round"></path><path d="M366.65,204.9l-2,6.23s-22.8,32.88-22.23,39.3c0,0-.4-3.14,3.67-16.45a97.92,97.92,0,0,1,12.15-24.69Z" style="fill:#fff;opacity:0.6000000000000001"></path><path d="M344.41,255.53a14.69,14.69,0,0,1-2.09-9.45c.7-5.44,8.57-25.65,15.95-36.79l9.57-5" style="fill:none;stroke:#263238;stroke-linecap:round;stroke-linejoin:round"></path><line x1="365.31" y1="189.8" x2="364.04" y2="188.09" style="fill:none;stroke:#263238;stroke-linecap:round;stroke-linejoin:round"></line></g></svg>