<svg xmlns="http://www.w3.org/2000/svg" xmlns:xlink="http://www.w3.org/1999/xlink" viewBox="0 0 500 500"><defs><clipPath id="freepik--clip-path--inject-1--inject-50"><path d="M391.77,148.11s-2.65,16.43-1.74,20.44c2.05,9.11,9.22,8.72,13.7,7,4.19-1.63,8.38-7.38,8.92-8.14a.24.24,0,0,1,.15-.11c.67-.2,4.81-1.51,6.64-4.71,2-3.49-1.75-5-1.75-5" style="fill:#fff"></path></clipPath><clipPath id="freepik--clip-path-2--inject-1--inject-50"><path d="M91.77,151.25c-.71-.27-1.4-.59-2.11-.89s-2-.47-2.5,1.76c-.72,3.24,4.32,5.94,2.7,8.64a8.83,8.83,0,0,1-4.31,3.6,3.57,3.57,0,0,1-.9.18c-1.44.18-3.78,0-3.06,2.51s3.06,4.68,4.5,4.68h1.43a14.14,14.14,0,0,0,7.74,7.56c6.12,2.7,10.26,2.52,11.7-.9a25.13,25.13,0,0,0,2.52-10.8c0-4.49-1.62-12.05-1.62-12.05s-1.44,2-7-.54C97.15,153.33,93.69,152,91.77,151.25Z" style="fill:#fff"></path></clipPath><clipPath id="freepik--clip-path-3--inject-1--inject-50"><path d="M398.75,177a9,9,0,0,1-4.3-1c-2.41-1.28-4.05-3.74-4.85-7.29-.91-4.05,1.63-19.93,1.74-20.61a.44.44,0,0,1,.86.14c0,.16-2.63,16.39-1.75,20.28.74,3.3,2.22,5.56,4.41,6.72,3.26,1.74,7.18.54,8.72-.05,4.09-1.6,8.25-7.34,8.71-8a.73.73,0,0,1,.39-.28c.47-.13,4.61-1.42,6.38-4.51a2.93,2.93,0,0,0,.4-2.47,3.75,3.75,0,0,0-1.93-1.9.43.43,0,0,1-.24-.56.44.44,0,0,1,.56-.24,4.55,4.55,0,0,1,2.43,2.41,3.79,3.79,0,0,1-.47,3.19c-1.89,3.32-6.07,4.67-6.89,4.91-.4.62-4.7,6.56-9,8.24A14.71,14.71,0,0,1,398.75,177Z" style="fill:#263238;clip-path:url(#freepik--clip-path--inject-1--inject-50)"></path></clipPath><clipPath id="freepik--clip-path-4--inject-1--inject-50"><path d="M102.33,181.59a18.87,18.87,0,0,1-7.24-1.9,14.82,14.82,0,0,1-7.86-7.52H86.08c-1.76,0-4.19-2.48-4.91-5a2.33,2.33,0,0,1,.15-2c.56-.81,1.69-.91,2.69-1l.58,0a3.17,3.17,0,0,0,.77-.15,8.39,8.39,0,0,0,4.13-3.43c.7-1.16-.14-2.4-1.11-3.82s-2-3-1.64-4.69a2.9,2.9,0,0,1,1.3-2.08,2.08,2.08,0,0,1,1.79,0l.66.29c.48.21,1,.41,1.44.6h0c1.78.67,5.32,2.05,9.09,3.75,5.1,2.31,6.48.69,6.5.68l.57-.71.19.88a75,75,0,0,1,1.63,12.14c0,4.55-1.06,7.42-2.55,11a4.63,4.63,0,0,1-2.6,2.61A6.58,6.58,0,0,1,102.33,181.59Zm-13.47-31a.94.94,0,0,0-.43.1,2.09,2.09,0,0,0-.84,1.5c-.31,1.37.61,2.71,1.5,4,1,1.53,2.13,3.12,1.14,4.76a9.22,9.22,0,0,1-4.55,3.79,4.37,4.37,0,0,1-1,.19,5.67,5.67,0,0,1-.62.06c-.8.07-1.72.15-2,.63a1.57,1.57,0,0,0,0,1.29c.66,2.31,2.83,4.36,4.08,4.36h1.75l.1.3a13.93,13.93,0,0,0,7.51,7.3c4,1.76,7,2.25,9,1.46a3.7,3.7,0,0,0,2.12-2.14,24.56,24.56,0,0,0,2.49-10.63,71,71,0,0,0-1.47-11.29c-.91.49-2.92.9-6.92-.91-3.74-1.69-7.27-3.06-9-3.73h0c-.5-.19-1-.41-1.48-.62l-.65-.28A1.58,1.58,0,0,0,88.86,150.61Z" style="fill:#263238;clip-path:url(#freepik--clip-path-2--inject-1--inject-50)"></path></clipPath></defs><g id="freepik--background-simple--inject-1--inject-50"><path d="M441.85,286.19c-.27-10.16.51-27.5-8.4-34.64-7.83-6.27-13.92,2.24-16.11,9.1-5.33,16.65-2.83,35-2.82,52.18,0,.27,0,.53,0,.79-.42,12.65-1.94,26.34-.56,39,0,0-1.35-12.65-11.29-7.23s5,33.88,5,33.88-11.74-8.58-17.16-1.36,6.77,15.36,6.77,15.36-11.29-3.16-11.29,0,3.62,5.87,14,7.22h56s9-5,7.22-10.38-11.29-2.26-11.29-2.26,14.45-17.62,13.55-25.29S446,363.87,446,363.87s14.45-36.58,11.74-52.84c-2.13-12.81-12.07-4-17.49.88A146.61,146.61,0,0,0,441.85,286.19Z" style="fill:#035898"></path><path d="M102.76,393.23s12.19-8.13,6.77-15.36-17.16,1.36-17.16,1.36,14.9-28.46,5-33.88-11.29,7.23-11.29,7.23c1.38-12.62-.14-26.31-.56-39,0-.26,0-.52,0-.79,0-17.15,2.51-35.53-2.82-52.18-1.35-4.24-4.19-9.09-8-10.72L63.91,280.66l-3.78-1.9.95-7.56,2.15-15.91c-5.38,8.33-4.85,22.22-5.08,30.9a146.61,146.61,0,0,0,1.58,25.72C54.31,307,44.37,298.22,42.24,311,39.53,327.29,54,363.87,54,363.87s-18.52-9-19.42-1.35,13.55,25.29,13.55,25.29-9.49-3.16-11.29,2.26S44,400.45,44,400.45h56c10.38-1.35,14-4.06,14-7.22S102.76,393.23,102.76,393.23Z" style="fill:#035898"></path><path d="M338.16,379.5c0,12.63,10,22.87,10,22.87s10-10.24,10-22.87-10-22.86-10-22.86S338.16,366.87,338.16,379.5Z" style="fill:#035898"></path><path d="M331.23,399c4.86,5.48,13.14,6.08,13.14,6.08s.4-8.3-4.46-13.77-13.14-6.08-13.14-6.08S326.37,393.5,331.23,399Z" style="fill:#035898"></path><path d="M356.72,391.09c-5.1,5.26-5.07,13.56-5.07,13.56s8.3-.22,13.4-5.47,5.07-13.56,5.07-13.56S361.83,385.84,356.72,391.09Z" style="fill:#035898"></path><path d="M153.38,379.5c0,12.63,10,22.87,10,22.87s10-10.24,10-22.87-10-22.86-10-22.86S153.38,366.87,153.38,379.5Z" style="fill:#035898"></path><path d="M146.45,399c4.86,5.48,13.14,6.08,13.14,6.08s.4-8.3-4.46-13.77S142,385.21,142,385.21,141.59,393.5,146.45,399Z" style="fill:#035898"></path><path d="M171.94,391.09c-5.1,5.26-5.07,13.56-5.07,13.56s8.29-.22,13.4-5.47,5.07-13.56,5.07-13.56S177,385.84,171.94,391.09Z" style="fill:#035898"></path><g style="opacity:0.8"><path d="M441.85,286.19c-.27-10.16.51-27.5-8.4-34.64-7.83-6.27-13.92,2.24-16.11,9.1-5.33,16.65-2.83,35-2.82,52.18,0,.27,0,.53,0,.79-.42,12.65-1.94,26.34-.56,39,0,0-1.35-12.65-11.29-7.23s5,33.88,5,33.88-11.74-8.58-17.16-1.36,6.77,15.36,6.77,15.36-11.29-3.16-11.29,0,3.62,5.87,14,7.22h56s9-5,7.22-10.38-11.29-2.26-11.29-2.26,14.45-17.62,13.55-25.29S446,363.87,446,363.87s14.45-36.58,11.74-52.84c-2.13-12.81-12.07-4-17.49.88A146.61,146.61,0,0,0,441.85,286.19Z" style="fill:#fff"></path><line x1="423.89" y1="400" x2="427.95" y2="275.8" style="fill:#fff"></line><line x1="426.15" y1="348.06" x2="447.38" y2="328.19" style="fill:#fff"></line><line x1="436.08" y1="339.03" x2="440.6" y2="326.38" style="fill:#fff"></line><line x1="408.53" y1="363.42" x2="424.79" y2="381.03" style="fill:#fff"></line><line x1="451.89" y1="373.36" x2="424.79" y2="387.36" style="fill:#fff"></line><line x1="437.44" y1="381.49" x2="447.38" y2="381.03" style="fill:#fff"></line><path d="M102.76,393.23s12.19-8.13,6.77-15.36-17.16,1.36-17.16,1.36,14.9-28.46,5-33.88-11.29,7.23-11.29,7.23c1.38-12.62-.14-26.31-.56-39,0-.26,0-.52,0-.79,0-17.15,2.51-35.53-2.82-52.18-1.35-4.24-4.19-9.09-8-10.72L63.91,280.66l-3.78-1.9.95-7.56,2.15-15.91c-5.38,8.33-4.85,22.22-5.08,30.9a146.61,146.61,0,0,0,1.58,25.72C54.31,307,44.37,298.22,42.24,311,39.53,327.29,54,363.87,54,363.87s-18.52-9-19.42-1.35,13.55,25.29,13.55,25.29-9.49-3.16-11.29,2.26S44,400.45,44,400.45h56c10.38-1.35,14-4.06,14-7.22S102.76,393.23,102.76,393.23Z" style="fill:#fff"></path><line x1="76.11" y1="400" x2="72.05" y2="275.8" style="fill:#fff"></line><line x1="73.85" y1="348.06" x2="52.62" y2="328.19" style="fill:#fff"></line><line x1="63.92" y1="339.03" x2="59.4" y2="326.38" style="fill:#fff"></line><line x1="91.47" y1="363.42" x2="75.21" y2="381.03" style="fill:#fff"></line><line x1="48.11" y1="373.36" x2="75.21" y2="387.36" style="fill:#fff"></line><line x1="62.56" y1="381.49" x2="52.62" y2="381.03" style="fill:#fff"></line><path d="M338.16,379.5c0,12.63,10,22.87,10,22.87s10-10.24,10-22.87-10-22.86-10-22.86S338.16,366.87,338.16,379.5Z" style="fill:#fff"></path><line x1="348.17" y1="372.89" x2="342.57" y2="368" style="fill:#fff"></line><line x1="348.26" y1="380.45" x2="355.19" y2="370.4" style="fill:#fff"></line><line x1="348.17" y1="384.81" x2="339.9" y2="377.43" style="fill:#fff"></line><line x1="348.26" y1="390.68" x2="356.44" y2="383.39" style="fill:#fff"></line><line x1="348.26" y1="395.74" x2="341.85" y2="390.68" style="fill:#fff"></line><path d="M331.23,399c4.86,5.48,13.14,6.08,13.14,6.08s.4-8.3-4.46-13.77-13.14-6.08-13.14-6.08S326.37,393.5,331.23,399Z" style="fill:#fff"></path><line x1="344.37" y1="405.06" x2="326.77" y2="385.21" style="fill:#fff"></line><line x1="333.03" y1="392.27" x2="328.72" y2="392.3" style="fill:#fff"></line><line x1="335.97" y1="395.51" x2="335.12" y2="388.48" style="fill:#fff"></line><line x1="337.61" y1="397.44" x2="331.18" y2="397.41" style="fill:#fff"></line><line x1="339.91" y1="399.95" x2="340.65" y2="393.64" style="fill:#fff"></line><line x1="341.86" y1="402.15" x2="337.13" y2="402.41" style="fill:#fff"></line><path d="M356.72,391.09c-5.1,5.26-5.07,13.56-5.07,13.56s8.3-.22,13.4-5.47,5.07-13.56,5.07-13.56S361.83,385.84,356.72,391.09Z" style="fill:#fff"></path><line x1="351.65" y1="404.65" x2="370.12" y2="385.62" style="fill:#fff"></line><line x1="363.56" y1="392.38" x2="363.2" y2="388.09" style="fill:#fff"></line><line x1="360.54" y1="395.56" x2="367.48" y2="394.19" style="fill:#fff"></line><line x1="358.74" y1="397.34" x2="358.28" y2="390.93" style="fill:#fff"></line><line x1="356.41" y1="399.82" x2="362.76" y2="400.09" style="fill:#fff"></line><line x1="354.36" y1="401.93" x2="353.75" y2="397.23" style="fill:#fff"></line><path d="M153.38,379.5c0,12.63,10,22.87,10,22.87s10-10.24,10-22.87-10-22.86-10-22.86S153.38,366.87,153.38,379.5Z" style="fill:#fff"></path><line x1="163.38" y1="372.89" x2="157.78" y2="368" style="fill:#fff"></line><line x1="163.47" y1="380.45" x2="170.41" y2="370.4" style="fill:#fff"></line><line x1="163.38" y1="384.81" x2="155.11" y2="377.43" style="fill:#fff"></line><line x1="163.47" y1="390.68" x2="171.65" y2="383.39" style="fill:#fff"></line><line x1="163.47" y1="395.74" x2="157.07" y2="390.68" style="fill:#fff"></line><path d="M146.45,399c4.86,5.48,13.14,6.08,13.14,6.08s.4-8.3-4.46-13.77S142,385.21,142,385.21,141.59,393.5,146.45,399Z" style="fill:#fff"></path><line x1="159.59" y1="405.06" x2="141.99" y2="385.21" style="fill:#fff"></line><line x1="148.24" y1="392.27" x2="143.93" y2="392.3" style="fill:#fff"></line><line x1="151.19" y1="395.51" x2="150.33" y2="388.48" style="fill:#fff"></line><line x1="152.83" y1="397.44" x2="146.4" y2="397.41" style="fill:#fff"></line><line x1="155.12" y1="399.95" x2="155.87" y2="393.64" style="fill:#fff"></line><line x1="157.07" y1="402.15" x2="152.35" y2="402.41" style="fill:#fff"></line><path d="M171.94,391.09c-5.1,5.26-5.07,13.56-5.07,13.56s8.29-.22,13.4-5.47,5.07-13.56,5.07-13.56S177,385.84,171.94,391.09Z" style="fill:#fff"></path><line x1="166.87" y1="404.65" x2="185.34" y2="385.62" style="fill:#fff"></line><line x1="178.77" y1="392.38" x2="178.42" y2="388.09" style="fill:#fff"></line><line x1="175.76" y1="395.56" x2="182.7" y2="394.19" style="fill:#fff"></line><line x1="173.96" y1="397.34" x2="173.5" y2="390.93" style="fill:#fff"></line><line x1="171.63" y1="399.82" x2="177.98" y2="400.09" style="fill:#fff"></line><line x1="169.58" y1="401.93" x2="168.96" y2="397.23" style="fill:#fff"></line></g><line x1="423.89" y1="400" x2="427.95" y2="275.8" style="fill:#035898"></line><rect x="363.79" y="337.4" width="124.27" height="1" transform="matrix(0.03, -1, 1, 0.03, 74.07, 752.38)" style="fill:#035898"></rect><line x1="426.15" y1="348.06" x2="447.38" y2="328.19" style="fill:#035898"></line><rect x="422.22" y="337.63" width="29.08" height="1" transform="translate(-113.18 389.68) rotate(-43.1)" style="fill:#035898"></rect><line x1="436.08" y1="339.03" x2="440.6" y2="326.38" style="fill:#035898"></line><rect x="431.63" y="332.21" width="13.43" height="1" transform="translate(-22.33 633.73) rotate(-70.36)" style="fill:#035898"></rect><line x1="408.53" y1="363.42" x2="424.79" y2="381.03" style="fill:#035898"></line><rect x="416.16" y="360.24" width="1" height="23.97" transform="translate(-141.98 381.32) rotate(-42.71)" style="fill:#035898"></rect><line x1="451.89" y1="373.36" x2="424.79" y2="387.36" style="fill:#035898"></line><rect x="423.09" y="379.86" width="30.5" height="1" transform="translate(-125.66 243.56) rotate(-27.32)" style="fill:#035898"></rect><line x1="437.44" y1="381.49" x2="447.38" y2="381.03" style="fill:#035898"></line><rect x="437.43" y="380.76" width="9.95" height="1" transform="translate(-16.7 20.28) rotate(-2.58)" style="fill:#035898"></rect><line x1="76.11" y1="400" x2="72.05" y2="275.8" style="fill:#035898"></line><rect x="73.58" y="275.77" width="1" height="124.27" transform="translate(-11.01 2.6) rotate(-1.87)" style="fill:#035898"></rect><line x1="73.85" y1="348.06" x2="52.62" y2="328.19" style="fill:#035898"></line><rect x="62.74" y="323.59" width="1" height="29.08" transform="translate(-226.82 153.21) rotate(-46.89)" style="fill:#035898"></rect><line x1="63.92" y1="339.03" x2="59.4" y2="326.38" style="fill:#035898"></line><rect x="61.16" y="325.99" width="1" height="13.43" transform="translate(-108.32 40.12) rotate(-19.66)" style="fill:#035898"></rect><line x1="91.47" y1="363.42" x2="75.21" y2="381.03" style="fill:#035898"></line><rect x="71.35" y="371.73" width="23.97" height="1" transform="translate(-246.72 181.02) rotate(-47.3)" style="fill:#035898"></rect><line x1="48.11" y1="373.36" x2="75.21" y2="387.36" style="fill:#035898"></line><rect x="61.16" y="365.11" width="1" height="30.5" transform="translate(-304.56 260.54) rotate(-62.68)" style="fill:#035898"></rect><line x1="62.56" y1="381.49" x2="52.62" y2="381.03" style="fill:#035898"></line><rect x="57.09" y="376.29" width="1" height="9.95" transform="translate(-325.89 421.46) rotate(-87.39)" style="fill:#035898"></rect><rect x="347.67" y="356.64" width="1" height="45.74" style="fill:#035898"></rect><line x1="348.17" y1="372.89" x2="342.57" y2="368" style="fill:#035898"></line><rect x="344.87" y="366.73" width="1" height="7.44" transform="translate(-160.83 386.97) rotate(-48.88)" style="fill:#035898"></rect><line x1="348.26" y1="380.45" x2="355.19" y2="370.4" style="fill:#035898"></line><rect x="345.62" y="374.93" width="12.21" height="1" transform="translate(-157.1 451.29) rotate(-55.35)" style="fill:#035898"></rect><line x1="348.17" y1="384.81" x2="339.9" y2="377.43" style="fill:#035898"></line><rect x="343.53" y="375.58" width="1" height="11.08" transform="translate(-169.39 384.04) rotate(-48.25)" style="fill:#035898"></rect><line x1="348.26" y1="390.68" x2="356.44" y2="383.39" style="fill:#035898"></line><rect x="346.87" y="386.53" width="10.96" height="1" transform="translate(-168.25 332.94) rotate(-41.75)" style="fill:#035898"></rect><line x1="348.26" y1="395.74" x2="341.85" y2="390.68" style="fill:#035898"></line><rect x="344.55" y="389.13" width="1" height="8.17" transform="translate(-177.42 419.69) rotate(-51.63)" style="fill:#035898"></rect><line x1="344.37" y1="405.06" x2="326.77" y2="385.21" style="fill:#035898"></line><rect x="335.07" y="381.87" width="1" height="26.52" transform="translate(-177.67 322.15) rotate(-41.57)" style="fill:#035898"></rect><line x1="333.03" y1="392.27" x2="328.72" y2="392.3" style="fill:#035898"></line><rect x="328.72" y="391.78" width="4.31" height="1" transform="translate(-3.05 2.6) rotate(-0.45)" style="fill:#035898"></rect><line x1="335.97" y1="395.51" x2="335.12" y2="388.48" style="fill:#035898"></line><rect x="335.05" y="388.46" width="1" height="7.08" transform="translate(-44.96 43.47) rotate(-6.95)" style="fill:#035898"></rect><line x1="337.61" y1="397.44" x2="331.18" y2="397.41" style="fill:#035898"></line><rect x="333.9" y="394.21" width="1" height="6.43" transform="translate(-64.09 730.55) rotate(-89.82)" style="fill:#035898"></rect><line x1="339.91" y1="399.95" x2="340.65" y2="393.64" style="fill:#035898"></line><rect x="337.1" y="396.29" width="6.35" height="1" transform="translate(-93.69 688.18) rotate(-83.26)" style="fill:#035898"></rect><line x1="341.86" y1="402.15" x2="337.13" y2="402.41" style="fill:#035898"></line><rect x="337.13" y="401.78" width="4.73" height="1" transform="translate(-22.25 19.88) rotate(-3.25)" style="fill:#035898"></rect><line x1="351.65" y1="404.65" x2="370.12" y2="385.62" style="fill:#035898"></line><rect x="347.63" y="394.63" width="26.52" height="1" transform="translate(-173.98 378.3) rotate(-45.79)" style="fill:#035898"></rect><line x1="363.56" y1="392.38" x2="363.2" y2="388.09" style="fill:#035898"></line><rect x="362.88" y="388.08" width="1" height="4.31" transform="translate(-30.94 31.29) rotate(-4.73)" style="fill:#035898"></rect><line x1="360.54" y1="395.56" x2="367.48" y2="394.19" style="fill:#035898"></line><rect x="360.47" y="394.38" width="7.08" height="1" transform="translate(-70.13 78.72) rotate(-11.27)" style="fill:#035898"></rect><line x1="358.74" y1="397.34" x2="358.28" y2="390.93" style="fill:#035898"></line><rect x="358.01" y="390.92" width="1" height="6.43" transform="translate(-27.23 26.61) rotate(-4.1)" style="fill:#035898"></rect><line x1="356.41" y1="399.82" x2="362.76" y2="400.09" style="fill:#035898"></line><rect x="359.08" y="396.78" width="1" height="6.35" transform="translate(-55.32 742.18) rotate(-87.56)" style="fill:#035898"></rect><line x1="354.36" y1="401.93" x2="353.75" y2="397.23" style="fill:#035898"></line><rect x="353.56" y="397.21" width="1" height="4.73" transform="matrix(0.99, -0.13, 0.13, 0.99, -48.99, 49.48)" style="fill:#035898"></rect><line x1="166.87" y1="404.65" x2="185.34" y2="385.62" style="fill:#035898"></line><rect x="162.84" y="394.63" width="26.52" height="1" transform="translate(-230.02 246.13) rotate(-45.83)" style="fill:#035898"></rect><line x1="178.77" y1="392.38" x2="178.42" y2="388.09" style="fill:#035898"></line><rect x="178.1" y="388.08" width="1" height="4.31" transform="translate(-31.57 16.05) rotate(-4.73)" style="fill:#035898"></rect><line x1="175.76" y1="395.56" x2="182.7" y2="394.19" style="fill:#035898"></line><rect x="175.69" y="394.38" width="7.08" height="1" transform="translate(-73.35 42.38) rotate(-11.21)" style="fill:#035898"></rect><line x1="173.96" y1="397.34" x2="173.5" y2="390.93" style="fill:#035898"></line><rect x="173.23" y="390.92" width="1" height="6.43" transform="translate(-27.73 13.43) rotate(-4.1)" style="fill:#035898"></rect><line x1="171.63" y1="399.82" x2="177.98" y2="400.09" style="fill:#035898"></line><rect x="174.3" y="396.78" width="1" height="6.35" transform="translate(-232.23 557.57) rotate(-87.56)" style="fill:#035898"></rect><line x1="169.58" y1="401.93" x2="168.96" y2="397.23" style="fill:#035898"></line><rect x="168.77" y="397.21" width="1" height="4.73" transform="matrix(0.99, -0.13, 0.13, 0.99, -50.57, 25.43)" style="fill:#035898"></rect><line x1="159.59" y1="405.06" x2="141.99" y2="385.21" style="fill:#035898"></line><rect x="150.29" y="381.87" width="1" height="26.52" transform="translate(-224.2 199.55) rotate(-41.57)" style="fill:#035898"></rect><line x1="148.24" y1="392.27" x2="143.93" y2="392.3" style="fill:#035898"></line><rect x="143.93" y="391.78" width="4.31" height="1" transform="translate(-3.06 1.15) rotate(-0.45)" style="fill:#035898"></rect><line x1="151.19" y1="395.51" x2="150.33" y2="388.48" style="fill:#035898"></line><rect x="150.26" y="388.46" width="1" height="7.08" transform="translate(-46.32 21.12) rotate(-6.95)" style="fill:#035898"></rect><line x1="152.83" y1="397.44" x2="146.4" y2="397.41" style="fill:#035898"></line><rect x="149.11" y="394.21" width="1" height="6.43" transform="translate(-248.29 545.77) rotate(-89.82)" style="fill:#035898"></rect><line x1="155.12" y1="399.95" x2="155.87" y2="393.64" style="fill:#035898"></line><rect x="152.32" y="396.29" width="6.35" height="1" transform="translate(-256.78 504.72) rotate(-83.27)" style="fill:#035898"></rect><line x1="157.07" y1="402.15" x2="152.35" y2="402.41" style="fill:#035898"></line><rect x="152.34" y="401.78" width="4.73" height="1" transform="translate(-22.16 9.24) rotate(-3.19)" style="fill:#035898"></rect><rect x="162.88" y="356.64" width="1" height="45.74" style="fill:#035898"></rect><line x1="163.38" y1="372.89" x2="157.78" y2="368" style="fill:#035898"></line><rect x="160.08" y="366.73" width="1" height="7.44" transform="translate(-224.09 247.79) rotate(-48.88)" style="fill:#035898"></rect><line x1="163.47" y1="380.45" x2="170.41" y2="370.4" style="fill:#035898"></line><rect x="160.84" y="374.93" width="12.21" height="1" transform="translate(-236.86 299.51) rotate(-55.38)" style="fill:#035898"></rect><line x1="163.38" y1="384.81" x2="155.11" y2="377.43" style="fill:#035898"></line><rect x="158.75" y="375.58" width="1" height="11.08" transform="translate(-231.14 246.17) rotate(-48.25)" style="fill:#035898"></rect><line x1="163.47" y1="390.68" x2="171.65" y2="383.39" style="fill:#035898"></line><rect x="162.08" y="386.53" width="10.96" height="1" transform="translate(-215.05 209.61) rotate(-41.71)" style="fill:#035898"></rect><line x1="163.47" y1="395.74" x2="157.07" y2="390.68" style="fill:#035898"></line><rect x="159.77" y="389.13" width="1" height="8.17" transform="translate(-247.51 274.81) rotate(-51.63)" style="fill:#035898"></rect><g style="opacity:0.6000000000000001"><line x1="423.89" y1="400" x2="427.95" y2="275.8" style="fill:#fff"></line><rect x="363.79" y="337.4" width="124.27" height="1" transform="matrix(0.03, -1, 1, 0.03, 74.07, 752.38)" style="fill:#fff"></rect><line x1="426.15" y1="348.06" x2="447.38" y2="328.19" style="fill:#fff"></line><rect x="422.22" y="337.63" width="29.08" height="1" transform="translate(-113.18 389.68) rotate(-43.1)" style="fill:#fff"></rect><line x1="436.08" y1="339.03" x2="440.6" y2="326.38" style="fill:#fff"></line><rect x="431.63" y="332.21" width="13.43" height="1" transform="translate(-22.33 633.73) rotate(-70.36)" style="fill:#fff"></rect><line x1="408.53" y1="363.42" x2="424.79" y2="381.03" style="fill:#fff"></line><rect x="416.16" y="360.24" width="1" height="23.97" transform="translate(-141.98 381.32) rotate(-42.71)" style="fill:#fff"></rect><line x1="451.89" y1="373.36" x2="424.79" y2="387.36" style="fill:#fff"></line><rect x="423.09" y="379.86" width="30.5" height="1" transform="translate(-125.66 243.56) rotate(-27.32)" style="fill:#fff"></rect><line x1="437.44" y1="381.49" x2="447.38" y2="381.03" style="fill:#fff"></line><rect x="437.43" y="380.76" width="9.95" height="1" transform="translate(-16.7 20.28) rotate(-2.58)" style="fill:#fff"></rect><line x1="76.11" y1="400" x2="72.05" y2="275.8" style="fill:#fff"></line><rect x="73.58" y="275.77" width="1" height="124.27" transform="translate(-11.01 2.6) rotate(-1.87)" style="fill:#fff"></rect><line x1="73.85" y1="348.06" x2="52.62" y2="328.19" style="fill:#fff"></line><rect x="62.74" y="323.59" width="1" height="29.08" transform="translate(-226.82 153.21) rotate(-46.89)" style="fill:#fff"></rect><line x1="63.92" y1="339.03" x2="59.4" y2="326.38" style="fill:#fff"></line><rect x="61.16" y="325.99" width="1" height="13.43" transform="translate(-108.32 40.12) rotate(-19.66)" style="fill:#fff"></rect><line x1="91.47" y1="363.42" x2="75.21" y2="381.03" style="fill:#fff"></line><rect x="71.35" y="371.73" width="23.97" height="1" transform="translate(-246.72 181.02) rotate(-47.3)" style="fill:#fff"></rect><line x1="48.11" y1="373.36" x2="75.21" y2="387.36" style="fill:#fff"></line><rect x="61.16" y="365.11" width="1" height="30.5" transform="translate(-304.56 260.54) rotate(-62.68)" style="fill:#fff"></rect><line x1="62.56" y1="381.49" x2="52.62" y2="381.03" style="fill:#fff"></line><rect x="57.09" y="376.29" width="1" height="9.95" transform="translate(-325.89 421.46) rotate(-87.39)" style="fill:#fff"></rect><rect x="347.67" y="356.64" width="1" height="45.74" style="fill:#fff"></rect><line x1="348.17" y1="372.89" x2="342.57" y2="368" style="fill:#fff"></line><rect x="344.87" y="366.73" width="1" height="7.44" transform="translate(-160.83 386.97) rotate(-48.88)" style="fill:#fff"></rect><line x1="348.26" y1="380.45" x2="355.19" y2="370.4" style="fill:#fff"></line><rect x="345.62" y="374.93" width="12.21" height="1" transform="translate(-157.1 451.29) rotate(-55.35)" style="fill:#fff"></rect><line x1="348.17" y1="384.81" x2="339.9" y2="377.43" style="fill:#fff"></line><rect x="343.53" y="375.58" width="1" height="11.08" transform="translate(-169.39 384.04) rotate(-48.25)" style="fill:#fff"></rect><line x1="348.26" y1="390.68" x2="356.44" y2="383.39" style="fill:#fff"></line><rect x="346.87" y="386.53" width="10.96" height="1" transform="translate(-168.25 332.94) rotate(-41.75)" style="fill:#fff"></rect><line x1="348.26" y1="395.74" x2="341.85" y2="390.68" style="fill:#fff"></line><rect x="344.55" y="389.13" width="1" height="8.17" transform="translate(-177.42 419.69) rotate(-51.63)" style="fill:#fff"></rect><line x1="344.37" y1="405.06" x2="326.77" y2="385.21" style="fill:#fff"></line><rect x="335.07" y="381.87" width="1" height="26.52" transform="translate(-177.67 322.15) rotate(-41.57)" style="fill:#fff"></rect><line x1="333.03" y1="392.27" x2="328.72" y2="392.3" style="fill:#fff"></line><rect x="328.72" y="391.78" width="4.31" height="1" transform="translate(-3.05 2.6) rotate(-0.45)" style="fill:#fff"></rect><line x1="335.97" y1="395.51" x2="335.12" y2="388.48" style="fill:#fff"></line><rect x="335.05" y="388.46" width="1" height="7.08" transform="translate(-44.96 43.47) rotate(-6.95)" style="fill:#fff"></rect><line x1="337.61" y1="397.44" x2="331.18" y2="397.41" style="fill:#fff"></line><rect x="333.9" y="394.21" width="1" height="6.43" transform="translate(-64.09 730.55) rotate(-89.82)" style="fill:#fff"></rect><line x1="339.91" y1="399.95" x2="340.65" y2="393.64" style="fill:#fff"></line><rect x="337.1" y="396.29" width="6.35" height="1" transform="translate(-93.69 688.18) rotate(-83.26)" style="fill:#fff"></rect><line x1="341.86" y1="402.15" x2="337.13" y2="402.41" style="fill:#fff"></line><rect x="337.13" y="401.78" width="4.73" height="1" transform="translate(-22.25 19.88) rotate(-3.25)" style="fill:#fff"></rect><line x1="351.65" y1="404.65" x2="370.12" y2="385.62" style="fill:#fff"></line><rect x="347.63" y="394.63" width="26.52" height="1" transform="translate(-173.98 378.3) rotate(-45.79)" style="fill:#fff"></rect><line x1="363.56" y1="392.38" x2="363.2" y2="388.09" style="fill:#fff"></line><rect x="362.88" y="388.08" width="1" height="4.31" transform="translate(-30.94 31.29) rotate(-4.73)" style="fill:#fff"></rect><line x1="360.54" y1="395.56" x2="367.48" y2="394.19" style="fill:#fff"></line><rect x="360.47" y="394.38" width="7.08" height="1" transform="translate(-70.13 78.72) rotate(-11.27)" style="fill:#fff"></rect><line x1="358.74" y1="397.34" x2="358.28" y2="390.93" style="fill:#fff"></line><rect x="358.01" y="390.92" width="1" height="6.43" transform="translate(-27.23 26.61) rotate(-4.1)" style="fill:#fff"></rect><line x1="356.41" y1="399.82" x2="362.76" y2="400.09" style="fill:#fff"></line><rect x="359.08" y="396.78" width="1" height="6.35" transform="translate(-55.32 742.18) rotate(-87.56)" style="fill:#fff"></rect><line x1="354.36" y1="401.93" x2="353.75" y2="397.23" style="fill:#fff"></line><rect x="353.56" y="397.21" width="1" height="4.73" transform="matrix(0.99, -0.13, 0.13, 0.99, -48.99, 49.48)" style="fill:#fff"></rect><line x1="166.87" y1="404.65" x2="185.34" y2="385.62" style="fill:#fff"></line><rect x="162.84" y="394.63" width="26.52" height="1" transform="translate(-230.02 246.13) rotate(-45.83)" style="fill:#fff"></rect><line x1="178.77" y1="392.38" x2="178.42" y2="388.09" style="fill:#fff"></line><rect x="178.1" y="388.08" width="1" height="4.31" transform="translate(-31.57 16.05) rotate(-4.73)" style="fill:#fff"></rect><line x1="175.76" y1="395.56" x2="182.7" y2="394.19" style="fill:#fff"></line><rect x="175.69" y="394.38" width="7.08" height="1" transform="translate(-73.35 42.38) rotate(-11.21)" style="fill:#fff"></rect><line x1="173.96" y1="397.34" x2="173.5" y2="390.93" style="fill:#fff"></line><rect x="173.23" y="390.92" width="1" height="6.43" transform="translate(-27.73 13.43) rotate(-4.1)" style="fill:#fff"></rect><line x1="171.63" y1="399.82" x2="177.98" y2="400.09" style="fill:#fff"></line><rect x="174.3" y="396.78" width="1" height="6.35" transform="translate(-232.23 557.57) rotate(-87.56)" style="fill:#fff"></rect><line x1="169.58" y1="401.93" x2="168.96" y2="397.23" style="fill:#fff"></line><rect x="168.77" y="397.21" width="1" height="4.73" transform="matrix(0.99, -0.13, 0.13, 0.99, -50.57, 25.43)" style="fill:#fff"></rect><line x1="159.59" y1="405.06" x2="141.99" y2="385.21" style="fill:#fff"></line><rect x="150.29" y="381.87" width="1" height="26.52" transform="translate(-224.2 199.55) rotate(-41.57)" style="fill:#fff"></rect><line x1="148.24" y1="392.27" x2="143.93" y2="392.3" style="fill:#fff"></line><rect x="143.93" y="391.78" width="4.31" height="1" transform="translate(-3.06 1.15) rotate(-0.45)" style="fill:#fff"></rect><line x1="151.19" y1="395.51" x2="150.33" y2="388.48" style="fill:#fff"></line><rect x="150.26" y="388.46" width="1" height="7.08" transform="translate(-46.32 21.12) rotate(-6.95)" style="fill:#fff"></rect><line x1="152.83" y1="397.44" x2="146.4" y2="397.41" style="fill:#fff"></line><rect x="149.11" y="394.21" width="1" height="6.43" transform="translate(-248.29 545.77) rotate(-89.82)" style="fill:#fff"></rect><line x1="155.12" y1="399.95" x2="155.87" y2="393.64" style="fill:#fff"></line><rect x="152.32" y="396.29" width="6.35" height="1" transform="translate(-256.78 504.72) rotate(-83.27)" style="fill:#fff"></rect><line x1="157.07" y1="402.15" x2="152.35" y2="402.41" style="fill:#fff"></line><rect x="152.34" y="401.78" width="4.73" height="1" transform="translate(-22.16 9.24) rotate(-3.19)" style="fill:#fff"></rect><rect x="162.88" y="356.64" width="1" height="45.74" style="fill:#fff"></rect><line x1="163.38" y1="372.89" x2="157.78" y2="368" style="fill:#fff"></line><rect x="160.08" y="366.73" width="1" height="7.44" transform="translate(-224.09 247.79) rotate(-48.88)" style="fill:#fff"></rect><line x1="163.47" y1="380.45" x2="170.41" y2="370.4" style="fill:#fff"></line><rect x="160.84" y="374.93" width="12.21" height="1" transform="translate(-236.86 299.51) rotate(-55.38)" style="fill:#fff"></rect><line x1="163.38" y1="384.81" x2="155.11" y2="377.43" style="fill:#fff"></line><rect x="158.75" y="375.58" width="1" height="11.08" transform="translate(-231.14 246.17) rotate(-48.25)" style="fill:#fff"></rect><line x1="163.47" y1="390.68" x2="171.65" y2="383.39" style="fill:#fff"></line><rect x="162.08" y="386.53" width="10.96" height="1" transform="translate(-215.05 209.61) rotate(-41.71)" style="fill:#fff"></rect><line x1="163.47" y1="395.74" x2="157.07" y2="390.68" style="fill:#fff"></line><rect x="159.77" y="389.13" width="1" height="8.17" transform="translate(-247.51 274.81) rotate(-51.63)" style="fill:#fff"></rect></g><path d="M370.79,160.15H150.72a.51.51,0,0,1-.5-.5.5.5,0,0,1,.5-.5H370.79a.5.5,0,0,1,.5.5A.5.5,0,0,1,370.79,160.15Z" style="fill:#035898"></path><g style="opacity:0.30000000000000004"><path d="M370.79,160.15H150.72a.51.51,0,0,1-.5-.5.5.5,0,0,1,.5-.5H370.79a.5.5,0,0,1,.5.5A.5.5,0,0,1,370.79,160.15Z" style="fill:#fff"></path></g><path d="M370.35,247.43H150.28a.5.5,0,0,1-.5-.5.5.5,0,0,1,.5-.5H370.35a.5.5,0,0,1,.5.5A.5.5,0,0,1,370.35,247.43Z" style="fill:#035898"></path><g style="opacity:0.30000000000000004"><path d="M370.35,247.43H150.28a.5.5,0,0,1-.5-.5.5.5,0,0,1,.5-.5H370.35a.5.5,0,0,1,.5.5A.5.5,0,0,1,370.35,247.43Z" style="fill:#fff"></path></g><path d="M370.35,318.78H150.28a.5.5,0,0,1-.5-.5.5.5,0,0,1,.5-.5H370.35a.5.5,0,0,1,.5.5A.5.5,0,0,1,370.35,318.78Z" style="fill:#035898"></path><g style="opacity:0.30000000000000004"><path d="M370.35,318.78H150.28a.5.5,0,0,1-.5-.5.5.5,0,0,1,.5-.5H370.35a.5.5,0,0,1,.5.5A.5.5,0,0,1,370.35,318.78Z" style="fill:#fff"></path></g></g><g id="freepik--chart-4--inject-1--inject-50"><rect x="196.96" y="330.86" width="0.22" height="74.25" style="fill:#263238"></rect><rect x="207.57" y="330.86" width="0.22" height="74.25" style="fill:#263238"></rect><rect x="218.17" y="330.86" width="0.22" height="74.25" style="fill:#263238"></rect><rect x="228.78" y="330.86" width="0.22" height="74.25" style="fill:#263238"></rect><rect x="239.39" y="330.86" width="0.22" height="74.25" style="fill:#263238"></rect><rect x="250" y="330.86" width="0.22" height="74.25" style="fill:#263238"></rect><rect x="260.6" y="330.86" width="0.22" height="74.25" style="fill:#263238"></rect><rect x="271.21" y="330.86" width="0.22" height="74.25" style="fill:#263238"></rect><rect x="281.82" y="330.86" width="0.22" height="74.25" style="fill:#263238"></rect><rect x="292.43" y="330.86" width="0.22" height="74.25" style="fill:#263238"></rect><rect x="303.04" y="330.86" width="0.22" height="74.25" style="fill:#263238"></rect><rect x="313.64" y="330.86" width="0.22" height="74.25" style="fill:#263238"></rect><rect x="197.6" y="337.64" width="115.63" height="0.22" style="fill:#263238"></rect><rect x="197.6" y="347.72" width="115.63" height="0.22" style="fill:#263238"></rect><rect x="197.6" y="357.8" width="115.63" height="0.22" style="fill:#263238"></rect><rect x="197.6" y="367.88" width="115.63" height="0.22" style="fill:#263238"></rect><rect x="197.6" y="377.95" width="115.63" height="0.22" style="fill:#263238"></rect><rect x="197.6" y="388.03" width="115.63" height="0.22" style="fill:#263238"></rect><rect x="197.6" y="398.11" width="115.63" height="0.22" style="fill:#263238"></rect><path d="M221.89,356.9l-15.51,47.84h32.49L223.35,356.9A.77.77,0,0,0,221.89,356.9Z" style="fill:#035898"></path><path d="M239.46,405.17H205.78l15.7-48.4a1.19,1.19,0,0,1,1.14-.83h0a1.18,1.18,0,0,1,1.14.83ZM207,404.31h31.3L222.94,357a.33.33,0,0,0-.32-.24.34.34,0,0,0-.32.24Z" style="fill:#263238"></path><path d="M251.47,341.06l-20.65,63.68h42.76l-20.65-63.68A.77.77,0,0,0,251.47,341.06Z" style="fill:#263238"></path><path d="M274.18,405.17h-44l20.84-64.24a1.18,1.18,0,0,1,1.14-.83h0a1.18,1.18,0,0,1,1.14.83Zm-42.77-.86H273L252.52,341.2a.35.35,0,0,0-.32-.23.32.32,0,0,0-.32.23Z" style="fill:#263238"></path><path d="M278.69,367.85l-12,36.89h25.4l-12-36.89A.77.77,0,0,0,278.69,367.85Z" style="fill:#035898"></path><path d="M292.71,405.17H266.13l12.15-37.46a1.18,1.18,0,0,1,1.14-.83h0a1.18,1.18,0,0,1,1.14.83Zm-25.39-.86h24.2L279.74,368a.32.32,0,0,0-.32-.23h0a.32.32,0,0,0-.32.23Z" style="fill:#263238"></path><path d="M295.1,380.52l-7.86,24.22h17.18l-7.86-24.22A.77.77,0,0,0,295.1,380.52Z" style="fill:#263238"></path><path d="M305,405.17H286.65l8-24.79a1.2,1.2,0,0,1,2.28,0Zm-17.17-.86h16l-7.67-23.66a.34.34,0,0,0-.64,0Z" style="fill:#263238"></path></g><g id="freepik--chart-3--inject-1--inject-50"><path d="M195.67,307.38a23.54,23.54,0,1,1,23.54-23.53A23.56,23.56,0,0,1,195.67,307.38Zm0-40.16a16.63,16.63,0,1,0,16.63,16.63A16.64,16.64,0,0,0,195.67,267.22Z" style="fill:#263238"></path><path d="M195.67,307.81a24,24,0,1,1,24-24A24,24,0,0,1,195.67,307.81Zm0-47.06a23.1,23.1,0,1,0,23.1,23.1A23.12,23.12,0,0,0,195.67,260.75Zm0,40.15a17.06,17.06,0,1,1,17.06-17A17.07,17.07,0,0,1,195.67,300.9Zm0-33.25a16.2,16.2,0,1,0,16.2,16.2A16.21,16.21,0,0,0,195.67,267.65Z" style="fill:#263238"></path><path d="M195.67,307.38a23.32,23.32,0,0,1-17-7.25l5-4.78a16.63,16.63,0,1,0,12-28.13v-6.91a23.54,23.54,0,1,1,0,47.07Z" style="fill:#035898"></path><path d="M195.67,307.81a23.76,23.76,0,0,1-17.3-7.38l-.3-.31,5.61-5.38.3.31a16,16,0,0,0,11.69,5,16.2,16.2,0,1,0,0-32.39h-.43v-7.77h.43a24,24,0,1,1,0,47.93Zm-16.38-7.67A22.89,22.89,0,0,0,195.67,307a23.1,23.1,0,0,0,.43-46.2v6.05a17.05,17.05,0,0,1-.43,34.1,16.9,16.9,0,0,1-12-4.94Z" style="fill:#263238"></path><path d="M253.71,307.38a23.54,23.54,0,1,1,23.53-23.53A23.56,23.56,0,0,1,253.71,307.38Zm0-40.16a16.63,16.63,0,1,0,16.62,16.63A16.65,16.65,0,0,0,253.71,267.22Z" style="fill:#263238"></path><path d="M253.71,307.81a24,24,0,1,1,24-24A24,24,0,0,1,253.71,307.81Zm0-47.06a23.1,23.1,0,1,0,23.1,23.1A23.12,23.12,0,0,0,253.71,260.75Zm0,40.15a17.06,17.06,0,1,1,17.06-17A17.07,17.07,0,0,1,253.71,300.9Zm0-33.25a16.2,16.2,0,1,0,16.19,16.2A16.21,16.21,0,0,0,253.71,267.65Z" style="fill:#263238"></path><path d="M262.87,305.53l-2.69-6.36a16.63,16.63,0,0,0-6.47-31.95v-6.91a23.54,23.54,0,0,1,9.16,45.22Z" style="fill:#035898"></path><path d="M262.64,306.09l-3-7.15.4-.17a16.2,16.2,0,0,0-6.3-31.12h-.43v-7.77h.43A24,24,0,0,1,263,305.93Zm-1.9-6.7L263.1,305a23.11,23.11,0,0,0-9-44.21v6.05a17.05,17.05,0,0,1,6.6,32.59Z" style="fill:#263238"></path><path d="M311.75,307.38a23.54,23.54,0,1,1,23.53-23.53A23.56,23.56,0,0,1,311.75,307.38Zm0-40.16a16.63,16.63,0,1,0,16.62,16.63A16.65,16.65,0,0,0,311.75,267.22Z" style="fill:#263238"></path><path d="M311.75,307.81a24,24,0,1,1,24-24A24,24,0,0,1,311.75,307.81Zm0-47.06a23.1,23.1,0,1,0,23.1,23.1A23.12,23.12,0,0,0,311.75,260.75Zm0,40.15a17.06,17.06,0,1,1,17.05-17A17.07,17.07,0,0,1,311.75,300.9Zm0-33.25a16.2,16.2,0,1,0,16.19,16.2A16.22,16.22,0,0,0,311.75,267.65Z" style="fill:#263238"></path><path d="M328,280.53a16.67,16.67,0,0,0-16.29-13.31v-6.91a23.58,23.58,0,0,1,23.06,18.85Z" style="fill:#035898"></path><path d="M327.71,281l-.09-.42a16.24,16.24,0,0,0-15.87-13h-.43v-7.77h.43a24,24,0,0,1,23.49,19.2l.08.42ZM312.18,266.8A17.1,17.1,0,0,1,328.38,280l5.92-1.19a23.16,23.16,0,0,0-22.12-18.08Z" style="fill:#263238"></path></g><g id="freepik--chart-2--inject-1--inject-50"><rect x="205.05" y="233.83" width="110.52" height="0.86" style="fill:#263238"></rect><rect x="204.62" y="231.9" width="0.86" height="2.36" style="fill:#263238"></rect><rect x="226.73" y="231.9" width="0.86" height="2.36" style="fill:#263238"></rect><rect x="248.83" y="231.9" width="0.86" height="2.36" style="fill:#263238"></rect><rect x="270.94" y="231.9" width="0.86" height="2.36" style="fill:#263238"></rect><rect x="293.04" y="231.9" width="0.86" height="2.36" style="fill:#263238"></rect><rect x="315.15" y="231.9" width="0.86" height="2.36" style="fill:#263238"></rect><rect x="208.15" y="202.84" width="15.92" height="18.85" style="fill:#035898"></rect><path d="M224.5,222.12H207.72V202.41H224.5Zm-15.92-.86h15v-18h-15Z" style="fill:#263238"></path><rect x="230.25" y="180.85" width="15.92" height="43.98" style="fill:#035898"></rect><path d="M246.6,225.27H229.82V180.42H246.6Zm-15.91-.87h15.05V181.29H230.69Z" style="fill:#263238"></path><rect x="252.36" y="150.07" width="15.92" height="49.01" style="fill:#035898"></rect><path d="M268.71,199.51H251.93V149.64h16.78Zm-15.92-.87h15V150.5h-15Z" style="fill:#263238"></path><rect x="274.46" y="195.93" width="15.92" height="9.42" style="fill:#035898"></rect><path d="M290.81,205.79H274V195.5h16.78Zm-15.91-.86H290v-8.57H274.9Z" style="fill:#263238"></path><rect x="296.57" y="190.28" width="15.92" height="24.5" style="fill:#035898"></rect><path d="M312.92,215.21H296.14V189.85h16.78ZM297,214.35h15.05V190.71H297Z" style="fill:#263238"></path><rect x="208.15" y="221.69" width="15.92" height="12.57" style="fill:#263238"></rect><path d="M224.5,234.69H207.72V221.26H224.5Zm-15.92-.86h15V222.12h-15Z" style="fill:#263238"></path><rect x="230.25" y="224.83" width="15.92" height="9.42" style="fill:#263238"></rect><path d="M246.6,234.69H229.82V224.4H246.6Zm-15.91-.86h15.05v-8.56H230.69Z" style="fill:#263238"></path><rect x="252.36" y="199.07" width="15.92" height="35.18" style="fill:#263238"></rect><path d="M268.71,234.69H251.93V198.64h16.78Zm-15.92-.86h15V199.51h-15Z" style="fill:#263238"></path><rect x="274.46" y="205.36" width="15.92" height="28.9" style="fill:#263238"></rect><path d="M290.81,234.69H274V204.93h16.78Zm-15.91-.86H290v-28H274.9Z" style="fill:#263238"></path><rect x="296.57" y="214.78" width="15.92" height="19.48" style="fill:#263238"></rect><path d="M312.92,234.69H296.14V214.35h16.78ZM297,233.83h15.05V215.21H297Z" style="fill:#263238"></path></g><g id="freepik--chart-1--inject-1--inject-50"><path d="M354.12,144a1.32,1.32,0,0,1-1.07-.56L315.27,88.27l-38.35,40.88-39.14-25.52-37.87,8.79-38.47,31.24a1.29,1.29,0,0,1-1.63-2L198.74,110l39.53-9.17,38.25,24.94,39.06-41.65,39.61,57.77a1.29,1.29,0,0,1-.33,1.8A1.27,1.27,0,0,1,354.12,144Z" style="fill:#263238"></path><path d="M163.83,142.65a3.21,3.21,0,1,1-3.21-3.2A3.21,3.21,0,0,1,163.83,142.65Z" style="fill:#035898"></path><circle cx="199.32" cy="111.22" r="3.21" style="fill:#035898"></circle><circle cx="238.02" cy="102.24" r="3.21" style="fill:#035898"></circle><circle cx="276.72" cy="127.47" r="3.21" style="fill:#035898"></circle><path d="M318.63,86.21A3.21,3.21,0,1,1,315.42,83,3.21,3.21,0,0,1,318.63,86.21Z" style="fill:#035898"></path><path d="M357.33,142.65a3.21,3.21,0,1,1-3.21-3.2A3.21,3.21,0,0,1,357.33,142.65Z" style="fill:#035898"></path></g><g id="freepik--Shadow--inject-1--inject-50"><ellipse cx="407.7" cy="409.45" rx="41.98" ry="7.55" style="fill:#035898"></ellipse><ellipse cx="99.86" cy="409.45" rx="41.98" ry="7.55" style="fill:#035898"></ellipse><g style="opacity:0.6000000000000001"><ellipse cx="407.7" cy="409.45" rx="41.98" ry="7.55" style="fill:#fff"></ellipse><ellipse cx="99.86" cy="409.45" rx="41.98" ry="7.55" style="fill:#fff"></ellipse></g></g><g id="freepik--character-2--inject-1--inject-50"><path d="M375.73,249.08s-2.24,33.4-2.24,49.35,1,28.92,1.49,40.13-1.49,18.94.25,27.17S381,397.88,381,397.88l4.71,2.84s.78-19,2.52-25.77,2.25-35.14,3.24-43.87,4.24-39.62,4.24-39.62,12.46,32.4,15.45,45.11,13.21,41.37,15.46,48.35,5.76,17.31,5.76,17.31a7.81,7.81,0,0,0,3.24.25,2.77,2.77,0,0,0,2.24-1.5s-3.31-20.87-4.76-31c-1.8-12.55-4.74-31.41-6.48-38.39s-4.49-17.94-4.49-23.18-6.73-57.82-6.73-57.82S391.93,260.8,375.73,249.08Z" style="fill:#263238"></path><path d="M395.67,291.67a.2.2,0,0,1-.16-.07l-10-11.66a.22.22,0,0,1,0-.31.23.23,0,0,1,.31,0l10,11.65a.22.22,0,0,1,0,.31A.24.24,0,0,1,395.67,291.67Z" style="fill:#fff"></path><path d="M391.35,288.52a.25.25,0,0,1-.15,0L383,280.81a.22.22,0,0,1,0-.31.23.23,0,0,1,.31,0l8.22,7.66a.21.21,0,0,1-.14.37Z" style="fill:#fff"></path><path d="M400.71,281.72h-.07a.22.22,0,0,1-.14-.28,24.89,24.89,0,0,1,11.17-12.6.21.21,0,1,1,.2.38,24.43,24.43,0,0,0-11,12.36A.21.21,0,0,1,400.71,281.72Z" style="fill:#fff"></path><path d="M433.33,376.75a.22.22,0,0,1-.22-.21c0-.07-.28-6.52-1.66-8.39s-1.72-9.68-1.74-10.31c-1.15-3.74-2.27-7.69-2.27-11.38,0-3.85-.62-12.78-2.52-15.77l-.18-.28c-1.93-3-4.11-6.45-4.11-11.46a41.74,41.74,0,0,0-1.42-9.94c-.41-1.88-.88-4-1.41-6.76a29.53,29.53,0,0,1-.44-11,52.45,52.45,0,0,0,.43-6.63c0-7.38-2.24-20.1-2.52-21.65-.45-.08-1.65-.51-2.84-2.64-1.44-2.6-.35-6.79-.3-7a.22.22,0,0,1,.42.11s-1.1,4.2.26,6.65,2.64,2.44,2.65,2.44h.18l0,.17c0,.14,2.56,14,2.56,21.88a52.9,52.9,0,0,1-.44,6.68,29.22,29.22,0,0,0,.43,10.87c.53,2.74,1,4.87,1.41,6.75a41.84,41.84,0,0,1,1.43,10c0,4.88,2.15,8.25,4,11.23l.19.28c2.11,3.32,2.58,12.9,2.58,16,0,3.63,1.12,7.57,2.26,11.29v.05c0,.08.29,8.22,1.66,10.09s1.73,8.36,1.74,8.63a.21.21,0,0,1-.2.23Z" style="fill:#fff"></path><path d="M385.34,400.94a.22.22,0,0,1-.21-.21c0-.16-.52-15.74-.52-20.51,0-2.51.9-6.59,1.86-10.9a97,97,0,0,0,2.11-11.53,54.69,54.69,0,0,0,0-8.51c-.18-3.09-.4-6.94-.26-13.6a95.28,95.28,0,0,1,2.29-20.16c.42-2.1.9-4.49,1.4-7.39,2-11.18,1.43-17.75,1.42-17.82a.22.22,0,0,1,.2-.23.21.21,0,0,1,.23.2c0,.06.55,6.68-1.42,17.92-.51,2.91-1,5.3-1.41,7.41a95.94,95.94,0,0,0-2.28,20.08c-.14,6.64.08,10.48.26,13.56a54.35,54.35,0,0,1,0,8.58,95.61,95.61,0,0,1-2.12,11.59c-.95,4.28-1.85,8.33-1.85,10.8,0,4.76.51,20.34.52,20.49a.23.23,0,0,1-.21.23Z" style="fill:#fff"></path><path d="M391.91,258.52l-4.15-.95-.59-2.4a.22.22,0,0,1,.15-.26.21.21,0,0,1,.26.16l.54,2.14,3.23.74-.5-2.5a.22.22,0,0,1,.17-.26.22.22,0,0,1,.25.17Z" style="fill:#fff"></path><path d="M391.63,258.46a.22.22,0,0,1,0-.44c.07,0,6.54-.28,9.94-1.33l-.77-2.06a.22.22,0,0,1,.12-.28.21.21,0,0,1,.28.13l.93,2.48-.21.07c-3.39,1.13-10,1.41-10.27,1.43Z" style="fill:#fff"></path><path d="M404.8,257.05l-.9-3a.22.22,0,0,1,.42-.13l.8,2.68c2.14-.13,5.36-.5,5.93-1.07a.22.22,0,1,1,.31.31c-.89.88-5.83,1.17-6.39,1.2Z" style="fill:#fff"></path><path d="M387.94,257.6a12.45,12.45,0,0,1-5.49-1.44l-2.73-1.51.93-2.17a.21.21,0,0,1,.28-.11.22.22,0,0,1,.12.28l-.78,1.81,2.39,1.32a12.34,12.34,0,0,0,5.28,1.39.22.22,0,0,1,.22.22A.21.21,0,0,1,387.94,257.6Z" style="fill:#fff"></path><path d="M381,397.88s-12.21,8-13.95,11.71,5.23,2.25,10.22.25,8.11-9.12,8.11-9.12Z" style="fill:#fff"></path><path d="M369,412.32a3.11,3.11,0,0,1-2.28-.67c-.34-.36-.63-1-.07-2.24,1.77-3.8,13.61-11.56,14.11-11.89l.23-.15,4.93,3.19-.15.33c-.13.3-3.26,7.32-8.35,9.36A27.07,27.07,0,0,1,369,412.32Zm12-13.92c-1.7,1.12-12,8.07-13.57,11.38-.28.6-.31,1-.08,1.28.88.93,5.16.22,9.75-1.62,4.16-1.66,7-7.15,7.72-8.56Z" style="fill:#263238"></path><path d="M432.74,402.34a29.29,29.29,0,0,0,3.59,9.68c2.68,4.18,7.76,7.76,7.76,1.2S437.82,401,437.82,401,434.72,402.69,432.74,402.34Z" style="fill:#fff"></path><path d="M442.14,417.27c-1.94,0-4.49-2.4-6.17-5a29.58,29.58,0,0,1-3.66-9.85l-.09-.6.6.1c1.8.32,4.76-1.29,4.79-1.31l.27-.14.23.2c.26.24,6.41,5.88,6.41,12.56,0,2.28-.6,3.62-1.78,4A2,2,0,0,1,442.14,417.27Zm-8.87-14.45a28.84,28.84,0,0,0,3.42,9c1.87,2.91,4.47,5,5.8,4.57,1-.29,1.17-1.87,1.17-3.14,0-5.62-4.83-10.65-5.91-11.71a11.43,11.43,0,0,1-4.44,1.31Z" style="fill:#263238"></path><path d="M391.77,148.11s-2.65,16.43-1.74,20.44c2.05,9.11,9.22,8.72,13.7,7,4.19-1.63,8.38-7.38,8.92-8.14a.24.24,0,0,1,.15-.11c.67-.2,4.81-1.51,6.64-4.71,2-3.49-1.75-5-1.75-5" style="fill:#fff"></path><path d="M398.75,177a9,9,0,0,1-4.3-1c-2.41-1.28-4.05-3.74-4.85-7.29-.91-4.05,1.63-19.93,1.74-20.61a.44.44,0,0,1,.86.14c0,.16-2.63,16.39-1.75,20.28.74,3.3,2.22,5.56,4.41,6.72,3.26,1.74,7.18.54,8.72-.05,4.09-1.6,8.25-7.34,8.71-8a.73.73,0,0,1,.39-.28c.47-.13,4.61-1.42,6.38-4.51a2.93,2.93,0,0,0,.4-2.47,3.75,3.75,0,0,0-1.93-1.9.43.43,0,0,1-.24-.56.44.44,0,0,1,.56-.24,4.55,4.55,0,0,1,2.43,2.41,3.79,3.79,0,0,1-.47,3.19c-1.89,3.32-6.07,4.67-6.89,4.91-.4.62-4.7,6.56-9,8.24A14.71,14.71,0,0,1,398.75,177Z" style="fill:#263238"></path><g style="clip-path:url(#freepik--clip-path-3--inject-1--inject-50)"><path d="M408.76,171.65l3.95-4.35s4.68-1.43,6.73-4.73c1.19-1.93.53-3.61-.19-4.09a28.14,28.14,0,0,0-3.07-1.43L414.85,160l-1.13.2s.47-3-.9-4.8-1.67-6.94-1.67-6.94S409.24,158.73,409,163a12.46,12.46,0,0,1-2.16,6.7s.24,2.63.72,5.26c.06.31.11.77.16,1.35l.66-1,.35,1C408.32,174.61,408.13,172.79,408.76,171.65Z" style="fill:#035898;opacity:0.5;mix-blend-mode:multiply"></path></g><path d="M401.9,156.46c-.16.64,0,1.23.3,1.31s.71-.38.87-1,0-1.23-.31-1.31S402.05,155.81,401.9,156.46Z" style="fill:#263238"></path><path d="M394.9,154.75c-.16.64,0,1.23.3,1.31s.71-.39.86-1,0-1.23-.3-1.31S395.05,154.1,394.9,154.75Z" style="fill:#263238"></path><path d="M406.24,154a.43.43,0,0,1-.39-.24,4.2,4.2,0,0,0-3.43-2.11.44.44,0,0,1-.4-.47.46.46,0,0,1,.46-.4,5,5,0,0,1,4.14,2.6.42.42,0,0,1-.19.57A.45.45,0,0,1,406.24,154Z" style="fill:#263238"></path><path d="M393.25,152.55a.42.42,0,0,1-.31-.13.42.42,0,0,1,0-.61,3.87,3.87,0,0,1,4.33-.82.42.42,0,0,1,.19.58.43.43,0,0,1-.58.19,3,3,0,0,0-3.35.68A.46.46,0,0,1,393.25,152.55Z" style="fill:#263238"></path><path d="M397.9,161.86h0c-.07,0-1.69-.14-2-1.48a1.86,1.86,0,0,1,.48-1.69,2.84,2.84,0,0,0,.58-1.18,18.31,18.31,0,0,0,.23-3.16.44.44,0,0,1,.87,0,18.92,18.92,0,0,1-.25,3.35,3.53,3.53,0,0,1-.74,1.52c-.29.41-.42.6-.33,1,.19.73,1.24.83,1.25.83a.43.43,0,0,1,0,.86Z" style="fill:#263238"></path><path d="M400.71,166.3a5.72,5.72,0,0,1-1.54-.22.44.44,0,0,1-.27-.55.42.42,0,0,1,.54-.27,3.81,3.81,0,0,0,3.09-.37.43.43,0,0,1,.6.09.42.42,0,0,1-.08.6A3.82,3.82,0,0,1,400.71,166.3Z" style="fill:#263238"></path><path d="M412.21,136.65s-5.49-4.74-10.72-4.74-9.47,3-12.71,3.24-5.48-2.74-7.48,1.25,5.49,10.72,10.47,11.71,12-.5,14-.75a42.56,42.56,0,0,1,5.73,0s-1.5,4.74,0,6.24,1.74,2.49,1.74,3.49a22.57,22.57,0,0,0,.5,3.24l1.5.49.75-2.74a15.86,15.86,0,0,0,4-7.72c.75-4.49-3-9-3-9Z" style="fill:#263238"></path><path d="M397,146.76a35.23,35.23,0,0,1-5.82-.46.22.22,0,0,1,.08-.43c.08,0,8.53,1.57,15.07-1.14,1.79-.73,2.81-1.74,3.05-3,.45-2.39-2.17-4.93-2.19-5a.21.21,0,0,1,0-.3.22.22,0,0,1,.31,0c.11.11,2.8,2.73,2.31,5.35-.26,1.39-1.37,2.5-3.3,3.29A25.3,25.3,0,0,1,397,146.76Z" style="fill:#fff"></path><path d="M410.56,147.45a.22.22,0,0,1,0-.43c.09,0,2.18-.27,3.27-3.31a3.8,3.8,0,0,0-.76-3.33,12.36,12.36,0,0,0-4.33-4,.23.23,0,0,1-.21-.22.21.21,0,0,1,.21-.21c.56,0,3,1.84,4.5,3.89,1.07,1.52,1.4,2.86,1,4-1.19,3.31-3.54,3.58-3.64,3.59Z" style="fill:#fff"></path><path d="M407.8,235.07l-7.18-3.83a37.49,37.49,0,0,1-5.5-.72c-1.68-.48-18.89-2.12-18.89-2.12l-.26,4s19.62,2.63,23.69,3.11,7.66,2.39,8.38,3.59,2.15,2.39,1.43,5.74S404,253,404,253c-.23-.34,11.52-1.18,11.39-2.44-.25-2.49-1.58-9.77-1.58-9.77Z" style="fill:#035898"></path><path d="M407.8,235.07l-7.18-3.83a37.49,37.49,0,0,1-5.5-.72c-1.68-.48-18.89-2.12-18.89-2.12l-.26,4s19.62,2.63,23.69,3.11,7.66,2.39,8.38,3.59,2.15,2.39,1.43,5.74S404,253,404,253c-.18-.36,11.54-1.2,11.39-2.44-.38-3.18-1.58-9.77-1.58-9.77Z" style="fill:#fff;opacity:0.5"></path><path d="M431.56,195.25c-.63-3-5.37-2.59-8.22-4.24s-9.8-5.48-9.8-5.48l-3.35-5a26.5,26.5,0,0,1-1.46-4.21l-.35-1-.66,1c.42,4.46.8,15.88.8,15.88l1.43,7.18s5.51,23.69,6.94,29,1.44,8.85.48,10.53-.63,2.41-.63,2.41,3.74-2.89,3.5-5.76C420,232.21,432,197.26,431.56,195.25Z" style="fill:#035898"></path><path d="M431.56,195.25c-.32-3-5.37-2.59-8.22-4.24s-9.8-5.48-9.8-5.48l-3.35-5a26.5,26.5,0,0,1-1.46-4.21l-.35-1-.66,1c.42,4.46.8,15.88.8,15.88l1.43,7.18s5.51,23.69,6.94,29,1.44,8.85.48,10.53-.63,2.41-.63,2.41,3.84-2.9,3.5-5.76C419.89,232.52,431.83,197.76,431.56,195.25Z" style="fill:#fff;opacity:0.5"></path><path d="M410.62,192.26s-1.49-13.46-2.24-16.95-.25-5.48-3.49-5.48-7.23-.5-6.48,1.24,5.73.25,6.48,1,.25,2.49.25,2.49-6.48.5-6.48,2.25.25,6.48,1.5,7,1.74-2.24,1.74-2.24.25,5.73,1.5,7.73a21.93,21.93,0,0,0,2.74,3.49Z" style="fill:#fff"></path><path d="M406,193.21l-.15-.15a22.44,22.44,0,0,1-2.8-3.56c-.82-1.32-1.23-4.08-1.41-6a1.84,1.84,0,0,1-.61.6,1.16,1.16,0,0,1-1,.05c-1.69-.67-1.77-6.26-1.77-7.37,0-1.88,4.67-2.48,6.56-2.65.1-.52.17-1.41-.2-1.79a6.53,6.53,0,0,0-2.06,0c-1.85.11-3.95.24-4.52-1.09a1.1,1.1,0,0,1,.05-1.12c.57-.84,2.27-.83,5-.76l1.82,0c3,0,3.22,1.66,3.58,3.94.09.57.19,1.2.33,1.89.75,3.47,2.19,16.44,2.25,17l.05.43Zm-3.81-15.51.16,3.82c0,.06.26,5.64,1.43,7.52a21.27,21.27,0,0,0,2.54,3.26l3.85-.42c-.27-2.33-1.53-13.4-2.19-16.48-.15-.71-.25-1.35-.34-1.93-.36-2.27-.51-3.21-2.73-3.21-.6,0-1.23,0-1.84,0-1.67,0-3.95-.1-4.28.38a.38.38,0,0,0,0,.3c.33.77,2.26.65,3.67.57s2.3-.12,2.72.29c.9.91.41,2.72.36,2.92l-.09.29-.3,0c-2.93.23-6.08,1-6.08,1.82,0,2.94.49,6.28,1.23,6.57a.26.26,0,0,0,.27,0c.41-.22.77-1.25.89-1.91Z" style="fill:#263238"></path><path d="M415.93,241.64a5.06,5.06,0,0,1-1.4-.21c-3.36-1-7.33-5.5-8.31-9.44-1.25-5-.54-34.74-.51-36a.43.43,0,0,1,.43-.43h0a.44.44,0,0,1,.42.45c0,.31-.73,30.9.49,35.77.9,3.62,4.65,7.91,7.72,8.82a2.94,2.94,0,0,0,3-.56c2.56-2.37,2.11-7,1.79-10.47-.1-1-.19-1.93-.19-2.67,0-1.8-2.7-10.73-4.88-17.9-2-6.52-3.09-10.24-3.09-11a14.23,14.23,0,0,0-1-4.08.43.43,0,0,1,.24-.56.44.44,0,0,1,.56.24,14.54,14.54,0,0,1,1,4.4c0,.68,1.56,5.8,3.06,10.76,2.31,7.6,4.92,16.22,4.92,18.15,0,.7.08,1.57.18,2.59.34,3.59.81,8.52-2.06,11.19A3.54,3.54,0,0,1,415.93,241.64Z" style="fill:#263238"></path><path d="M406.64,200.17a.43.43,0,0,1-.43-.39.42.42,0,0,1,.38-.47l5-.5a.43.43,0,0,1,.47.38.44.44,0,0,1-.39.48l-5,.5Z" style="fill:#263238"></path><path d="M374.77,215.21l1-27.52s-1.19-.72-1.67,1.91-.72,7.9-.72,7.9-5.74-3.59-4.31-1.44,3.83,6.94,3.83,6.94L364,211.86l4.06,1.67Z" style="fill:#035898"></path><path d="M374.77,215.21l1-27.52s-1.19-.72-1.67,1.91-.72,7.9-.72,7.9-5.74-3.59-4.31-1.44,3.83,6.94,3.83,6.94L364,211.86l4.06,1.67Z" style="fill:#fff;opacity:0.5"></path><path d="M386.69,193.81s-.45,1.61,1.46,1.61a19.33,19.33,0,0,0,5.27-1.36l-.24-2.71S388.58,193.64,386.69,193.81Z" style="fill:#035898"></path><path d="M386.69,193.81s-.45,1.61,1.46,1.61a19.33,19.33,0,0,0,5.27-1.36l-.24-2.71S388.58,193.64,386.69,193.81Z" style="fill:#fff;opacity:0.5"></path><path d="M396.64,196.21a2.76,2.76,0,0,1-.57-.06,3.91,3.91,0,0,1-2.54-2.46c-1.53-3.33.86-17.54,1-18.14a.43.43,0,0,1,.5-.35.43.43,0,0,1,.35.5c-.86,5-2.17,15.16-1,17.62.53,1.15,1.18,1.82,1.93,2a3.71,3.71,0,0,0,2.88-1.14A28.13,28.13,0,0,0,403,189a.42.42,0,0,1,.59-.14.43.43,0,0,1,.15.59,28.37,28.37,0,0,1-4.08,5.34A4.88,4.88,0,0,1,396.64,196.21Z" style="fill:#263238"></path><path d="M392.43,255c-11,0-16.76-5.37-17-5.6l-.13-.13v-.17l-.5-20.44a.42.42,0,0,1,.42-.44h0a.42.42,0,0,1,.43.42l.5,20.25c.9.78,6.5,5.25,16.27,5.25s20.59-3.27,22.5-3.87v-6.92a.43.43,0,0,1,.86,0v7.54l-.29.1C415.38,251,403.34,255,392.43,255Z" style="fill:#263238"></path><path d="M412.62,192.94a.44.44,0,0,1-.35-.69s.66-1,.66-5-4.31-8.37-4.36-8.42a.43.43,0,0,1,.61-.61c.19.19,4.62,4.67,4.62,9s-.75,5.38-.84,5.5A.42.42,0,0,1,412.62,192.94Z" style="fill:#263238"></path><path d="M421.09,231.57l-.13,0a.43.43,0,0,1-.28-.54c4.2-13.6,10.45-34.35,10.45-35.76,0-.84-1.42-1.3-3.21-1.88a22.16,22.16,0,0,1-4.81-2c-3.73-2.24-10.46-6.23-10.46-6.23l.44-.74s6.73,4,10.47,6.23a21,21,0,0,0,4.62,1.91c2.13.69,3.81,1.23,3.81,2.7,0,2-9.41,32.54-10.49,36A.42.42,0,0,1,421.09,231.57Z" style="fill:#263238"></path><path d="M414.61,206.4h-.1a.45.45,0,0,1-.32-.53l2.5-10a.42.42,0,0,1,.52-.31.43.43,0,0,1,.31.52l-2.49,10A.43.43,0,0,1,414.61,206.4Z" style="fill:#263238"></path><path d="M375.29,202.06a.2.2,0,0,1-.19-.12l-4-8.45a.21.21,0,0,1,.11-.28.2.2,0,0,1,.28.1l4,8.45a.21.21,0,0,1-.11.28A.15.15,0,0,1,375.29,202.06Z" style="fill:#263238"></path><path d="M375.29,204.48a.23.23,0,0,1-.11,0l-6-3.62a.22.22,0,0,1-.08-.3.22.22,0,0,1,.3-.07l6,3.62a.21.21,0,0,1-.11.4Z" style="fill:#263238"></path><path d="M393.8,229.42h0a.21.21,0,0,1-.17-.26l1.2-6a.22.22,0,0,1,.26-.17.21.21,0,0,1,.17.25l-1.21,6A.21.21,0,0,1,393.8,229.42Z" style="fill:#263238"></path><path d="M415.93,203.27a.19.19,0,0,1-.14-.05.21.21,0,0,1,0-.3c5.62-6.82,11.73-8.11,11.79-8.12a.21.21,0,1,1,.09.42c-.06,0-6,1.28-11.55,8A.21.21,0,0,1,415.93,203.27Z" style="fill:#263238"></path><path d="M416.33,199.25a.25.25,0,0,1-.17-.08.22.22,0,0,1,0-.3c5.55-4.76,7.26-4.52,7.43-4.47a.21.21,0,0,1,.16.26.23.23,0,0,1-.26.16s-1.72-.19-7,4.38A.24.24,0,0,1,416.33,199.25Z" style="fill:#263238"></path><path d="M394.76,216.18l-2.41-.48,2.44-19.11a.22.22,0,0,1,.24-.19.22.22,0,0,1,.19.25l-2.39,18.71,1.62.32,1.55-5.84a.22.22,0,0,1,.27-.15.22.22,0,0,1,.15.26Z" style="fill:#263238"></path><path d="M379.65,252h-.34a.21.21,0,0,1-.21-.22.21.21,0,0,1,.22-.21c.1,0,10.07.33,17.16-5.58a.2.2,0,0,1,.3,0,.21.21,0,0,1,0,.3C390.28,251.66,381.48,252,379.65,252Z" style="fill:#263238"></path><path d="M354.1,214.72a.25.25,0,0,1-.17-.08.22.22,0,0,1,0-.3c7-5.8,12.14-1.28,12.19-1.23a.23.23,0,0,1,0,.31.22.22,0,0,1-.3,0c-.2-.18-4.88-4.31-11.62,1.24A.24.24,0,0,1,354.1,214.72Z" style="fill:#263238"></path><path d="M387.83,193.76a2.94,2.94,0,0,1-.74-.09,1.25,1.25,0,0,1-.88-.78c-.75-1.9,1.82-7,3.61-9.84,2.31-3.59,4.41-4.15,4.5-4.17a.42.42,0,0,1,.52.31.44.44,0,0,1-.31.53s-1.89.54-4,3.8-4.05,7.74-3.53,9a.4.4,0,0,0,.28.27c1.49.37,4.41-1.1,5.41-1.7a.43.43,0,0,1,.59.15.44.44,0,0,1-.15.59C393,192,390,193.76,387.83,193.76Z" style="fill:#263238"></path><path d="M404.64,195.18a.42.42,0,0,1-.29-.11l-2.49-2.24a.43.43,0,0,1,.58-.64l2.49,2.24a.43.43,0,0,1-.29.75Z" style="fill:#263238"></path><path d="M398.47,231.11l-22.29-2.28c-1-.19-24.89-4.39-27.38-5.14a3.23,3.23,0,0,1-2.32-1.65c-.36-.88-.12-2,.82-3.7,1.39-2.55,23.93-31.34,26.19-32.92a2.23,2.23,0,0,0,.64-.76c.47-.76,1-1.62,3.82-1.81,3.68-.24,12.84-1.48,12.93-1.49a.43.43,0,0,1,.11.86c-.09,0-9.28,1.25-13,1.5-2.37.15-2.74.76-3.14,1.4a3,3,0,0,1-.88,1c-1.72,1.21-24.25,29.56-25.92,32.62-.78,1.43-1,2.37-.78,3s.76.85,1.77,1.16c2.44.73,27,5.06,27.25,5.1l21.56,2.21,1.75-5.5.35,0c1.75.23,5.25.67,5.93.67a.44.44,0,0,1,.44.43.44.44,0,0,1-.44.43c-.78,0-4.49-.47-5.68-.63Z" style="fill:#263238"></path><path d="M397.41,223.6l-.11,0a73.23,73.23,0,0,1-14.05-5.77.43.43,0,0,1-.17-.59.44.44,0,0,1,.59-.17,72.55,72.55,0,0,0,13.86,5.7.43.43,0,0,1,.3.53A.44.44,0,0,1,397.41,223.6Z" style="fill:#263238"></path><path d="M381.46,217.36a.39.39,0,0,1-.15,0c-.07,0-7.3-2.71-11.19-3.19s-9.93-.66-10-.66a.42.42,0,0,1-.42-.44.43.43,0,0,1,.44-.42c.06,0,6.11.16,10.08.66s11.08,3.13,11.38,3.24a.43.43,0,0,1-.15.83Z" style="fill:#263238"></path><path d="M374.73,214.12h0a.43.43,0,0,1-.42-.44l.75-19.69a.43.43,0,0,1,.43-.42h0a.43.43,0,0,1,.41.45l-.74,19.69A.44.44,0,0,1,374.73,214.12Z" style="fill:#263238"></path><path d="M403.51,233.12h-.08A29,29,0,0,1,398,231a.43.43,0,0,1,.38-.78,28,28,0,0,0,5.23,2,.44.44,0,0,1,.35.5A.43.43,0,0,1,403.51,233.12Z" style="fill:#263238"></path></g><g id="freepik--character-1--inject-1--inject-50"><path d="M72,214.78l2.94-16.05,18.6-7.3s.9-5,1.81-5.22S97.15,184,97.15,184l-.45-4.12s1.7-6.54,10.26-1.44c0,0-2.59,1.73-2.14,2.41s-.5,3,.63,3,3.42,1.44,4.58,2.61a16.43,16.43,0,0,1,2.13,2.84l9.63.55a11.82,11.82,0,0,1,2.92.4,26.68,26.68,0,0,0-1.55-11.09C119,169,111.46,165.44,110.38,160.4s-.54-5.58-.54-5.58a9.5,9.5,0,0,0,2.52-8.64c-1.08-5.4-5.22-9.18-20.16-9.9s-12.77,9.54-12.77,9.54l.18.72s-9.54,3.24-7.74,15.3,7,17.27,6.84,21S73,188.11,65,196.75s-9.54,21.59-6.3,30.05A21.87,21.87,0,0,0,67.54,237Z" style="fill:#263238"></path><path d="M84.46,216.36V220l-6.9,21.31a28,28,0,0,0,13.18.27,25.66,25.66,0,0,0,7-3Z" style="fill:#263238"></path><path d="M110.33,153.59a.2.2,0,0,1-.15-.06c-.13-.12-13.13-12.38-19.3-12.38S81.61,148,81.58,148a.22.22,0,0,1-.29.1.21.21,0,0,1-.11-.28c0-.07,3.3-7.14,9.7-7.14s19.06,12,19.6,12.5a.21.21,0,0,1,0,.3A.18.18,0,0,1,110.33,153.59Z" style="fill:#fff"></path><path d="M98.11,154a.21.21,0,0,1-.21-.19s-.72-5.53-5.28-7-8.33,2.39-8.37,2.43a.23.23,0,0,1-.31,0,.22.22,0,0,1,0-.31s4-4.16,8.82-2.54,5.56,7.35,5.57,7.41a.22.22,0,0,1-.19.24Z" style="fill:#fff"></path><path d="M63.74,220.54a.22.22,0,0,1-.18-.1c-2.22-3.44-3.66-18.1,5.94-24.72,1.76-1.22,3.43-2.29,4.9-3.24,6.55-4.21,10.15-6.53,9.25-12.84-.55-3.83-2.79-7.42-5-10.88s-4.32-6.91-4.09-10c.46-5.93,6.16-9.19,6.22-9.22a.21.21,0,0,1,.29.08.21.21,0,0,1-.08.3s-5.56,3.18-6,8.87c-.23,2.93,1.83,6.22,4,9.71s4.46,7.12,5,11.05c.94,6.58-3,9.1-9.45,13.26-1.46.95-3.13,2-4.89,3.23-9.4,6.49-7.74,21.15-5.82,24.13a.22.22,0,0,1-.07.3A.15.15,0,0,1,63.74,220.54Z" style="fill:#fff"></path><path d="M68.26,226.19a.15.15,0,0,1-.09,0c-2.08-.92-3.44-3.83-3.5-3.95a.22.22,0,0,1,.11-.29.21.21,0,0,1,.28.11s1.35,2.88,3.29,3.74a.21.21,0,0,1,.11.28A.23.23,0,0,1,68.26,226.19Z" style="fill:#fff"></path><path d="M85.68,193.62a.23.23,0,0,1-.19-.1.21.21,0,0,1,.07-.29s4.45-2.95,5.1-7.54c.52-3.6-4.57-10.59-7.3-14.35-.81-1.12-1.46-2-1.72-2.48a4,4,0,0,1-.22-3.83.21.21,0,1,1,.37.21,3.62,3.62,0,0,0,.23,3.41c.25.45.88,1.32,1.69,2.43,3,4.08,7.92,10.9,7.38,14.67-.68,4.79-5.11,7.72-5.3,7.84A.2.2,0,0,1,85.68,193.62Z" style="fill:#fff"></path><path d="M82.28,164a.21.21,0,0,1-.16-.08c-.05-.06-1.18-1.48-1.41-6.69s5.05-7.65,5.11-7.67a.21.21,0,0,1,.28.11A.22.22,0,0,1,86,150s-5.06,2.26-4.85,7.25,1.3,6.42,1.31,6.43a.23.23,0,0,1,0,.31A.24.24,0,0,1,82.28,164Z" style="fill:#fff"></path><path d="M121.41,187.06a.22.22,0,0,1-.22-.19,17.33,17.33,0,0,0-4.46-9.82,36.34,36.34,0,0,1-6.6-10,.21.21,0,0,1,.11-.28.22.22,0,0,1,.29.11,35.9,35.9,0,0,0,6.51,9.88c4.08,4.08,4.58,10,4.59,10.09a.22.22,0,0,1-.2.23Z" style="fill:#fff"></path><path d="M117.11,187.74a.21.21,0,0,1-.21-.21c0-2.87-2-7.56-2-7.61a.21.21,0,0,1,.11-.28.22.22,0,0,1,.29.11c.08.2,2,4.83,2,7.78A.21.21,0,0,1,117.11,187.74Z" style="fill:#fff"></path><path d="M103.81,181.1l-6.39,5.75s-.68,1.75-2,4.53-1.07,8.15-1.07,8.15l3.94,7.83s-7.58-8.69-8-9.76-8.36.86-9.86,1.5S77,201,77.45,203s2.36,4.5,1.5,4.93-3.22-.64-3.22.64,2.79,6.22,1.51,7.93-9.44,29.37-9.44,29.37,5.15-4.29,3.86-2.57-7.5,15.64-7.5,15.64l-2.36,8.15,5.58-28.94,4.71-24.43,2.84-15c2.73-.92,18.6-7.3,18.6-7.3s1.25-5.27,3.62-7.48l-.45-4.12S101,181.31,103.81,181.1Z" style="fill:#035898"></path><path d="M103.81,181.1l-6.39,5.75s-.68,1.75-2,4.53-1.07,8.15-1.07,8.15l3.94,7.83s-7.58-8.69-8-9.76-8.36.86-9.86,1.5S77,201,77.45,203s2.36,4.5,1.5,4.93-3.22-.64-3.22.64,2.79,6.22,1.51,7.93-9.44,29.37-9.44,29.37,5.15-4.29,3.86-2.57-7.5,15.64-7.5,15.64l-2.36,8.15,5.58-28.94,4.71-24.43,2.84-15c2.73-.92,18.6-7.3,18.6-7.3s1.25-5.27,3.62-7.48l-.45-4.12S101,181.31,103.81,181.1Z" style="fill:#fff;opacity:0.5"></path><path d="M127.61,210s3.86-6.43,4.28-4.93-1.07,6.65-1.07,6.65,4.07-1.5,3.65-.22-1.29,1.93-1.08,2.57,14.15,7.94,15.87,8.79,5.78-4.07,7.71-2.57,0,6.63-3.86,6.65-15-4.93-15-4.93l-8.77-5.11" style="fill:#035898"></path><path d="M127.61,210s3.86-6.43,4.28-4.93-1.07,6.65-1.07,6.65,4.07-1.5,3.65-.22-1.29,1.93-1.08,2.57,14.15,7.94,15.87,8.79,5.78-4.07,7.71-2.57,0,6.63-3.86,6.65-15-4.93-15-4.93L129.37,217" style="fill:#fff;opacity:0.5"></path><path d="M104.46,236s25.08-13.29,21-8.36S107.89,238.11,104.46,236Z" style="fill:#035898"></path><path d="M104.46,236s25.08-13.29,21-8.36S107.89,238.11,104.46,236Z" style="fill:#fff;opacity:0.5"></path><path d="M108.56,202.49c-1.75,0-7.09-6.69-7.7-7.45-3.2-4-3.32-4.39-3.77-7.51l-.09-.62c-.54-3.57-.73-7-.73-7.06a.43.43,0,0,1,.41-.45.43.43,0,0,1,.45.41s.19,3.44.72,7l.09.62c.43,3,.46,3.12,3.6,7.09,3.56,4.5,6.28,7,7,7.12a.43.43,0,0,1,.52,0,.43.43,0,0,1,.08.61.66.66,0,0,1-.54.26Z" style="fill:#263238"></path><path d="M108.94,201.14h0a.44.44,0,0,1-.41-.46c0-.06.34-6.27-.88-10.29a19,19,0,0,0-2.32-4.93,3.48,3.48,0,0,1-.76-1.67,24.57,24.57,0,0,0-.35-2.8.42.42,0,0,1,.34-.5.44.44,0,0,1,.51.34,25.47,25.47,0,0,1,.36,3A3.75,3.75,0,0,0,106,185a18.89,18.89,0,0,1,2.42,5.14c1.27,4.17.94,10.33.92,10.59A.43.43,0,0,1,108.94,201.14Z" style="fill:#263238"></path><path d="M98.46,208.6l-6.17-12.32,0-.14s.54-3.46,1.08-6.31a9.79,9.79,0,0,1,3-5.11.44.44,0,0,1,.61.05.43.43,0,0,1,0,.61A9,9,0,0,0,94.25,190c-.47,2.52-1,5.48-1.06,6.15l5,10a20.32,20.32,0,0,1,1.91-4.62,9.2,9.2,0,0,1,1.92-2.46.43.43,0,0,1,.48.72h0a9.86,9.86,0,0,0-1.67,2.21,23.57,23.57,0,0,0-2.11,5.45Z" style="fill:#263238"></path><path d="M117.68,204.29l-1.17-1.52c-.78-1-3.06-3.82-4.16-4.38a2.71,2.71,0,0,0-2-.34.43.43,0,0,1-.55-.25.42.42,0,0,1,.24-.55,3.41,3.41,0,0,1,2.69.37,14.78,14.78,0,0,1,3.26,3.12c-.76-3-2.47-8.77-4.88-12.2-3.18-4.51-5.33-4.32-5.35-4.32a.44.44,0,0,1-.13-.86c.11,0,2.65-.34,6.18,4.68s5.39,14,5.47,14.38Z" style="fill:#263238"></path><path d="M65,278.76l-5.46-1.05.06-.41c0-.26,4-26,6.31-35.13S74.44,199,74.5,198.65l0-.24,17.5-6.74a.43.43,0,0,1,.56.24.44.44,0,0,1-.25.56l-17,6.57c-.57,3.07-6.39,34.66-8.6,43.34C64.56,250.8,61,273.67,60.48,277l3.9.75,1.5-4.32a.44.44,0,0,1,.55-.27.43.43,0,0,1,.27.55Z" style="fill:#263238"></path><path d="M67.19,271.32a.42.42,0,0,1-.24-.07.43.43,0,0,1-.12-.6h0c0-.07,1.11-1.77,3.91-10.51,1.41-4.42,4-11.83,6.41-19s4.82-14.07,5.46-16.26c1.25-4.29,2.34-7.2,2.35-7.23a.44.44,0,0,1,.56-.25.43.43,0,0,1,.25.55s-1.09,2.92-2.33,7.17c-.64,2.21-3,9.06-5.47,16.3s-5,14.57-6.41,19c-2.86,9-4,10.66-4,10.73A.44.44,0,0,1,67.19,271.32Z" style="fill:#263238"></path><path d="M97.24,246h-.09a.44.44,0,0,1-.33-.52,15,15,0,0,1,.56-1.68c.52-1.37,1.16-3.07.48-3.66-1.28-1.09-14.44-24.61-15.93-27.29a.42.42,0,0,1,.17-.58.43.43,0,0,1,.58.16c5.84,10.45,14.85,26.28,15.74,27.06,1.14,1,.41,2.91-.23,4.62a14.46,14.46,0,0,0-.53,1.56A.43.43,0,0,1,97.24,246Z" style="fill:#263238"></path><path d="M107,263.58c-13,0-16.25-4.67-16.38-4.87l-.13-.21,4.78-9.93a.43.43,0,0,1,.78.37l-4.56,9.48c.74.83,4.46,4.3,15.51,4.3a48.11,48.11,0,0,0,21.65-5.19c-.43-2.32-3-16.17-2.83-18.88s.54-10.36.54-10.43v-.12l.07-.1c0-.05,3.15-4.78,2.8-8.36a40.45,40.45,0,0,0-1.49-6.85,10.52,10.52,0,0,1-.49-2c0-.7-.35-8.36-.36-8.43a.44.44,0,0,1,.87,0c0,.31.36,7.75.36,8.47a14.82,14.82,0,0,0,.45,1.77,40.55,40.55,0,0,1,1.52,7c.35,3.63-2.4,8.07-2.88,8.82-.05,1-.37,7.67-.53,10.32-.18,2.8,2.84,18.81,2.87,19l.06.3-.27.16A48.46,48.46,0,0,1,107,263.58Z" style="fill:#263238"></path><path d="M106.94,233a.21.21,0,0,1-.19-.11.21.21,0,0,1,.07-.29l12.89-7.92a.22.22,0,0,1,.23.37l-12.89,7.91A.19.19,0,0,1,106.94,233Z" style="fill:#263238"></path><path d="M113.72,230.49a.23.23,0,0,1-.19-.11.21.21,0,0,1,.08-.29l7-4.07a.22.22,0,0,1,.3.07.22.22,0,0,1-.08.3l-7,4.07A.23.23,0,0,1,113.72,230.49Z" style="fill:#263238"></path><path d="M149.68,221.22l-.08,0a.22.22,0,0,1-.12-.28l2.63-6.44a.22.22,0,0,1,.28-.12.23.23,0,0,1,.12.29l-2.63,6.43A.22.22,0,0,1,149.68,221.22Z" style="fill:#263238"></path><path d="M148.78,220.08a.25.25,0,0,1-.16-.06.22.22,0,0,1,0-.3l2.49-2.49a.21.21,0,0,1,.31,0,.22.22,0,0,1,0,.3L148.93,220A.22.22,0,0,1,148.78,220.08Z" style="fill:#263238"></path><path d="M70.52,247.45a.23.23,0,0,1-.18-.09.22.22,0,0,1,.06-.3c2.88-2,7.15-6.93,7.2-7a.21.21,0,0,1,.3,0,.22.22,0,0,1,0,.31s-4.35,5-7.27,7A.22.22,0,0,1,70.52,247.45Z" style="fill:#263238"></path><path d="M66,249a.21.21,0,0,1-.17-.08.21.21,0,0,1,0-.3c1.79-1.34,9.19-7.18,9.27-7.24a.22.22,0,0,1,.27.34c-.08.06-7.49,5.9-9.28,7.24A.22.22,0,0,1,66,249Z" style="fill:#263238"></path><path d="M82.74,209.91a.22.22,0,0,1-.2-.13,90.23,90.23,0,0,0-6.09-9.92.21.21,0,0,1,.06-.3.22.22,0,0,1,.3.06,91.44,91.44,0,0,1,6.12,10,.22.22,0,0,1-.1.29Z" style="fill:#263238"></path><path d="M85,214.2a.21.21,0,0,1-.19-.1l-1.58-2.72a.21.21,0,0,1,.37-.21l1.58,2.71a.21.21,0,0,1-.07.29Z" style="fill:#263238"></path><path d="M127.65,211h0a.23.23,0,0,1-.17-.26l2-10.07a.24.24,0,0,1,.26-.18.23.23,0,0,1,.17.26l-2,10.08A.22.22,0,0,1,127.65,211Z" style="fill:#263238"></path><path d="M128.38,211.72a.2.2,0,0,1-.13,0,.21.21,0,0,1-.05-.3l3.06-4.32a.22.22,0,0,1,.35.25l-3.06,4.32A.21.21,0,0,1,128.38,211.72Z" style="fill:#263238"></path><path d="M85.37,218a.2.2,0,0,1-.11,0l-8.64-4.68a.21.21,0,0,1-.08-.29.22.22,0,0,1,.29-.09l8.64,4.68a.24.24,0,0,1,.09.3A.23.23,0,0,1,85.37,218Z" style="fill:#263238"></path><path d="M112.9,214.24a.21.21,0,0,1-.21-.17,64.41,64.41,0,0,0-4.3-11.11.21.21,0,1,1,.38-.19A63.47,63.47,0,0,1,113.11,214a.21.21,0,0,1-.16.25Z" style="fill:#263238"></path><path d="M166.78,193.4a.2.2,0,0,1-.15-.06,6.25,6.25,0,0,0-4.58-1.6.22.22,0,0,1-.24-.19.23.23,0,0,1,.19-.24,6.54,6.54,0,0,1,4.93,1.72.21.21,0,0,1,0,.31A.22.22,0,0,1,166.78,193.4Z" style="fill:#263238"></path><path d="M65.35,273.93h-.07l-2.23-.84a.22.22,0,0,1-.13-.28.21.21,0,0,1,.28-.12l2.23.83a.22.22,0,0,1-.08.42Z" style="fill:#263238"></path><path d="M59.63,276.83a66.12,66.12,0,0,1-.18,10.08c-.54,3.77-.36,12.41.36,15.11s1.08,3.24,1.8,1.62,2.88-11.16,2.88-11.16.36,6.3,2,5.76.72-3.6.72-6.3.18-3.59,0-5.75-2.34-6.84-2.34-6.84" style="fill:#fff"></path><path d="M60.92,305h-.06c-.62-.05-.94-.88-1.47-2.85-.71-2.68-.92-11.39-.37-15.29a66.4,66.4,0,0,0,.18-10l.86-.05A64.72,64.72,0,0,1,59.88,287c-.55,3.81-.35,12.33.35,14.94a12.14,12.14,0,0,0,.69,2.11,2.86,2.86,0,0,0,.3-.55c.69-1.57,2.83-11,2.85-11.08l.68-3,.17,3.06c.11,1.94.58,4.88,1.27,5.35a.12.12,0,0,0,.14,0c.86-.28.71-1.9.56-3.61-.06-.74-.13-1.52-.13-2.28,0-1,0-1.77,0-2.44a26.26,26.26,0,0,0,0-3.28c-.17-2.06-2.28-6.65-2.3-6.69l.78-.36c.09.19,2.2,4.77,2.38,7a26,26,0,0,1,0,3.38c0,.66,0,1.41,0,2.41,0,.73.07,1.48.13,2.21.18,2.06.36,4-1.14,4.5a1,1,0,0,1-.91-.13c-.72-.48-1.13-2-1.36-3.46-.7,3-1.84,7.63-2.33,8.76C61.75,304.38,61.44,305,60.92,305Z" style="fill:#263238"></path><path d="M164.12,186a.36.36,0,0,1-.36-.35c0-.13-.15-3.33,0-4.83a13.17,13.17,0,0,0-.13-2.49,17,17,0,0,1-.17-3.18,4.76,4.76,0,0,1,.93-2.25,4,4,0,0,0,.87-2.91,12.49,12.49,0,0,0-.46-2.26c-.16-.58-.27-1,.08-1.44s1.29-.3,1.66-.2a3.11,3.11,0,0,1,2.42,2.33,26.73,26.73,0,0,1,0,5.23,8,8,0,0,0,.17,1c.24,1.12.56,2.66.11,3.55a7.83,7.83,0,0,0-.71,2,.36.36,0,0,1-.71-.12,8.78,8.78,0,0,1,.78-2.19c.34-.67,0-2.12-.17-3.08a3.18,3.18,0,0,1-.15-1.36,28,28,0,0,0,0-4.94c-.07-.72-.83-1.28-1.51-1.56a1.82,1.82,0,0,0-1.29-.19c-.12.16-.12.23,0,.81a13,13,0,0,1,.48,2.36,4.67,4.67,0,0,1-1,3.39,4.07,4.07,0,0,0-.81,1.91,15.77,15.77,0,0,0,.16,3.05,13.79,13.79,0,0,1,.14,2.64,47.23,47.23,0,0,0,0,4.73.37.37,0,0,1-.34.38Z" style="fill:#263238"></path><path d="M170.7,175.52a.34.34,0,0,1-.14,0,.37.37,0,0,1-.2-.47,42.52,42.52,0,0,0,1.92-5.73c.17-1.54,2.36-5.1,2.75-5.69s.66-1.39.45-1.74-.55-.27-.87-.24c-1.27.09-3.79,4.23-5.09,6.82a.36.36,0,1,1-.64-.32c.36-.72,3.59-7.06,5.67-7.22a1.51,1.51,0,0,1,1.55.59,2.67,2.67,0,0,1-.47,2.51c-.7,1-2.5,4.17-2.64,5.37a43.17,43.17,0,0,1-2,5.92A.36.36,0,0,1,170.7,175.52Z" style="fill:#263238"></path><path d="M174.28,178.72a1.24,1.24,0,0,1-.41-.08,7.09,7.09,0,0,1-2.25-1.74.36.36,0,0,1,.54-.48A6.29,6.29,0,0,0,174.1,178c.59.21,1.15-.75,2.25-3.1.87-1.84-2.52-4.39-3.9-5.21a.37.37,0,0,1-.12-.5.36.36,0,0,1,.49-.12c.23.14,5.5,3.34,4.18,6.14C176,177.37,175.27,178.72,174.28,178.72Z" style="fill:#263238"></path><path d="M169.45,186.5h-.1a.36.36,0,0,1-.25-.44l.67-2.33.11-.08a9.6,9.6,0,0,0,2-2c1-1.31,2.35-3.53,2.36-3.55a.37.37,0,0,1,.5-.12.36.36,0,0,1,.12.49c-.06.09-1.37,2.27-2.42,3.62a10.39,10.39,0,0,1-2.08,2l-.6,2.08A.34.34,0,0,1,169.45,186.5Z" style="fill:#263238"></path><path d="M154.82,228.59a20.29,20.29,0,0,1-5.7-1.2c-5.2-1.61-18.94-9.42-19.52-9.75a.43.43,0,1,1,.43-.75c.14.08,14.23,8.09,19.35,9.68s8.08,2.25,10.27-2.65c2.31-5.13,7.34-22.27,7.34-23.39s2.21-10.3,2.66-12.13a8.39,8.39,0,0,0-2.23-2h0c-.59,0-2.64-.23-3.47-.32a35.6,35.6,0,0,0-1.49,5.47c0,1.11-8.13,19.53-9.76,23.21l-.2.47-.43-.29-2.89-2c-2.3-1.59-22-19.62-23.66-21.68-1.08-1.32-9-1.71-13.69-1.64h0a.43.43,0,0,1,0-.86c1.3,0,12.68-.13,14.38,2s21.2,19.93,23.49,21.51l2.44,1.69c3.83-8.66,9.36-21.44,9.48-22.41s1.47-5.55,1.64-6.06l.11-.33.35,0c1.05.13,3.18.36,3.73.36.83,0,2.39,1.74,3,2.49l.15.17-.06.21c-1.08,4.39-2.68,11.25-2.68,12.14,0,1.41-5.17,18.73-7.42,23.75C159,227.5,157.19,228.59,154.82,228.59Z" style="fill:#263238"></path><path d="M90.94,258.47s-7.2,18-9.15,30.29-1.11,41-1.67,44-8.36,17.55-8.36,24.52-4.18,42.91-4.18,42.91l2.79,1.67S80.12,371.8,83.74,364s8.64-26.2,10-29.82,11.15-32.6,11.71-36.22,3.9-12.54,3.9-12.54,7.24,44.3,8.64,53.5S129.16,398,129.16,398a9.92,9.92,0,0,0,2,.28c.84,0,1.12-1.39,1.12-1.39s3.9-35.39,2.78-44.87-4.45-21.17-4.45-24.52,5-32.32,5-42.35-6.48-27.39-6.48-27.39S106,269.42,90.94,258.47Z" style="fill:#263238"></path><path d="M124.58,345.83a.2.2,0,0,1-.11,0,.21.21,0,0,1-.08-.29c3.34-5.56,5.83-16.12,5.86-16.22a.22.22,0,0,1,.26-.17.23.23,0,0,1,.16.26c0,.11-2.54,10.73-5.91,16.35A.2.2,0,0,1,124.58,345.83Z" style="fill:#fff"></path><path d="M123.67,351.71a.2.2,0,0,1-.16-.07.21.21,0,0,1,0-.3c4-3.54,6-11.13,6-11.21a.21.21,0,0,1,.26-.15.22.22,0,0,1,.16.27c-.09.31-2.1,7.79-6.17,11.41A.23.23,0,0,1,123.67,351.71Z" style="fill:#fff"></path><path d="M85,350.13a.24.24,0,0,1-.2-.12c-1.8-3.83-3.34-12.8-3.41-13.18a.22.22,0,1,1,.43-.07c0,.09,1.6,9.29,3.37,13.06a.22.22,0,0,1-.1.29Z" style="fill:#fff"></path><path d="M85,352.84a.21.21,0,0,1-.18-.09c-2.49-3.84-3.87-10.42-3.88-10.48a.22.22,0,0,1,.17-.26.21.21,0,0,1,.25.17c0,.07,1.38,6.57,3.82,10.33a.22.22,0,0,1-.07.3A.2.2,0,0,1,85,352.84Z" style="fill:#fff"></path><path d="M110.1,285.67a.18.18,0,0,1-.16-.08.21.21,0,0,1,0-.3l9.05-7.46a.2.2,0,0,1,.3,0,.21.21,0,0,1,0,.3l-9.05,7.46A.19.19,0,0,1,110.1,285.67Z" style="fill:#fff"></path><path d="M114.4,282.51a.23.23,0,0,1-.2-.13.22.22,0,0,1,.11-.29l10.63-4.75a.22.22,0,0,1,.18.4l-10.63,4.75Z" style="fill:#fff"></path><path d="M102.19,278.21a.2.2,0,0,1-.15-.06A94.41,94.41,0,0,0,91,269.81a.22.22,0,0,1,.23-.37,95.67,95.67,0,0,1,11.11,8.4.21.21,0,0,1,0,.3A.19.19,0,0,1,102.19,278.21Z" style="fill:#fff"></path><path d="M67.88,400.2s-10.61,8.94-10.61,13.4,4.18,4.17,8.64,0,4.69-12.79,4.69-12.79Z" style="fill:#fff"></path><path d="M59.85,417.27a3.08,3.08,0,0,1-1.26-.25c-.8-.34-1.75-1.22-1.75-3.43,0-4.6,10.32-13.35,10.76-13.72l.16-.14,3.29.74v.35c0,.36-.3,8.84-4.83,13.09C63.88,416.09,61.61,417.27,59.85,417.27ZM68,400.67c-1.32,1.14-10.29,9-10.29,12.92,0,1,.22,2.2,1.23,2.64,1.47.64,4.09-.52,6.68-3,3.78-3.54,4.44-10.49,4.54-12.13Z" style="fill:#263238"></path><path d="M129.16,398s3.62,8.92,7.53,12.82,6.13,5.29,6.13,1.11-2.51-8.91-10.59-15C132.23,396.88,134.46,398.55,129.16,398Z" style="fill:#fff"></path><path d="M141.65,414.9c-1.07,0-2.6-1.12-5.27-3.79-3.92-3.91-7.47-12.59-7.62-13l-.27-.66.72.07c2.69.29,3.06-.06,3.08-.08a2.78,2.78,0,0,1-.31-.25h0l.52-.69h0c7.33,5.57,10.75,10.45,10.75,15.38,0,1.05-.11,2.48-1.08,2.88A1.3,1.3,0,0,1,141.65,414.9Zm-11.81-16.41c.92,2.12,4,8.83,7.15,12,1,1,3.89,3.89,4.85,3.5.2-.08.54-.46.54-2.08,0-4.41-3-8.85-9.4-13.92C132.72,398.37,132,398.65,129.84,398.49Z" style="fill:#263238"></path><path d="M91.77,151.25c-.71-.27-1.4-.59-2.11-.89s-2-.47-2.5,1.76c-.72,3.24,4.32,5.94,2.7,8.64a8.83,8.83,0,0,1-4.31,3.6,3.57,3.57,0,0,1-.9.18c-1.44.18-3.78,0-3.06,2.51s3.06,4.68,4.5,4.68h1.43a14.14,14.14,0,0,0,7.74,7.56c6.12,2.7,10.26,2.52,11.7-.9a25.13,25.13,0,0,0,2.52-10.8c0-4.49-1.62-12.05-1.62-12.05s-1.44,2-7-.54C97.15,153.33,93.69,152,91.77,151.25Z" style="fill:#fff"></path><path d="M102.33,181.59a18.87,18.87,0,0,1-7.24-1.9,14.82,14.82,0,0,1-7.86-7.52H86.08c-1.76,0-4.19-2.48-4.91-5a2.33,2.33,0,0,1,.15-2c.56-.81,1.69-.91,2.69-1l.58,0a3.17,3.17,0,0,0,.77-.15,8.39,8.39,0,0,0,4.13-3.43c.7-1.16-.14-2.4-1.11-3.82s-2-3-1.64-4.69a2.9,2.9,0,0,1,1.3-2.08,2.08,2.08,0,0,1,1.79,0l.66.29c.48.21,1,.41,1.44.6h0c1.78.67,5.32,2.05,9.09,3.75,5.1,2.31,6.48.69,6.5.68l.57-.71.19.88a75,75,0,0,1,1.63,12.14c0,4.55-1.06,7.42-2.55,11a4.63,4.63,0,0,1-2.6,2.61A6.58,6.58,0,0,1,102.33,181.59Zm-13.47-31a.94.94,0,0,0-.43.1,2.09,2.09,0,0,0-.84,1.5c-.31,1.37.61,2.71,1.5,4,1,1.53,2.13,3.12,1.14,4.76a9.22,9.22,0,0,1-4.55,3.79,4.37,4.37,0,0,1-1,.19,5.67,5.67,0,0,1-.62.06c-.8.07-1.72.15-2,.63a1.57,1.57,0,0,0,0,1.29c.66,2.31,2.83,4.36,4.08,4.36h1.75l.1.3a13.93,13.93,0,0,0,7.51,7.3c4,1.76,7,2.25,9,1.46a3.7,3.7,0,0,0,2.12-2.14,24.56,24.56,0,0,0,2.49-10.63,71,71,0,0,0-1.47-11.29c-.91.49-2.92.9-6.92-.91-3.74-1.69-7.27-3.06-9-3.73h0c-.5-.19-1-.41-1.48-.62l-.65-.28A1.58,1.58,0,0,0,88.86,150.61Z" style="fill:#263238"></path><g style="clip-path:url(#freepik--clip-path-4--inject-1--inject-50)"><path d="M100.84,155s-8.6-.48-9.89-.27.22,4.07-.21,7.93-.22,10.08,1.5,12a69.14,69.14,0,0,0,6.43,5.57s-6.64-1.07-9-3.86a13.85,13.85,0,0,1-2.79-4.29s-5.57-3.21-6-5.78,3.22-1.19,5-2.43c1-.68,5.1-2,4-5.4s-2.7-4-2.77-6.36c0-1.61,1.39-2.1,2.27-2.25a2,2,0,0,1,1.17.17Z" style="fill:#035898;opacity:0.5;mix-blend-mode:multiply"></path></g><path d="M98.13,161.91c.12.69-.07,1.29-.42,1.35s-.71-.46-.82-1.14.08-1.29.42-1.35S98,161.23,98.13,161.91Z" style="fill:#263238"></path><path d="M105.58,160.67c.11.69-.08,1.29-.42,1.35s-.71-.46-.82-1.15.07-1.28.42-1.34S105.47,160,105.58,160.67Z" style="fill:#263238"></path><path d="M93.82,159a.46.46,0,0,1-.22-.06.44.44,0,0,1-.15-.59A5.28,5.28,0,0,1,98,156a.43.43,0,0,1,0,.86,4.39,4.39,0,0,0-3.76,1.95A.47.47,0,0,1,93.82,159Z" style="fill:#263238"></path><path d="M107.5,158.49a.45.45,0,0,1-.32-.14,3.17,3.17,0,0,0-3.47-1,.44.44,0,0,1-.57-.24.42.42,0,0,1,.24-.56,4,4,0,0,1,4.44,1.19.43.43,0,0,1,0,.61A.46.46,0,0,1,107.5,158.49Z" style="fill:#263238"></path><path d="M101.92,167.85a.44.44,0,0,1,0-.87s1.14,0,1.39-.78c.13-.38,0-.6-.27-1a3.87,3.87,0,0,1-.65-1.64,19.75,19.75,0,0,1,0-3.51.43.43,0,0,1,.47-.39.43.43,0,0,1,.39.47,19.61,19.61,0,0,0,0,3.32,3,3,0,0,0,.52,1.29,1.93,1.93,0,0,1,.36,1.78C103.68,167.83,102,167.85,101.92,167.85Z" style="fill:#263238"></path><path d="M99,172.28a4.19,4.19,0,0,1-2.78-.94.43.43,0,1,1,.57-.65,4,4,0,0,0,3.21.62.44.44,0,0,1,.52.32.43.43,0,0,1-.31.52A5.57,5.57,0,0,1,99,172.28Z" style="fill:#263238"></path></g></svg>